<svg xmlns="http://www.w3.org/2000/svg" xmlns:xlink="http://www.w3.org/1999/xlink" width="174.85" height="213.134" viewBox="0 0 174.85 213.134"><defs><clipPath id="a"><path d="M-2728.283,46.536s1.292,4.1,2.186,4.1,1.786-5.193,1.786-5.193S-2727.789,46.76-2728.283,46.536Z" transform="translate(2728.283 -45.446)" fill="none"/></clipPath><clipPath id="b"><path d="M-2713.764,45.558s-1.292,4.1-2.185,4.1-1.787-5.193-1.787-5.193S-2714.258,45.781-2713.764,45.558Z" transform="translate(2717.735 -44.467)" fill="none"/></clipPath><clipPath id="c"><path d="M-2729.894,45.107c-.82,5.518-.617,12.018,6.9,13.336a9.157,9.157,0,0,0,5.755-.68,7.5,7.5,0,0,0,3.571-4.607c.763-2.591.548-4.869.739-7.522a4.265,4.265,0,0,1-3.572.264c-1.786-.79-5.358-6.323-5.358-6.323l-1.786,3.952s-4.466,3.951-6.252,1.581" transform="translate(2730.221 -39.574)" fill="none"/></clipPath><clipPath id="d"><path d="M-2689.333-4.912l-5.618-10.111,3.674-14.684a1.609,1.609,0,0,0-2.768-1.412l-9.8,10.592c-3.686-4.864-13.26-8.33-24.494-8.33-10.871,0-20.19,7.249-24.121,10.821a2.791,2.791,0,0,0,0,3.882c3.931,3.572,13.25,10.821,24.121,10.821,11.238,0,20.816-3.469,24.5-8.336l11.714,9.339A1.973,1.973,0,0,0-2689.333-4.912Z" transform="translate(2753.245 31.646)" fill="none"/></clipPath></defs><g transform="translate(2814.661 34)"><g transform="translate(-2676.063 115.283)"><g transform="translate(0 29.075)"><path d="M-2647.463,185.056s-6.313-21.628-9.9-16.673S-2647.463,185.056-2647.463,185.056Z" transform="translate(2657.967 -167.645)" fill="#bcedf2"/></g><g transform="translate(3.85 9.239)"><path d="M-2644.678,163.979s-3.8-22.749-8.045-18.144S-2644.678,163.979-2644.678,163.979Z" transform="translate(2653.615 -145.219)" fill="#bcedf2"/></g><g transform="translate(0.227 17.522)"><path d="M-2647.5,172.717s-5.664-22.358-9.513-17.42S-2647.5,172.717-2647.5,172.717Z" transform="translate(2657.709 -154.584)" fill="#bcedf2"/></g><g transform="translate(13.044 18.74)"><path d="M-2643.219,168.624s13.093-17.173,14.485-11.522S-2643.219,168.624-2643.219,168.624Z" transform="translate(2643.219 -155.961)" fill="#bcedf2"/></g><g transform="translate(10.23 30.158)"><path d="M-2646.4,176.648s17.957-11.993,17.44-6.2S-2646.4,176.648-2646.4,176.648Z" transform="translate(2646.401 -168.87)" fill="#bcedf2"/></g><g transform="translate(10.194 39.973)"><path d="M-2646.442,185.013s18.943-8.7,17.567-3.253S-2646.442,185.013-2646.442,185.013Z" transform="translate(2646.442 -179.967)" fill="#bcedf2"/></g><g transform="translate(15.277)"><path d="M-2640.7,158.557s2.662-28.48,8.191-23.108S-2640.7,158.557-2640.7,158.557Z" transform="translate(2640.695 -134.774)" fill="#bcedf2"/></g><g transform="translate(9.024 17.579)"><path d="M-2643.119,189.422a14.609,14.609,0,0,1-2.183-3.977,16.155,16.155,0,0,1-.937-4.34,17.918,17.918,0,0,1,.233-4.4c.068-.362.137-.724.218-1.082s.168-.717.281-1.069.2-.709.327-1.058l.178-.525.2-.54q1.561-4.332,2.986-8.706c.476-1.46.946-2.91,1.406-4.39a7.51,7.51,0,0,0,.286-1.187c.05-.411.058-.8.071-1.184.016-.772.046-1.542.05-2.318-.112.371-.213.745-.317,1.119l-.279,1.127c-.089.377-.173.752-.278,1.093a8.045,8.045,0,0,1-.428,1c-.675,1.376-1.326,2.789-1.924,4.208-1.2,2.842-2.275,5.73-3.269,8.643l-.185.547-.179.571c-.125.378-.225.765-.325,1.152a21.031,21.031,0,0,0-.445,2.359,16.942,16.942,0,0,0,.081,4.8,14.6,14.6,0,0,0,1.514,4.512,13.182,13.182,0,0,0,1.291,1.976A9.7,9.7,0,0,0-2643.119,189.422Z" transform="translate(2647.765 -154.649)" fill="#bcedf2"/></g></g><g transform="translate(-2806.086 114.399)"><g transform="translate(17.329 29.075)"><path d="M-2785.375,184.056s6.313-21.628,9.9-16.673S-2785.375,184.056-2785.375,184.056Z" transform="translate(2785.375 -166.645)" fill="#bcedf2"/></g><g transform="translate(15.046 9.239)"><path d="M-2787.956,162.979s3.8-22.749,8.046-18.144S-2787.956,162.979-2787.956,162.979Z" transform="translate(2787.956 -144.219)" fill="#bcedf2"/></g><g transform="translate(17.396 17.522)"><path d="M-2785.3,171.717s5.664-22.358,9.513-17.42S-2785.3,171.717-2785.3,171.717Z" transform="translate(2785.3 -153.584)" fill="#bcedf2"/></g><g transform="translate(0.217 18.74)"><path d="M-2790.15,167.624s-13.093-17.173-14.485-11.522S-2790.15,167.624-2790.15,167.624Z" transform="translate(2804.722 -154.961)" fill="#bcedf2"/></g><g transform="translate(0.152 30.158)"><path d="M-2787.344,175.648s-17.958-11.993-17.44-6.2S-2787.344,175.648-2787.344,175.648Z" transform="translate(2804.794 -167.87)" fill="#bcedf2"/></g><g transform="translate(0 39.973)"><path d="M-2787.328,184.013s-18.943-8.7-17.567-3.253S-2787.328,184.013-2787.328,184.013Z" transform="translate(2804.967 -178.967)" fill="#bcedf2"/></g><g transform="translate(3.053)"><path d="M-2792.012,157.557s-2.662-28.48-8.19-23.108S-2792.012,157.557-2792.012,157.557Z" transform="translate(2801.515 -133.774)" fill="#bcedf2"/></g><g transform="translate(11.049 17.579)"><path d="M-2789.361,188.422a14.592,14.592,0,0,0,2.182-3.977,16.1,16.1,0,0,0,.937-4.34,17.882,17.882,0,0,0-.233-4.4c-.067-.362-.136-.724-.219-1.082s-.167-.717-.28-1.069-.2-.709-.327-1.058l-.179-.525-.2-.54q-1.56-4.332-2.986-8.706c-.476-1.46-.944-2.91-1.406-4.39a7.484,7.484,0,0,1-.285-1.187c-.051-.411-.059-.8-.072-1.184-.016-.772-.046-1.542-.05-2.318.113.371.214.745.318,1.119l.28,1.127c.088.377.172.752.277,1.093a8.017,8.017,0,0,0,.429,1c.674,1.376,1.325,2.789,1.923,4.208,1.2,2.842,2.275,5.73,3.269,8.643l.185.547.178.571c.125.378.225.765.325,1.152a21.031,21.031,0,0,1,.445,2.359,16.987,16.987,0,0,1-.079,4.8,14.621,14.621,0,0,1-1.515,4.512,13.159,13.159,0,0,1-1.29,1.976A9.684,9.684,0,0,1-2789.361,188.422Z" transform="translate(2792.475 -153.649)" fill="#bcedf2"/></g></g><g transform="translate(-2793.091 145.387)" opacity="0.26"><g transform="translate(0 0)"><ellipse cx="65.991" cy="16.806" rx="65.991" ry="16.806" fill="#350814"/></g></g><g transform="translate(-2780.258 -1.044)"><path d="M-2775.766,52.1l13.851-45.189a5.175,5.175,0,0,1,8.064-2.613l16.488,12.347Z" transform="translate(2775.766 -3.259)" fill="#9b3f00"/></g><g transform="translate(-2764.958 1.101)"><path d="M-2745.163,16.5l-12.435,6.779a.582.582,0,0,1-.867-.553l1.813-16.384a.762.762,0,0,1,1.314-.414l10.319,9.438A.7.7,0,0,1-2745.163,16.5Z" transform="translate(2758.469 -5.684)" fill="#f99393"/></g><g transform="translate(-2783.276 4.936)"><path d="M-2689.243,178.06l-79.606-.885-10.329-116.334a50.822,50.822,0,0,1,50.822-50.821h3.5A53.652,53.652,0,0,1-2671.2,63.671Z" transform="translate(2779.178 -10.02)" fill="#fcfaa2"/></g><g transform="translate(-2782.676 67.719)" opacity="0.31"><path d="M-2674.127,95.152l-102.6-2.654L-2778.5,81h105.787Z" transform="translate(2778.5 -81)" fill="#a32424"/></g><g transform="translate(-2779.038 17.146)" opacity="0.43"><path d="M-2766.374,27.609h-3.416l2.415-2.341a.193.193,0,0,0,0-.278.208.208,0,0,0-.286,0l-2.416,2.341V24.02a.2.2,0,0,0-.2-.2.2.2,0,0,0-.2.2v3.311l-2.416-2.341a.209.209,0,0,0-.287,0,.193.193,0,0,0,0,.278l2.416,2.341h-3.416a.2.2,0,0,0-.2.2.2.2,0,0,0,.2.2h3.416l-2.416,2.34a.193.193,0,0,0,0,.278.209.209,0,0,0,.144.057.205.205,0,0,0,.143-.057l2.416-2.34v3.31a.2.2,0,0,0,.2.2.2.2,0,0,0,.2-.2v-3.31l2.416,2.34a.2.2,0,0,0,.143.057.208.208,0,0,0,.143-.057.193.193,0,0,0,0-.278L-2769.79,28h3.416a.2.2,0,0,0,.2-.2A.2.2,0,0,0-2766.374,27.609Z" transform="translate(2774.387 -23.824)" fill="#fff"/></g><g transform="translate(-2760.706 -25.219)"><path d="M-2745.649-20.288h-3.415l2.415-2.341a.191.191,0,0,0,0-.278.207.207,0,0,0-.287,0l-2.415,2.341v-3.311a.2.2,0,0,0-.2-.2.2.2,0,0,0-.2.2v3.311l-2.415-2.341a.206.206,0,0,0-.286,0,.191.191,0,0,0,0,.278l2.415,2.341h-3.415a.2.2,0,0,0-.2.2.2.2,0,0,0,.2.2h3.415l-2.415,2.34a.191.191,0,0,0,0,.278.206.206,0,0,0,.143.057.208.208,0,0,0,.143-.057l2.415-2.34v3.31a.2.2,0,0,0,.2.2.2.2,0,0,0,.2-.2v-3.31l2.415,2.34a.209.209,0,0,0,.144.057.2.2,0,0,0,.143-.057.191.191,0,0,0,0-.278l-2.415-2.34h3.415a.2.2,0,0,0,.2-.2A.2.2,0,0,0-2745.649-20.288Z" transform="translate(2753.661 24.073)" fill="#fff"/></g><g transform="translate(-2657.218 62.347)"><path d="M-2619.683,82.946h-7.238l5.118-4.959a.407.407,0,0,0,0-.589.439.439,0,0,0-.608,0l-5.117,4.96V75.344a.423.423,0,0,0-.429-.417.424.424,0,0,0-.43.417v7.014l-5.118-4.96a.438.438,0,0,0-.607,0,.407.407,0,0,0,0,.589l5.118,4.959h-7.238a.423.423,0,0,0-.429.417.423.423,0,0,0,.429.416h7.238l-5.118,4.96a.406.406,0,0,0,0,.588.435.435,0,0,0,.3.122.433.433,0,0,0,.3-.122l5.118-4.96v7.014a.424.424,0,0,0,.43.417.423.423,0,0,0,.429-.417V84.367l5.117,4.96a.437.437,0,0,0,.3.122.435.435,0,0,0,.3-.122.406.406,0,0,0,0-.588l-5.118-4.96h7.238a.423.423,0,0,0,.429-.416A.423.423,0,0,0-2619.683,82.946Z" transform="translate(2636.661 -74.927)" fill="#bcedf2"/></g><g transform="translate(-2814.661 13.096)"><path d="M-2803.307,24.608h-4.84l3.423-3.317a.273.273,0,0,0,0-.394.294.294,0,0,0-.407,0l-3.422,3.317V19.524a.283.283,0,0,0-.287-.279.283.283,0,0,0-.287.279v4.691l-3.423-3.317a.293.293,0,0,0-.406,0,.272.272,0,0,0,0,.394l3.423,3.317h-4.841a.282.282,0,0,0-.286.278.282.282,0,0,0,.286.279h4.841l-3.423,3.317a.272.272,0,0,0,0,.394.29.29,0,0,0,.2.081.287.287,0,0,0,.2-.081l3.423-3.317v4.691a.283.283,0,0,0,.287.279.283.283,0,0,0,.287-.279V25.558l3.422,3.317a.291.291,0,0,0,.2.081.29.29,0,0,0,.2-.081.273.273,0,0,0,0-.394l-3.423-3.317h4.84a.283.283,0,0,0,.288-.279A.283.283,0,0,0-2803.307,24.608Z" transform="translate(2814.661 -19.245)" fill="#bcedf2"/></g><g transform="translate(-2690.951 71.212)" opacity="0.67"><path d="M-2666.787,88.734h-3.415l2.415-2.34a.191.191,0,0,0,0-.278.206.206,0,0,0-.286,0l-2.415,2.34v-3.31a.2.2,0,0,0-.2-.2.2.2,0,0,0-.2.2v3.31l-2.415-2.34a.206.206,0,0,0-.286,0,.191.191,0,0,0,0,.278l2.415,2.34h-3.415a.2.2,0,0,0-.2.2.2.2,0,0,0,.2.2h3.415l-2.415,2.34a.191.191,0,0,0,0,.278.2.2,0,0,0,.143.057.2.2,0,0,0,.143-.057l2.415-2.34v3.31a.2.2,0,0,0,.2.2.2.2,0,0,0,.2-.2V89.4l2.415,2.34a.2.2,0,0,0,.143.057.2.2,0,0,0,.143-.057.191.191,0,0,0,0-.278l-2.415-2.34h3.415a.2.2,0,0,0,.2-.2A.2.2,0,0,0-2666.787,88.734Z" transform="translate(2674.799 -84.949)" fill="#fff"/></g><g transform="translate(-2768.865 -0.876)" opacity="0.64"><ellipse cx="0.979" cy="0.949" rx="0.979" ry="0.949" fill="#fff"/></g><g transform="translate(-2722.784 30.834)"><path d="M-2707.121,42.022c-.04,0-.079,0-.119,0a5.4,5.4,0,0,1-3.379-1.651.629.629,0,0,1,.053-.908.677.677,0,0,1,.934.05h0a4.085,4.085,0,0,0,2.443,1.225,2.5,2.5,0,0,0,1.818-.781.677.677,0,0,1,.938.01.627.627,0,0,1-.01.908A3.819,3.819,0,0,1-2707.121,42.022Z" transform="translate(2710.788 -39.299)" fill="#350202"/></g><g transform="translate(-2746.938 30.572)"><path d="M-2734.453,42.294a4.167,4.167,0,0,1-1.515-.268,3.674,3.674,0,0,1-2.08-2.142.635.635,0,0,1,.369-.835.67.67,0,0,1,.862.357,2.4,2.4,0,0,0,1.344,1.428,4.191,4.191,0,0,0,2.738-.168.672.672,0,0,1,.877.319.635.635,0,0,1-.329.851A6.179,6.179,0,0,1-2734.453,42.294Z" transform="translate(2738.096 -39.003)" fill="#350202"/></g><g transform="translate(-2714.366 0.505)"><path d="M-2667.277,46.06l-9.441-37.4a5.175,5.175,0,0,0-8.064-2.613L-2701.271,18.4Z" transform="translate(2701.271 -5.01)" fill="#fcfaa2"/></g><g transform="translate(-2677.618 -1.601)"><path d="M-2657,2.629l-2.727,6.1,2.936,4.675,2.936-5.081Z" transform="translate(2659.726 -2.629)" fill="#fff250"/></g><g transform="translate(-2662.582 29.357)"><path d="M-2640,37.629l-2.727,6.1,2.936,4.675,2.936-5.081Z" transform="translate(2642.726 -37.629)" fill="#bcedf2"/></g><g transform="translate(-2804.989 83.312)"><path d="M-2801,98.629l-2.727,6.1,2.936,4.675,2.936-5.081Z" transform="translate(2803.726 -98.629)" fill="#bcedf2"/></g><g transform="translate(-2802.335 31.126)"><path d="M-2798,39.629l-2.727,6.1,2.936,4.675,2.936-5.081Z" transform="translate(2800.726 -39.629)" fill="#fff250"/></g><g transform="translate(-2739.972 30.212)"><path d="M-2729.894,44.128c-.82,5.518-.617,12.019,6.9,13.337a9.164,9.164,0,0,0,5.755-.681,7.5,7.5,0,0,0,3.571-4.607c.763-2.592.548-4.869.739-7.522a4.269,4.269,0,0,1-3.572.264c-1.786-.791-5.358-6.323-5.358-6.323l-1.786,3.951s-4.466,3.952-6.252,1.581" transform="translate(2730.221 -38.596)" fill="#9b1010"/></g><g transform="translate(-2735.835 22.422)" opacity="0.31"><path d="M-2724.725,29.789h7.1c.659,0,1.017,1.1.594,1.819l-3.183,5.411a.9.9,0,0,1-1.647.057l-3.46-5.328C-2725.808,31-2725.438,29.789-2724.725,29.789Z" transform="translate(2725.543 -29.789)" fill="#a32424"/></g><g transform="translate(-2738.258 36.271)"><path d="M-2728.283,46.536s1.292,4.1,2.186,4.1,1.786-5.193,1.786-5.193S-2727.789,46.76-2728.283,46.536Z" transform="translate(2728.283 -45.446)" fill="#fffdd7"/></g><g transform="translate(-2738.258 36.271)"><g clip-path="url(#a)"><g transform="translate(2.08)" opacity="0.28"><path d="M-2725.826,45.446l-.106,5.179s.733.155,1-.852a15.847,15.847,0,0,0,.894-4.327h-1.786" transform="translate(2725.932 -45.446)" fill="#350202"/></g></g></g><g transform="translate(-2728.929 35.405)"><path d="M-2713.764,45.558s-1.292,4.1-2.185,4.1-1.787-5.193-1.787-5.193S-2714.258,45.781-2713.764,45.558Z" transform="translate(2717.735 -44.467)" fill="#fffdd7"/></g><g transform="translate(-2728.929 35.405)"><g clip-path="url(#b)"><g opacity="0.28"><path d="M-2715.948,44.467l.106,5.179s-.733.155-1-.851a15.871,15.871,0,0,1-.894-4.328h1.787" transform="translate(2717.735 -44.467)" fill="#350202"/></g></g></g><g transform="translate(-2743.624 25.433)"><path d="M-2728.515,45.146a7.446,7.446,0,0,1-3.523-.913c-1.448-.8-2.311-1.922-2.311-3.011a.653.653,0,0,1,.663-.642.653.653,0,0,1,.663.642c0,.594.659,1.354,1.639,1.894a5.55,5.55,0,0,0,5.294.109c1.6-.923,3.474-3.3,3.341-9.377a.651.651,0,0,1,.648-.655.653.653,0,0,1,.677.629c.146,6.694-2.087,9.409-3.989,10.507A6.14,6.14,0,0,1-2728.515,45.146Z" transform="translate(2734.349 -33.193)" fill="#350202"/></g><g transform="translate(-2731.693 25.754)"><path d="M-2713.762,45.509a6.142,6.142,0,0,1-3.1-.817c-1.9-1.1-4.135-3.813-3.988-10.507a.647.647,0,0,1,.677-.629.652.652,0,0,1,.648.656c-.134,6.076,1.743,8.452,3.342,9.376a5.547,5.547,0,0,0,5.293-.109c.981-.54,1.639-1.3,1.639-1.894a.653.653,0,0,1,.663-.642.652.652,0,0,1,.663.642c0,1.089-.863,2.215-2.31,3.011A7.445,7.445,0,0,1-2713.762,45.509Z" transform="translate(2720.86 -33.555)" fill="#350202"/></g><g transform="translate(-2735.835 22.422)"><path d="M-2724.725,29.789h7.1a.749.749,0,0,1,.594,1.235l-3.183,3.673a1.122,1.122,0,0,1-1.647.039l-3.46-3.617A.789.789,0,0,1-2724.725,29.789Z" transform="translate(2725.543 -29.789)" fill="#ef583f"/></g><g transform="translate(-2739.972 31.077)"><g clip-path="url(#c)"><g transform="translate(-0.566 9.521)"><ellipse cx="9.824" cy="5.626" rx="9.824" ry="5.626" fill="#ef583f"/></g></g></g><g transform="translate(-2773.575 23.268)"><path d="M-2748.57,38.574a.889.889,0,0,1-.272-.043l-18.755-6.058a.886.886,0,0,1-.57-1.114.885.885,0,0,1,1.114-.57l18.755,6.059a.884.884,0,0,1,.57,1.114A.883.883,0,0,1-2748.57,38.574Z" transform="translate(2768.211 -30.746)" fill="#350202"/></g><g transform="translate(-2710.165 31.059)"><path d="M-2677.774,43.053c-.028,0-.058,0-.087,0l-17.862-1.731a.885.885,0,0,1-.8-.966.88.88,0,0,1,.966-.794l17.863,1.731a.884.884,0,0,1,.794.965A.885.885,0,0,1-2677.774,43.053Z" transform="translate(2696.522 -39.553)" fill="#350202"/></g><g transform="translate(-2774.469 36.252)"><path d="M-2768.336,51.521a.886.886,0,0,1-.862-.686.886.886,0,0,1,.663-1.061l18.755-4.327a.888.888,0,0,1,1.061.663.884.884,0,0,1-.664,1.061l-18.755,4.328A.9.9,0,0,1-2768.336,51.521Z" transform="translate(2769.221 -45.425)" fill="#350202"/></g><g transform="translate(-2711.951 22.403)"><path d="M-2697.656,37.6a.885.885,0,0,1-.841-.613.883.883,0,0,1,.57-1.114l18.754-6.059a.884.884,0,0,1,1.114.57.885.885,0,0,1-.57,1.114l-18.755,6.059A.884.884,0,0,1-2697.656,37.6Z" transform="translate(2698.541 -29.768)" fill="#350202"/></g><g transform="translate(-2773.575 31.923)"><path d="M-2767.326,44.032a.885.885,0,0,1-.88-.8.885.885,0,0,1,.8-.965l17.862-1.732a.877.877,0,0,1,.966.8.883.883,0,0,1-.794.965l-17.863,1.732C-2767.27,44.03-2767.3,44.032-2767.326,44.032Z" transform="translate(2768.21 -40.53)" fill="#350202"/></g><g transform="translate(-2711.058 35.387)"><path d="M-2677.89,50.542a.912.912,0,0,1-.2-.022l-18.754-4.328a.884.884,0,0,1-.664-1.061.887.887,0,0,1,1.061-.663l18.754,4.328a.884.884,0,0,1,.663,1.061A.883.883,0,0,1-2677.89,50.542Z" transform="translate(2697.531 -44.446)" fill="#350202"/></g><g transform="translate(-2745.663 47.75)" opacity="0.31"><path d="M-2736.654,58.424s10,9.844,30,0C-2706.651,58.424-2719.985,78.111-2736.654,58.424Z" transform="translate(2736.654 -58.424)" fill="#a32424"/></g><g transform="translate(-2772.49 -9.849)"><path d="M-2765.253-6.7l-1.732,3.873,1.865,2.97,1.865-3.228Z" transform="translate(2766.984 6.695)" fill="#fff250"/></g><g transform="translate(-2705.261 2.65)"><path d="M-2690.6,18.25l12.435,6.78a.582.582,0,0,0,.867-.554l-1.812-16.384a.762.762,0,0,0-1.314-.413l-10.319,9.437A.7.7,0,0,0-2690.6,18.25Z" transform="translate(2690.978 -7.435)" fill="#f99393"/></g><g transform="translate(-2755.144 12.556)"><ellipse cx="5.993" cy="5.808" rx="5.993" ry="5.808" fill="#350202"/></g><g transform="translate(-2750.914 13.923)"><ellipse cx="2.82" cy="2.733" rx="2.82" ry="2.733" fill="#fff"/></g><g transform="translate(-2752.377 19.756)"><ellipse cx="1.41" cy="1.367" rx="1.41" ry="1.367" fill="#fff"/></g><g transform="translate(-2722.006 11.873)"><ellipse cx="5.993" cy="5.808" rx="5.993" ry="5.808" fill="#350202"/></g><g transform="translate(-2719.669 12.827)"><ellipse cx="2.82" cy="2.733" rx="2.82" ry="2.733" fill="#fff"/></g><g transform="translate(-2715.222 18.557)"><ellipse cx="1.41" cy="1.367" rx="1.41" ry="1.367" fill="#fff"/></g><g transform="translate(-2760.338 -31.918)"><g clip-path="url(#d)"><path d="M-2689.333-4.912l-5.618-10.111,3.674-14.684a1.609,1.609,0,0,0-2.768-1.412l-9.8,10.592c-3.686-4.864-13.26-8.33-24.494-8.33-10.871,0-20.19,7.249-24.121,10.821a2.791,2.791,0,0,0,0,3.882c3.931,3.572,13.25,10.821,24.121,10.821,11.238,0,20.816-3.469,24.5-8.336l11.714,9.339A1.973,1.973,0,0,0-2689.333-4.912Z" transform="translate(2753.245 31.646)" fill="#ffda40"/><g transform="translate(9.739 4.045)"><path d="M-2742.108-19.1h0a2.322,2.322,0,0,0,3.042,1.478c5.047-1.866,17.435-5.634,28.666-2.636a1.068,1.068,0,0,0,.936-1.895c-5.813-3.985-16.693-8.4-31.04-.653A3.192,3.192,0,0,0-2742.108-19.1Z" transform="translate(2742.235 27.073)" fill="#fff5ca"/></g><g transform="translate(14.101 12.376)" opacity="0.75"><ellipse cx="1.763" cy="1.708" rx="1.763" ry="1.708" fill="#872f10"/></g><g transform="translate(18.415 4.901)" opacity="0.75"><path d="M-2731.1-4.32a1.32,1.32,0,0,1-.952-.4,1.326,1.326,0,0,1,.029-1.876c8.158-7.907.915-16.956.6-17.337a1.328,1.328,0,0,1,.183-1.866,1.328,1.328,0,0,1,1.865.179c.093.112,9.126,11.307-.8,20.931A1.325,1.325,0,0,1-2731.1-4.32Z" transform="translate(2732.425 26.105)" fill="#872f10"/></g><g transform="translate(27.175 16.476)" opacity="0.75"><g transform="translate(0 0)"><path d="M-2718.772-9.3c0,.051,0,.1,0,.155a6.86,6.86,0,0,1-2.274,4.369.9.9,0,0,1-1.249-.068.838.838,0,0,1,.069-1.208h0a5.2,5.2,0,0,0,1.687-3.159,3.133,3.133,0,0,0-1.076-2.35.839.839,0,0,1,.013-1.213.9.9,0,0,1,1.251.013A4.8,4.8,0,0,1-2718.772-9.3Z" transform="translate(2722.522 13.018)" fill="#872f10"/></g></g><g transform="translate(26.47 6.227)" opacity="0.75"><path d="M-2719.569-20.888c0,.051,0,.1,0,.155a6.861,6.861,0,0,1-2.274,4.369.9.9,0,0,1-1.249-.068.838.838,0,0,1,.069-1.208h0a5.2,5.2,0,0,0,1.686-3.159,3.135,3.135,0,0,0-1.075-2.35.839.839,0,0,1,.013-1.213.9.9,0,0,1,1.251.013A4.8,4.8,0,0,1-2719.569-20.888Z" transform="translate(2723.319 24.606)" fill="#872f10"/></g><g transform="translate(31.597 11.716)" opacity="0.75"><path d="M-2714-14.8c0,.051.005.1.006.155a6.835,6.835,0,0,1-2.024,4.484.9.9,0,0,1-1.251,0,.838.838,0,0,1,0-1.21h0a5.175,5.175,0,0,0,1.506-3.243,3.15,3.15,0,0,0-1.206-2.291.837.837,0,0,1-.055-1.21.9.9,0,0,1,1.249-.054A4.818,4.818,0,0,1-2714-14.8Z" transform="translate(2717.522 18.4)" fill="#872f10"/></g><g transform="translate(36.341 15.793)" opacity="0.75"><path d="M-2708.408-10.073c0,.051,0,.1,0,.155a6.865,6.865,0,0,1-2.274,4.37.9.9,0,0,1-1.249-.069.838.838,0,0,1,.069-1.208h0a5.2,5.2,0,0,0,1.687-3.158,3.14,3.14,0,0,0-1.076-2.351.837.837,0,0,1,.013-1.212.9.9,0,0,1,1.251.012A4.8,4.8,0,0,1-2708.408-10.073Z" transform="translate(2712.159 13.791)" fill="#872f10"/></g><g transform="translate(36.341 6.91)" opacity="0.75"><path d="M-2708.408-20.116c0,.052,0,.1,0,.155a6.865,6.865,0,0,1-2.274,4.37.9.9,0,0,1-1.249-.069.838.838,0,0,1,.069-1.208h0a5.2,5.2,0,0,0,1.687-3.158,3.14,3.14,0,0,0-1.076-2.351.837.837,0,0,1,.013-1.212.9.9,0,0,1,1.251.012A4.8,4.8,0,0,1-2708.408-20.116Z" transform="translate(2712.159 23.834)" fill="#872f10"/></g><g transform="translate(41.982 11.01)" opacity="0.75"><path d="M-2702.031-15.48c0,.051,0,.1,0,.155a6.863,6.863,0,0,1-2.274,4.369.905.905,0,0,1-1.249-.068.839.839,0,0,1,.069-1.209h0a5.2,5.2,0,0,0,1.687-3.158,3.138,3.138,0,0,0-1.076-2.351.838.838,0,0,1,.014-1.212.9.9,0,0,1,1.25.012A4.8,4.8,0,0,1-2702.031-15.48Z" transform="translate(2705.782 19.199)" fill="#872f10"/></g><g transform="translate(50.586 3.292)" opacity="0.75"><path d="M-2695.17-17.272a.883.883,0,0,1-.581-.218.886.886,0,0,1-.085-1.249l7.756-8.883a.885.885,0,0,1,1.248-.084.884.884,0,0,1,.085,1.248l-7.756,8.883A.883.883,0,0,1-2695.17-17.272Z" transform="translate(2696.054 27.924)" fill="#872f10"/></g><g transform="translate(54.112 9.442)" opacity="0.75"><path d="M-2691.185-15.1a.879.879,0,0,1-.576-.214.884.884,0,0,1-.094-1.247l3.526-4.1a.884.884,0,0,1,1.247-.094.884.884,0,0,1,.094,1.247l-3.525,4.1A.884.884,0,0,1-2691.185-15.1Z" transform="translate(2692.069 20.971)" fill="#872f10"/></g><g transform="translate(51.291 19.009)" opacity="0.75"><path d="M-2685.207-.87a.885.885,0,0,1-.561-.2l-9.166-7.517a.886.886,0,0,1-.123-1.245.887.887,0,0,1,1.245-.123l9.166,7.517a.885.885,0,0,1,.123,1.245A.886.886,0,0,1-2685.207-.87Z" transform="translate(2695.258 10.155)" fill="#872f10"/></g><g transform="translate(54.112 17.642)" opacity="0.75"><path d="M-2686.954-6.515a.884.884,0,0,1-.556-.2l-4.23-3.417a.885.885,0,0,1-.132-1.244.886.886,0,0,1,1.244-.133l4.23,3.417a.886.886,0,0,1,.132,1.245A.883.883,0,0,1-2686.954-6.515Z" transform="translate(2692.068 11.7)" fill="#872f10"/></g><g transform="translate(2.481 11.022)"><ellipse cx="2.814" cy="1.712" rx="2.814" ry="1.712" transform="matrix(0.966, -0.258, 0.258, 0.966, 0, 1.45)" fill="#fff5ca"/></g><g transform="translate(-2.116 15.11)" opacity="0.36"><path d="M-2754.226-14.563s26.793,15.032,50.06,2.049l19.037,12.3-14.1,2.049-43.714.684-12.692-16.4Z" transform="translate(2755.637 14.563)" fill="#6d0303"/></g></g></g><g transform="translate(-2706.46 -32.633)"><path d="M-2690.6-32.455l-1.732,3.873,1.865,2.97,1.865-3.228Z" transform="translate(2692.333 32.455)" fill="#bcedf2"/></g><g transform="translate(-2715.626 -11.451)"><path d="M-2700.964-8.506l-1.732,3.873,1.865,2.97,1.865-3.228Z" transform="translate(2702.696 8.506)" fill="#f99393"/></g><g transform="translate(-2708.575 -34)"><path d="M-2693.758-34l-.966,2.161,1.041,1.657,1.041-1.8Z" transform="translate(2694.724 34)" fill="#bcedf2"/></g><g transform="translate(-2786.051 61.886)"><rect width="111.286" height="12.805" fill="#2b8488"/></g><g transform="translate(-2766.908 66.741)"><path d="M-2757.947,79.894l-2.727,6.1,2.936,4.675,2.936-5.081Z" transform="translate(2760.673 -79.894)" fill="#f99393"/></g><g transform="translate(-2685.679 -12.865)"><path d="M-2664.785-10.106l-4.053,9.065,4.365,6.95,4.365-7.554Z" transform="translate(2668.838 10.106)" fill="#f99393"/></g><g transform="translate(-2796.243 -12.865)"><path d="M-2789.785-10.106l-4.053,9.065,4.365,6.95,4.365-7.554Z" transform="translate(2793.838 10.106)" fill="#8884f2"/></g><g transform="translate(-2762.677 62.641)"><path d="M-2753.7,75.259l-2.188,4.894,2.356,3.752,2.356-4.078Z" transform="translate(2755.89 -75.259)" fill="#fff"/></g><g transform="translate(-2771.812 96.908)"><path d="M-2747.008,114c.927,5.192,1.694,10.4,2.373,15.612.36,2.6.671,5.214.978,7.824.324,2.608.609,5.22.876,7.832.583,5.221,1.026,10.454,1.511,15.684l.618,7.854c.216,2.617.394,5.237.551,7.86l.139,2.326-2.188-.647a52.026,52.026,0,0,0-7.835-1.613,27.738,27.738,0,0,0-7.9.027,9.008,9.008,0,0,0-6.351,3.742,9.392,9.392,0,0,0-1.288,3.693,19.18,19.18,0,0,0-.064,4.108,16.129,16.129,0,0,1-.634-4.154,9.7,9.7,0,0,1,.869-4.254,8.794,8.794,0,0,1,2.916-3.418,13.251,13.251,0,0,1,4.072-1.825,27.009,27.009,0,0,1,8.624-.707,44.884,44.884,0,0,1,8.484,1.314l-2.049,1.679q-.428-3.917-.776-7.84l-.708-7.847c-.4-5.237-.841-10.471-1.143-15.716-.175-2.62-.332-5.242-.45-7.868-.135-2.624-.266-5.248-.348-7.877C-2746.933,124.535-2747.051,119.274-2747.008,114Z" transform="translate(2766.217 -114)" fill="#d8ac66"/></g><g transform="translate(-2721.046 96.908)"><path d="M-2701.776,114c.042,5.274-.076,10.535-.281,15.789-.083,2.629-.213,5.252-.349,7.877-.118,2.625-.274,5.248-.449,7.868-.3,5.245-.743,10.479-1.144,15.716l-.708,7.847q-.34,3.923-.775,7.84l-2.049-1.679a44.889,44.889,0,0,1,8.485-1.314,27,27,0,0,1,8.623.707,13.25,13.25,0,0,1,4.072,1.825,8.8,8.8,0,0,1,2.916,3.418,9.709,9.709,0,0,1,.868,4.254,16.1,16.1,0,0,1-.633,4.154,19.18,19.18,0,0,0-.063-4.108,9.416,9.416,0,0,0-1.288-3.693,9.009,9.009,0,0,0-6.352-3.742,27.731,27.731,0,0,0-7.9-.027,52.069,52.069,0,0,0-7.836,1.613l-2.187.647.139-2.326q.234-3.934.551-7.86l.618-7.854c.485-5.23.928-10.463,1.511-15.684.266-2.613.553-5.225.876-7.832.307-2.609.618-5.219.979-7.824C-2703.47,124.4-2702.7,119.192-2701.776,114Z" transform="translate(2708.823 -114)" fill="#d8ac66"/></g><g transform="translate(-2734.47 100.004)"><path d="M-2722.231,117.5c.732,5.823,1.115,11.646,1.375,17.469s.4,11.646.393,17.469-.131,11.646-.387,17.469-.644,11.646-1.381,17.469c-.737-5.823-1.122-11.646-1.381-17.469s-.4-11.646-.387-17.469.135-11.646.393-17.469S-2722.963,123.323-2722.231,117.5Z" transform="translate(2724 -117.5)" fill="#d8ac66"/></g><g transform="translate(-2709.262 46.491)"><path d="M-2682.959,155.713a52.437,52.437,0,0,1-8.062-.6,5.308,5.308,0,0,1-4.415-6.07,5.31,5.31,0,0,1,6.06-4.415c1.195.182,29.2,4.232,35.687-16.673,3.322-10.707,3.158-22.806,3.013-33.48-.2-14.46-.38-28.117,8.173-36.06a5.308,5.308,0,0,1,7.5.278,5.309,5.309,0,0,1-.278,7.5c-5.1,4.735-4.952,15.58-4.783,28.137.156,11.463.332,24.456-3.49,36.769C-2649.627,150.678-2668.961,155.713-2682.959,155.713Z" transform="translate(2695.501 -57)" fill="#fcfaa2"/></g><g transform="translate(-2705.252 125.897)"><g transform="translate(0 29.075)"><path d="M-2680.463,197.056s-6.312-21.628-9.9-16.673S-2680.463,197.056-2680.463,197.056Z" transform="translate(2690.966 -179.645)" fill="#8884f2"/></g><g transform="translate(3.85 9.239)"><path d="M-2677.678,175.979s-3.8-22.749-8.045-18.144S-2677.678,175.979-2677.678,175.979Z" transform="translate(2686.615 -157.219)" fill="#8884f2"/></g><g transform="translate(0.227 17.522)"><path d="M-2680.5,184.717s-5.664-22.358-9.513-17.42S-2680.5,184.717-2680.5,184.717Z" transform="translate(2690.709 -166.584)" fill="#8884f2"/></g><g transform="translate(13.044 18.74)"><path d="M-2676.219,180.624s13.093-17.173,14.485-11.522S-2676.219,180.624-2676.219,180.624Z" transform="translate(2676.219 -167.961)" fill="#8884f2"/></g><g transform="translate(10.23 30.158)"><path d="M-2679.4,188.648s17.957-11.993,17.44-6.2S-2679.4,188.648-2679.4,188.648Z" transform="translate(2679.401 -180.87)" fill="#8884f2"/></g><g transform="translate(10.194 39.973)"><path d="M-2679.442,197.013s18.943-8.7,17.567-3.253S-2679.442,197.013-2679.442,197.013Z" transform="translate(2679.442 -191.967)" fill="#8884f2"/></g><g transform="translate(15.277)"><path d="M-2673.7,170.557s2.662-28.48,8.191-23.108S-2673.7,170.557-2673.7,170.557Z" transform="translate(2673.695 -146.774)" fill="#8884f2"/></g><g transform="translate(9.024 17.579)"><path d="M-2676.119,201.422a14.594,14.594,0,0,1-2.183-3.977,16.136,16.136,0,0,1-.937-4.34,17.918,17.918,0,0,1,.233-4.4c.068-.362.137-.724.219-1.082s.168-.717.281-1.069.2-.709.327-1.058l.178-.525.2-.54q1.56-4.332,2.985-8.706c.476-1.46.946-2.91,1.406-4.39a7.509,7.509,0,0,0,.286-1.187c.05-.411.058-.8.071-1.184.016-.772.046-1.542.05-2.318-.112.371-.213.745-.317,1.119l-.279,1.127c-.09.377-.173.752-.278,1.093a8.117,8.117,0,0,1-.428,1c-.675,1.376-1.326,2.789-1.924,4.208-1.2,2.842-2.275,5.73-3.268,8.643l-.185.547-.179.571c-.125.378-.226.765-.325,1.152a21.029,21.029,0,0,0-.445,2.359,16.96,16.96,0,0,0,.08,4.8,14.613,14.613,0,0,0,1.514,4.512,13.182,13.182,0,0,0,1.291,1.976A9.711,9.711,0,0,0-2676.119,201.422Z" transform="translate(2680.765 -166.649)" fill="#8884f2"/></g></g><g transform="translate(-2785.743 126.782)"><g transform="translate(17.329 29.075)"><path d="M-2762.375,198.056s6.313-21.628,9.9-16.673S-2762.375,198.056-2762.375,198.056Z" transform="translate(2762.375 -180.645)" fill="#8884f2"/></g><g transform="translate(15.046 9.239)"><path d="M-2764.956,176.979s3.8-22.749,8.047-18.144S-2764.956,176.979-2764.956,176.979Z" transform="translate(2764.956 -158.219)" fill="#8884f2"/></g><g transform="translate(17.396 17.522)"><path d="M-2762.3,185.717s5.665-22.358,9.513-17.42S-2762.3,185.717-2762.3,185.717Z" transform="translate(2762.3 -167.584)" fill="#8884f2"/></g><g transform="translate(0.217 18.74)"><path d="M-2767.151,181.624s-13.093-17.173-14.485-11.522S-2767.151,181.624-2767.151,181.624Z" transform="translate(2781.722 -168.961)" fill="#8884f2"/></g><g transform="translate(0.152 30.158)"><path d="M-2764.343,189.648s-17.958-11.993-17.44-6.2S-2764.343,189.648-2764.343,189.648Z" transform="translate(2781.794 -181.87)" fill="#8884f2"/></g><g transform="translate(0 39.973)"><path d="M-2764.328,198.013s-18.943-8.7-17.567-3.253S-2764.328,198.013-2764.328,198.013Z" transform="translate(2781.967 -192.967)" fill="#8884f2"/></g><g transform="translate(3.053 0)"><path d="M-2769.012,171.557s-2.662-28.48-8.191-23.108S-2769.012,171.557-2769.012,171.557Z" transform="translate(2778.516 -147.774)" fill="#8884f2"/></g><g transform="translate(11.049 17.579)"><path d="M-2766.36,202.422a14.591,14.591,0,0,0,2.182-3.977,16.108,16.108,0,0,0,.937-4.34,17.894,17.894,0,0,0-.232-4.4c-.067-.362-.136-.724-.219-1.082s-.167-.717-.281-1.069-.2-.709-.327-1.058l-.178-.525-.2-.54q-1.561-4.332-2.986-8.706c-.476-1.46-.945-2.91-1.406-4.39a7.483,7.483,0,0,1-.285-1.187c-.052-.411-.059-.8-.072-1.184-.016-.772-.046-1.542-.05-2.318.114.371.214.745.318,1.119l.279,1.127c.089.377.172.752.277,1.093a8.018,8.018,0,0,0,.429,1c.674,1.376,1.325,2.789,1.923,4.208,1.2,2.842,2.275,5.73,3.269,8.643l.185.547.178.571c.125.378.226.765.325,1.152a21.03,21.03,0,0,1,.445,2.359,16.969,16.969,0,0,1-.08,4.8,14.608,14.608,0,0,1-1.515,4.512,13.177,13.177,0,0,1-1.29,1.976A9.7,9.7,0,0,1-2766.36,202.422Z" transform="translate(2769.475 -167.649)" fill="#8884f2"/></g></g></g></svg>