<svg xmlns="http://www.w3.org/2000/svg" xmlns:xlink="http://www.w3.org/1999/xlink" width="305" height="191.907" viewBox="0 0 305 191.907"><defs><clipPath id="a"><ellipse cx="66.502" cy="58.061" rx="66.502" ry="58.061"/></clipPath><clipPath id="b"><ellipse cx="40.101" cy="40.588" rx="40.101" ry="40.588" transform="matrix(1, -0.008, 0.008, 1, 0, 0.61)"/></clipPath></defs><g transform="translate(0.007)"><ellipse cx="64.021" cy="21.529" rx="64.021" ry="21.529" transform="translate(82.027 146.489)" fill="#350814" opacity="0.26"/><path d="M169.508,158.14H152.466a5.083,5.083,0,0,1-5.076-5.076V130.356a5.083,5.083,0,0,1,5.076-5.076h17.042a5.083,5.083,0,0,1,5.076,5.076v22.708A5.075,5.075,0,0,1,169.508,158.14Z" transform="translate(19.621 16.677)" fill="#8e3649"/><g transform="translate(211.667 66.502)"><path d="M201.825,66.01h-6.4l4.521-4.521a.377.377,0,0,0-.533-.533l-4.521,4.521v-6.4a.385.385,0,1,0-.771,0v6.4L189.6,60.956a.377.377,0,0,0-.533.533l4.521,4.521h-6.4a.385.385,0,0,0,0,.771h6.4L189.066,71.3a.376.376,0,0,0,0,.533.383.383,0,0,0,.544,0l4.521-4.521v6.4a.385.385,0,1,0,.771,0v-6.4l4.521,4.521a.383.383,0,0,0,.544,0,.376.376,0,0,0,0-.533l-4.521-4.521h6.4a.382.382,0,0,0,.385-.385A.435.435,0,0,0,201.825,66.01Z" transform="translate(-186.8 -58.69)" fill="#fff"/></g><g transform="translate(125.55 17.779)"><path d="M125.825,23.01h-6.4l4.521-4.521a.377.377,0,1,0-.533-.533l-4.521,4.521v-6.4a.385.385,0,1,0-.771,0v6.4L113.6,17.956a.377.377,0,0,0-.533.533l4.521,4.521h-6.4a.385.385,0,0,0,0,.771h6.4L113.066,28.3a.376.376,0,0,0,0,.533.383.383,0,0,0,.544,0l4.521-4.521v6.4a.385.385,0,1,0,.771,0v-6.4l4.521,4.521a.383.383,0,0,0,.544,0,.376.376,0,0,0,0-.533l-4.521-4.521h6.4a.382.382,0,0,0,.385-.385A.409.409,0,0,0,125.825,23.01Z" transform="translate(-110.8 -15.69)" fill="#fff"/></g><ellipse cx="66.502" cy="58.061" rx="66.502" ry="58.061" transform="translate(74.107 48.237)" fill="#f99393"/><g transform="translate(74.107 48.237)"><g clip-path="url(#a)"><path d="M67.614,83.34s16.7,34.979,76.361,22.266c0,0,47.919,50.854,11.739,51.829s-77.256,8.8-84.111-16.623S53.02,93.867,55.954,93.867,67.614,83.34,67.614,83.34Z" transform="translate(-66.719 -37.143)" fill="#7f1840" opacity="0.33"/></g></g><path d="M168.14,78.914l22.005-15.9a3.832,3.832,0,0,1,6.062,2.742l2.617,26.753Z" transform="translate(22.383 8.291)" fill="#e25454"/><ellipse cx="40.101" cy="40.588" rx="40.101" ry="40.588" transform="translate(150.376 83.443)" fill="#f99393"/><g transform="translate(150.074 83.141)"><g transform="translate(0 0)" clip-path="url(#b)"><path d="M133.992,102.4s20.2,62.922,76.644,16.181c0,0-1.326,34.367-23.138,35.217s-46.537,6.5-50.8-11.24-11.456-32.724-9.688-32.747S133.992,102.4,133.992,102.4Z" transform="translate(-133.202 -69.51)" fill="#7f1840" opacity="0.33"/></g></g><path d="M112.88,49.337c5.428-.635,16.181,0,29.246,10.629a2.6,2.6,0,0,0,2.561.431l4.691-1.756a1.4,1.4,0,0,0,.578-2.2c-3.014-3.683-12.317-12.623-31.172-12.17a3.237,3.237,0,0,0-1.722.555c-1.054.7-3,2.006-4.714,3.139A.76.76,0,0,0,112.88,49.337Z" transform="translate(14.914 5.891)" fill="#2b0c0c"/><path d="M137,100.786l-6.515-26.356a3.831,3.831,0,0,1,4.8-4.6l25.79,7.581Z" transform="translate(17.355 9.274)" fill="#e25454"/><circle cx="27.875" cy="27.875" r="27.875" transform="translate(182.659 99.091)" fill="#e25454"/><ellipse cx="3.909" cy="6.357" rx="3.909" ry="6.357" transform="translate(200.267 115.714)" fill="#7f1840" opacity="0.33"/><ellipse cx="3.909" cy="6.357" rx="3.909" ry="6.357" transform="translate(200.267 113.765)" fill="#7f2b2b"/><ellipse cx="3.909" cy="6.357" rx="3.909" ry="6.357" transform="translate(219.825 116.699)" fill="#7f1840" opacity="0.33"/><ellipse cx="3.909" cy="6.357" rx="3.909" ry="6.357" transform="translate(219.825 114.739)" fill="#7f2b2b"/><circle cx="1.96" cy="1.96" r="1.96" transform="translate(184.608 95.17)" fill="#2b0c0c"/><circle cx="0.974" cy="0.974" r="0.974" transform="translate(185.594 95.182)" fill="#fff"/><circle cx="1.96" cy="1.96" r="1.96" transform="translate(202.216 90.287)" fill="#2b0c0c"/><circle cx="0.974" cy="0.974" r="0.974" transform="translate(203.202 90.298)" fill="#fff"/><path d="M101.64,120.25" transform="translate(13.531 16.007)" fill="#e25454"/><path d="M161.207,109.03s-1.96,20.543,16.623,28.362c0,0,22.64,12.022,37.234-14.039C215.075,123.353,182.725,142.276,161.207,109.03Z" transform="translate(21.452 14.513)" fill="#7f1840" opacity="0.33"/><g transform="translate(131.805 17.915)"><path d="M146.182,34.393c0,9.994-2.935,18.583-13.688,18.583-14.708,0-12.714-9.076-12.714-19.07s-1.008-18.1,12.714-18.1C142.273,15.81,146.182,24.4,146.182,34.393Z" transform="translate(-115.871 -15.81)" fill="#e8a334"/><ellipse cx="12.714" cy="18.096" rx="12.714" ry="18.096" fill="#ffe05f"/><g transform="translate(2.176 3.625)"><path d="M138.738,33.48a18.488,18.488,0,0,1-2.278,9.19,12.032,12.032,0,0,1-3.127,3.637,8,8,0,0,1-4.555,1.643,8.155,8.155,0,0,1-4.68-1.473,11.84,11.84,0,0,1-3.354-3.6,18.87,18.87,0,0,1,0-18.787,11.7,11.7,0,0,1,3.354-3.6,8.239,8.239,0,0,1,4.68-1.473,8.079,8.079,0,0,1,4.555,1.643,11.9,11.9,0,0,1,3.127,3.637A18.37,18.37,0,0,1,138.738,33.48Zm0,0a18.345,18.345,0,0,0-2.425-9.1,11.153,11.153,0,0,0-3.2-3.433,7.644,7.644,0,0,0-4.351-1.371,7.47,7.47,0,0,0-4.227,1.541,11.33,11.33,0,0,0-2.969,3.456,17.986,17.986,0,0,0-2.21,8.895,17.856,17.856,0,0,0,2.2,8.895,11.508,11.508,0,0,0,2.969,3.467,7.44,7.44,0,0,0,4.227,1.541A7.586,7.586,0,0,0,133.106,46a11.163,11.163,0,0,0,3.2-3.433A18.049,18.049,0,0,0,138.738,33.48Z" transform="translate(-118.24 -19.009)" fill="#ba7025"/></g><path d="M121.3,41.165l14.674-15.648s-6.13-11.308-14.311-1.246C121.667,24.259,116.421,32.36,121.3,41.165Z" transform="translate(-115.933 -15.239)" fill="#fff78f"/></g><g transform="translate(165.798)"><path d="M168.726,13.949c0,7.5-2.2,13.949-10.277,13.949-11.037,0-9.541-6.81-9.541-14.311S148.16,0,158.46,0C165.791,0,168.726,6.447,168.726,13.949Z" transform="translate(-145.985 0)" fill="#e8a334"/><ellipse cx="9.541" cy="13.575" rx="9.541" ry="13.575" transform="translate(0 0)" fill="#ffe05f"/><g transform="translate(1.507 2.639)"><path d="M163.162,13.265a14.275,14.275,0,0,1-1.7,6.9,8.925,8.925,0,0,1-2.334,2.753,5.767,5.767,0,0,1-7,.17,8.757,8.757,0,0,1-2.561-2.719,13.871,13.871,0,0,1-1.915-7.1,13.831,13.831,0,0,1,1.915-7.116,8.89,8.89,0,0,1,2.561-2.719,6.262,6.262,0,0,1,3.569-1.1A6.126,6.126,0,0,1,159.14,3.6a8.774,8.774,0,0,1,2.334,2.753A14.467,14.467,0,0,1,163.162,13.265Zm0,0a13.3,13.3,0,0,0-1.836-6.821,6.766,6.766,0,0,0-5.643-3.535,6.609,6.609,0,0,0-5.292,3.751,13.769,13.769,0,0,0-1.62,6.606,13.716,13.716,0,0,0,1.62,6.617,6.657,6.657,0,0,0,5.292,3.751,6.751,6.751,0,0,0,5.643-3.535A13.375,13.375,0,0,0,163.162,13.265Z" transform="translate(-147.65 -2.329)" fill="#ba7025"/></g><path d="M150.064,19.017l11-11.739s-4.6-8.487-10.742-.94A12.966,12.966,0,0,0,150.064,19.017Z" transform="translate(-146.03 0.427)" fill="#fff78f"/></g><g transform="translate(96.814 76.644)"><path d="M88.579,67.64,85.44,74.858,88.817,80.4l3.365-6.017Z" transform="translate(-85.44 -67.64)" fill="#fff250"/></g><g transform="translate(232.788 94.774)"><path d="M208.579,83.64l-3.139,7.218,3.377,5.541,3.365-6.017Z" transform="translate(-205.44 -83.64)" fill="#f99393"/></g><g transform="translate(189.73 34.719)"><path d="M170.579,30.64l-3.139,7.218,3.377,5.541,3.365-6.017Z" transform="translate(-167.44 -30.64)" fill="#f99393"/></g><g transform="translate(194.262 42.65)"><path d="M174.579,37.64l-3.139,7.218,3.377,5.541,3.365-6.017Z" transform="translate(-171.44 -37.64)" fill="#fff"/></g><g transform="translate(102.48 67.579)"><path d="M93.579,59.64,90.44,66.858,93.817,72.4l3.365-6.017Z" transform="translate(-90.44 -59.64)" fill="#bcedf2"/></g><path d="M238.39,24.46" transform="translate(31.734 3.256)" fill="#e25454"/><path d="M138.508,166.14H121.466a5.083,5.083,0,0,1-5.076-5.076V138.356a5.083,5.083,0,0,1,5.076-5.076h17.042a5.082,5.082,0,0,1,5.076,5.076v22.708A5.075,5.075,0,0,1,138.508,166.14Z" transform="translate(15.494 17.741)" fill="#d16b78"/><path d="M96.507,152.14H79.476a5.083,5.083,0,0,1-5.076-5.076V124.356a5.083,5.083,0,0,1,5.076-5.076H96.518a5.083,5.083,0,0,1,5.076,5.076v22.708A5.092,5.092,0,0,1,96.507,152.14Z" transform="translate(9.905 15.878)" fill="#d16b78"/><g transform="translate(68.572 32.688)"><path d="M83.036,70.13c-1.643-3.705-3.286-7.365-5.133-10.9-.929-1.768-1.858-3.513-2.912-5.156A27.3,27.3,0,0,0,71.557,49.6a6.547,6.547,0,0,0-1.9-1.371,1.54,1.54,0,0,0-1.36-.023,2.716,2.716,0,0,0-.68.51,5.379,5.379,0,0,0-.4.431c-.136.17-.295.317-.419.5a9.457,9.457,0,0,0-1.3,2.119,5.993,5.993,0,0,0-.385,4.272,4.427,4.427,0,0,0,2.753,2.787,7.877,7.877,0,0,0,4.578.17,12.666,12.666,0,0,0,2.436-.839,4.015,4.015,0,0,0,.884-.476,4.422,4.422,0,0,0,.691-.691,11.068,11.068,0,0,0,1.938-4.578,31.133,31.133,0,0,0,.589-5.6,36.36,36.36,0,0,0-.351-5.756,27.667,27.667,0,0,0-1.258-5.62,11.3,11.3,0,0,0-2.742-4.8,3.638,3.638,0,0,0-2.414-1.008,5.377,5.377,0,0,0-2.753.861,5.48,5.48,0,0,1,2.685-1.564,4.682,4.682,0,0,1,3.241.657,12.375,12.375,0,0,1,4.091,4.974,33.132,33.132,0,0,1,3.116,12.17,27.885,27.885,0,0,1-.238,6.425,19.385,19.385,0,0,1-.793,3.275,11.7,11.7,0,0,1-1.677,3.252,8.213,8.213,0,0,1-1.428,1.45,8.117,8.117,0,0,1-1.722,1.02,16.961,16.961,0,0,1-3.241,1.178,11.686,11.686,0,0,1-7.286-.306,9.428,9.428,0,0,1-3.275-2.2,8.805,8.805,0,0,1-2.017-3.456,9.85,9.85,0,0,1,.793-7.433,13.6,13.6,0,0,1,2.006-2.9c.181-.227.4-.419.589-.623a7.4,7.4,0,0,1,.669-.635A6.948,6.948,0,0,1,66.8,44.623a5.032,5.032,0,0,1,2.357-.351,5.606,5.606,0,0,1,2.119.657,9.9,9.9,0,0,1,2.81,2.346A24.853,24.853,0,0,1,77.506,52.7a57.424,57.424,0,0,1,2.368,5.688A78.429,78.429,0,0,1,83.036,70.13Z" transform="translate(-60.516 -28.848)" fill="#f99393"/></g><g transform="translate(-0.007 116.36)"><g transform="translate(25.225 32.992)"><g transform="translate(0 0)"><path d="M37.966,155.561c-7.445.872-14.107-.555-15.048-8.578-1.292-10.957,5.654-10.266,13.1-11.15s13.393-2.334,14.595,7.886C51.473,151.028,45.411,154.688,37.966,155.561Z" transform="translate(-22.188 -131.353)" fill="#e8a334"/><ellipse cx="13.575" cy="9.541" rx="13.575" ry="9.541" transform="translate(0 3.166) rotate(-6.696)" fill="#ffe05f"/><g transform="translate(3.7 2.96)"><path d="M37.293,149.933a14.253,14.253,0,0,1-7.048-.884,8.761,8.761,0,0,1-3-1.994,6.1,6.1,0,0,1-1.666-3.275,6.178,6.178,0,0,1,.669-3.671,9.025,9.025,0,0,1,2.4-2.867,14.173,14.173,0,0,1,14.119-1.666,8.787,8.787,0,0,1,3,2.232,6.273,6.273,0,0,1,1.507,3.411,6.11,6.11,0,0,1-.861,3.569,8.979,8.979,0,0,1-2.459,2.64A14.129,14.129,0,0,1,37.293,149.933Zm0,0a13.283,13.283,0,0,0,6.561-2.617c1.847-1.439,3.2-3.728,2.855-6.017a6.625,6.625,0,0,0-4.34-4.816,13.691,13.691,0,0,0-6.753-.839,13.841,13.841,0,0,0-6.379,2.38,6.627,6.627,0,0,0-3.1,5.7,6.77,6.77,0,0,0,4.17,5.19A13.3,13.3,0,0,0,37.293,149.933Z" transform="translate(-25.521 -134.419)" fill="#ba7025"/></g></g><path d="M29.43,137.615l12.94,9.563s7.886-5.552-.317-10.776A12.914,12.914,0,0,0,29.43,137.615Z" transform="translate(-21.3 -131.344)" fill="#fff78f"/></g><g transform="translate(48.52 32.548)"><g transform="translate(0 0)"><path d="M59.1,155.486c-7.422,1.1-14.119-.136-15.3-8.124-1.62-10.912,5.337-10.436,12.759-11.535s13.314-2.742,14.832,7.445C72.476,150.535,66.527,154.387,59.1,155.486Z" transform="translate(-42.713 -130.937)" fill="#e8a334"/><ellipse cx="13.575" cy="9.541" rx="13.575" ry="9.541" transform="translate(0 3.977) rotate(-8.424)" fill="#ffe05f"/><g transform="translate(3.94 3.337)"><path d="M58.267,149.85a14.175,14.175,0,0,1-7.071-.669,8.842,8.842,0,0,1-3.071-1.9,6.06,6.06,0,0,1-1.756-3.218,6.173,6.173,0,0,1,.567-3.683,8.864,8.864,0,0,1,2.312-2.935,14.164,14.164,0,0,1,14.062-2.085A8.852,8.852,0,0,1,66.38,137.5a6.2,6.2,0,0,1,1.609,3.365,6.044,6.044,0,0,1-.748,3.592,9.144,9.144,0,0,1-2.38,2.719A14.649,14.649,0,0,1,58.267,149.85Zm0,0a13.314,13.314,0,0,0,6.481-2.81c1.8-1.5,3.082-3.83,2.674-6.1a6.6,6.6,0,0,0-4.476-4.68A14.286,14.286,0,0,0,49.871,138.2a6.639,6.639,0,0,0-2.935,5.79,6.75,6.75,0,0,0,4.328,5.065A13.5,13.5,0,0,0,58.267,149.85Z" transform="translate(-46.29 -134.36)" fill="#ba7025"/></g></g><path d="M50.06,137.75l13.223,9.167s7.717-5.79-.646-10.765A12.988,12.988,0,0,0,50.06,137.75Z" transform="translate(-41.849 -130.911)" fill="#fff78f"/></g><g transform="translate(73.652 37.394)"><g transform="translate(0 0)"><path d="M78.417,158.693c-7.49-.385-13.813-2.912-13.4-10.969.567-11.014,7.286-9.178,14.776-8.793s13.6-.068,13.076,10.221C92.5,156.472,85.907,159.078,78.417,158.693Z" transform="translate(-64.993 -135.307)" fill="#e8a334"/><ellipse cx="9.541" cy="13.575" rx="9.541" ry="13.575" transform="translate(0.422 19.057) rotate(-87.071)" fill="#ffe05f"/><g transform="translate(3.564 2.174)"><path d="M78.667,153.122a14.259,14.259,0,0,1-6.81-2.051,8.812,8.812,0,0,1-2.629-2.47,6.071,6.071,0,0,1-1.088-3.5,6.186,6.186,0,0,1,1.28-3.5,8.991,8.991,0,0,1,2.844-2.425,14.135,14.135,0,0,1,14.2.725,8.76,8.76,0,0,1,2.583,2.7,6.254,6.254,0,0,1,.918,3.615,6.13,6.13,0,0,1-1.439,3.377,9.023,9.023,0,0,1-2.867,2.2A14.612,14.612,0,0,1,78.667,153.122Zm0,0a13.209,13.209,0,0,0,6.9-1.484c2.062-1.11,3.773-3.139,3.819-5.45a6.633,6.633,0,0,0-3.467-5.473,13.844,13.844,0,0,0-6.515-1.96,13.686,13.686,0,0,0-6.685,1.28,6.63,6.63,0,0,0-4.011,5.1,6.769,6.769,0,0,0,3.241,5.813A13.422,13.422,0,0,0,78.667,153.122Z" transform="translate(-68.139 -137.61)" fill="#ba7025"/></g></g><path d="M72.84,139.74,84,151.332s8.7-4.159,1.484-10.674A12.912,12.912,0,0,0,72.84,139.74Z" transform="translate(-63.949 -135.322)" fill="#fff78f"/></g><g transform="translate(0 33.995)"><g transform="translate(0 0)"><path d="M13.417,155.693c-7.49-.385-13.813-2.912-13.4-10.969.567-11.014,7.286-9.178,14.776-8.793s13.6-.068,13.076,10.221C27.5,153.472,20.907,156.078,13.417,155.693Z" transform="translate(0.007 -132.307)" fill="#e8a334"/><ellipse cx="9.541" cy="13.575" rx="9.541" ry="13.575" transform="translate(0.419 19.057) rotate(-87.071)" fill="#ffe05f"/><g transform="translate(3.564 2.174)"><path d="M13.667,150.122a14.259,14.259,0,0,1-6.81-2.051,8.812,8.812,0,0,1-2.629-2.47,6.071,6.071,0,0,1-1.088-3.5,6.186,6.186,0,0,1,1.28-3.5,8.991,8.991,0,0,1,2.844-2.425,13.817,13.817,0,0,1,7.2-1.552,13.809,13.809,0,0,1,7,2.278,8.76,8.76,0,0,1,2.584,2.7,6.254,6.254,0,0,1,.918,3.615,6.13,6.13,0,0,1-1.439,3.377,9.022,9.022,0,0,1-2.867,2.2A14.612,14.612,0,0,1,13.667,150.122Zm0,0a13.209,13.209,0,0,0,6.9-1.484c2.062-1.11,3.773-3.139,3.819-5.45a6.633,6.633,0,0,0-3.467-5.473,13.843,13.843,0,0,0-6.515-1.96,13.686,13.686,0,0,0-6.685,1.28,6.63,6.63,0,0,0-4.011,5.1,6.769,6.769,0,0,0,3.241,5.813A13.422,13.422,0,0,0,13.667,150.122Z" transform="translate(-3.139 -134.61)" fill="#ba7025"/></g></g><path d="M7.84,136.74,19,148.332s8.7-4.159,1.484-10.674A12.912,12.912,0,0,0,7.84,136.74Z" transform="translate(1.051 -132.322)" fill="#fff78f"/></g><g transform="translate(13.885 18.264)"><g transform="translate(0 0)"><path d="M27.921,142.5c-7.422.872-14.062-.555-15-8.555-1.28-10.923,5.632-10.243,13.065-11.116S39.342,120.5,40.532,130.7C41.382,137.971,35.342,141.631,27.921,142.5Z" transform="translate(-12.179 -118.355)" fill="#e8a334"/><ellipse cx="13.541" cy="9.518" rx="13.541" ry="9.518" transform="translate(0 3.158) rotate(-6.696)" fill="#ffe05f"/><g transform="translate(3.686 2.957)"><path d="M27.25,136.887A14.242,14.242,0,0,1,20.214,136a8.982,8.982,0,0,1-3-1.994,5.973,5.973,0,0,1-1.654-3.263,6.143,6.143,0,0,1,.669-3.66,8.829,8.829,0,0,1,2.391-2.855A14.148,14.148,0,0,1,32.7,122.576a8.751,8.751,0,0,1,2.991,2.221,6.179,6.179,0,0,1,1.5,3.4,6.075,6.075,0,0,1-.861,3.558,8.792,8.792,0,0,1-2.459,2.629A13.761,13.761,0,0,1,27.25,136.887Zm0,0a13.253,13.253,0,0,0,6.538-2.606,6.719,6.719,0,0,0,2.844-5.994,6.613,6.613,0,0,0-4.328-4.8,14.252,14.252,0,0,0-13.087,1.53,6.579,6.579,0,0,0-3.093,5.677,6.74,6.74,0,0,0,4.159,5.178A13.217,13.217,0,0,0,27.25,136.887Z" transform="translate(-15.501 -121.419)" fill="#ba7025"/></g></g><path d="M19.41,124.6l12.906,9.541S40.18,128.6,32,123.4A12.834,12.834,0,0,0,19.41,124.6Z" transform="translate(-11.294 -118.347)" fill="#fff78f"/></g><g transform="translate(37.189 17.818)"><g transform="translate(0 0)"><path d="M49.1,142.486c-7.422,1.1-14.119-.136-15.3-8.124-1.62-10.912,5.337-10.436,12.759-11.535s13.314-2.742,14.832,7.445C62.476,137.535,56.527,141.387,49.1,142.486Z" transform="translate(-32.713 -117.937)" fill="#e8a334"/><ellipse cx="13.575" cy="9.541" rx="13.575" ry="9.541" transform="translate(0 3.977) rotate(-8.424)" fill="#ffe05f"/><g transform="translate(3.939 3.337)"><path d="M48.267,136.85a14.175,14.175,0,0,1-7.071-.669,8.843,8.843,0,0,1-3.071-1.9,6.061,6.061,0,0,1-1.756-3.218,6.173,6.173,0,0,1,.567-3.683,8.864,8.864,0,0,1,2.312-2.935,14.164,14.164,0,0,1,14.062-2.085A8.852,8.852,0,0,1,56.38,124.5a6.2,6.2,0,0,1,1.609,3.365,6.044,6.044,0,0,1-.748,3.592,9.144,9.144,0,0,1-2.38,2.719A14.648,14.648,0,0,1,48.267,136.85Zm0,0a13.314,13.314,0,0,0,6.481-2.81c1.8-1.5,3.082-3.83,2.674-6.1a6.6,6.6,0,0,0-4.476-4.68A14.286,14.286,0,0,0,39.871,125.2a6.639,6.639,0,0,0-2.935,5.79,6.75,6.75,0,0,0,4.328,5.065A13.5,13.5,0,0,0,48.267,136.85Z" transform="translate(-36.29 -121.36)" fill="#ba7025"/></g></g><path d="M40.06,124.75l13.223,9.167s7.717-5.79-.646-10.765A12.988,12.988,0,0,0,40.06,124.75Z" transform="translate(-31.849 -117.911)" fill="#fff78f"/></g><g transform="translate(62.321 22.663)"><g transform="translate(0 0)"><path d="M68.417,145.693c-7.49-.385-13.813-2.912-13.4-10.969.567-11.014,7.286-9.178,14.776-8.793s13.6-.068,13.076,10.221C82.5,143.472,75.907,146.078,68.417,145.693Z" transform="translate(-54.993 -122.306)" fill="#e8a334"/><ellipse cx="9.541" cy="13.575" rx="9.541" ry="13.575" transform="translate(0.422 19.057) rotate(-87.071)" fill="#ffe05f"/><g transform="translate(3.564 2.174)"><path d="M68.667,140.122a14.259,14.259,0,0,1-6.81-2.051,8.812,8.812,0,0,1-2.629-2.47,6.071,6.071,0,0,1-1.088-3.5,6.186,6.186,0,0,1,1.28-3.5,8.991,8.991,0,0,1,2.844-2.425,14.135,14.135,0,0,1,14.2.725,8.76,8.76,0,0,1,2.584,2.7,6.255,6.255,0,0,1,.918,3.615,6.13,6.13,0,0,1-1.439,3.377,9.022,9.022,0,0,1-2.867,2.2A14.612,14.612,0,0,1,68.667,140.122Zm0,0a13.209,13.209,0,0,0,6.9-1.484c2.062-1.11,3.773-3.139,3.819-5.45a6.633,6.633,0,0,0-3.467-5.473,13.844,13.844,0,0,0-6.515-1.96,13.686,13.686,0,0,0-6.685,1.28,6.63,6.63,0,0,0-4.011,5.1,6.769,6.769,0,0,0,3.241,5.813A13.422,13.422,0,0,0,68.667,140.122Z" transform="translate(-58.139 -124.61)" fill="#ba7025"/></g></g><path d="M62.84,126.74,74,138.332s8.7-4.159,1.484-10.674A12.912,12.912,0,0,0,62.84,126.74Z" transform="translate(-53.949 -122.321)" fill="#fff78f"/></g><g transform="translate(23.889 11.508)"><g transform="translate(0 0)"><path d="M35.392,135.686c-7.49.261-14.017-1.711-14.3-9.779-.385-11.025,6.47-9.779,13.971-10.039s13.541-1.235,13.9,9.054C49.227,132.264,42.882,135.425,35.392,135.686Z" transform="translate(-21.076 -112.463)" fill="#e8a334"/><ellipse cx="13.575" cy="9.541" rx="13.575" ry="9.541" transform="translate(0.316 0.953) rotate(-2.011)" fill="#ffe05f"/><g transform="translate(3.294 1.949)"><path d="M35.163,130.094a14.358,14.358,0,0,1-6.957-1.45,8.753,8.753,0,0,1-2.833-2.244,6.018,6.018,0,0,1-1.382-3.4,6.244,6.244,0,0,1,.974-3.6,8.925,8.925,0,0,1,2.629-2.663,14.145,14.145,0,0,1,14.209-.5,8.89,8.89,0,0,1,2.81,2.47,6.306,6.306,0,0,1,1.224,3.524,6.118,6.118,0,0,1-1.144,3.49,8.992,8.992,0,0,1-2.674,2.436A14.339,14.339,0,0,1,35.163,130.094Zm0,0a13.282,13.282,0,0,0,6.753-2.074c1.96-1.292,3.49-3.456,3.331-5.768a6.6,6.6,0,0,0-3.932-5.156,14.33,14.33,0,0,0-13.212.465,6.617,6.617,0,0,0-3.558,5.416,6.758,6.758,0,0,0,3.739,5.518A13.191,13.191,0,0,0,35.163,130.094Z" transform="translate(-23.983 -114.566)" fill="#ba7025"/></g></g><path d="M28.27,117.209,40.394,127.8s8.317-4.9.567-10.765A12.939,12.939,0,0,0,28.27,117.209Z" transform="translate(-20.119 -112.502)" fill="#fff78f"/></g><g transform="translate(49.857 11.332)"><g transform="translate(0 0)"><path d="M57.417,135.693c-7.49-.385-13.813-2.912-13.4-10.969.567-11.014,7.286-9.178,14.776-8.793s13.6-.068,13.076,10.221C71.5,133.472,64.907,136.078,57.417,135.693Z" transform="translate(-43.993 -112.306)" fill="#e8a334"/><ellipse cx="9.541" cy="13.575" rx="9.541" ry="13.575" transform="translate(0.421 19.057) rotate(-87.071)" fill="#ffe05f"/><g transform="translate(3.564 2.175)"><path d="M57.667,130.122a14.259,14.259,0,0,1-6.81-2.051,8.811,8.811,0,0,1-2.629-2.47,6.071,6.071,0,0,1-1.088-3.5,6.186,6.186,0,0,1,1.28-3.5,8.991,8.991,0,0,1,2.844-2.425,14.135,14.135,0,0,1,14.2.725,8.76,8.76,0,0,1,2.583,2.7,6.254,6.254,0,0,1,.918,3.615,6.13,6.13,0,0,1-1.439,3.377,9.023,9.023,0,0,1-2.867,2.2A14.612,14.612,0,0,1,57.667,130.122Zm0,0a13.209,13.209,0,0,0,6.9-1.484c2.062-1.11,3.773-3.139,3.819-5.45a6.633,6.633,0,0,0-3.467-5.473,13.844,13.844,0,0,0-6.515-1.96,13.686,13.686,0,0,0-6.685,1.28,6.63,6.63,0,0,0-4.011,5.1,6.769,6.769,0,0,0,3.241,5.813A13.422,13.422,0,0,0,57.667,130.122Z" transform="translate(-47.139 -114.61)" fill="#ba7025"/></g></g><path d="M51.84,116.74,63,128.332s8.7-4.159,1.484-10.674A12.912,12.912,0,0,0,51.84,116.74Z" transform="translate(-42.949 -112.321)" fill="#fff78f"/></g><g transform="translate(36.26 0)"><path d="M45.417,125.693c-7.49-.385-13.813-2.912-13.4-10.969.567-11.014,7.286-9.178,14.776-8.793s13.6-.068,13.076,10.221C59.5,123.472,52.907,126.078,45.417,125.693Z" transform="translate(-31.994 -102.305)" fill="#e8a334"/><ellipse cx="9.541" cy="13.575" rx="9.541" ry="13.575" transform="translate(0.42 19.057) rotate(-87.071)" fill="#ffe05f"/><g transform="translate(3.564 2.175)"><path d="M45.667,120.122a14.259,14.259,0,0,1-6.81-2.051,8.811,8.811,0,0,1-2.629-2.47,6.071,6.071,0,0,1-1.088-3.5,6.186,6.186,0,0,1,1.28-3.5,8.991,8.991,0,0,1,2.844-2.425,14.135,14.135,0,0,1,14.2.725,8.76,8.76,0,0,1,2.584,2.7,6.254,6.254,0,0,1,.918,3.615,6.13,6.13,0,0,1-1.439,3.377,9.022,9.022,0,0,1-2.867,2.2A14.612,14.612,0,0,1,45.667,120.122Zm0,0a13.209,13.209,0,0,0,6.9-1.484c2.062-1.11,3.773-3.139,3.819-5.45a6.633,6.633,0,0,0-3.467-5.473,13.844,13.844,0,0,0-6.515-1.96,13.686,13.686,0,0,0-6.685,1.28,6.63,6.63,0,0,0-4.011,5.1,6.769,6.769,0,0,0,3.241,5.813A13.422,13.422,0,0,0,45.667,120.122Z" transform="translate(-35.139 -104.61)" fill="#ba7025"/></g><path d="M39.84,106.74,51,118.332s8.7-4.159,1.484-10.674A12.912,12.912,0,0,0,39.84,106.74Z" transform="translate(-30.949 -102.321)" fill="#fff78f"/></g></g><g transform="translate(202.821 131.09)"><g transform="translate(25.23 33)"><g transform="translate(0 0)"><path d="M216.966,168.56c-7.445.872-14.107-.555-15.048-8.578-1.292-10.957,5.654-10.266,13.1-11.15s13.393-2.334,14.594,7.886C230.473,164.027,224.411,167.687,216.966,168.56Z" transform="translate(-201.193 -144.36)" fill="#e8a334"/><ellipse cx="13.575" cy="9.541" rx="13.575" ry="9.541" transform="translate(0 3.166) rotate(-6.696)" fill="#ffe05f"/><g transform="translate(3.696 2.952)"><path d="M216.293,162.933a14.253,14.253,0,0,1-7.048-.884,8.761,8.761,0,0,1-3-1.994,6.1,6.1,0,0,1-1.666-3.275,6.178,6.178,0,0,1,.669-3.671,9.025,9.025,0,0,1,2.4-2.867,14.173,14.173,0,0,1,14.119-1.666,8.788,8.788,0,0,1,3,2.232,6.273,6.273,0,0,1,1.507,3.411,6.11,6.11,0,0,1-.861,3.569,8.979,8.979,0,0,1-2.459,2.64A14.129,14.129,0,0,1,216.293,162.933Zm0,0a13.282,13.282,0,0,0,6.561-2.617c1.847-1.439,3.2-3.728,2.855-6.017a6.625,6.625,0,0,0-4.34-4.816,13.692,13.692,0,0,0-6.753-.839,13.841,13.841,0,0,0-6.379,2.38,6.627,6.627,0,0,0-3.1,5.7,6.77,6.77,0,0,0,4.17,5.19A13.3,13.3,0,0,0,216.293,162.933Z" transform="translate(-204.521 -147.419)" fill="#ba7025"/></g></g><path d="M208.43,150.614l12.94,9.563s7.886-5.552-.317-10.776A12.914,12.914,0,0,0,208.43,150.614Z" transform="translate(-200.305 -144.352)" fill="#fff78f"/></g><g transform="translate(48.518 32.551)"><g transform="translate(0 0)"><path d="M238.1,168.486c-7.422,1.1-14.119-.136-15.3-8.124-1.62-10.912,5.337-10.436,12.759-11.535s13.314-2.742,14.832,7.445C251.476,163.535,245.527,167.387,238.1,168.486Z" transform="translate(-221.711 -143.94)" fill="#e8a334"/><ellipse cx="13.575" cy="9.541" rx="13.575" ry="9.541" transform="translate(0 3.977) rotate(-8.424)" fill="#ffe05f"/><g transform="translate(3.942 3.334)"><path d="M237.267,162.85a14.175,14.175,0,0,1-7.071-.669,8.842,8.842,0,0,1-3.071-1.9,6.061,6.061,0,0,1-1.756-3.218,6.173,6.173,0,0,1,.567-3.683,8.864,8.864,0,0,1,2.312-2.935,14.164,14.164,0,0,1,14.062-2.085,8.852,8.852,0,0,1,3.071,2.142,6.2,6.2,0,0,1,1.609,3.365,6.044,6.044,0,0,1-.748,3.592,9.144,9.144,0,0,1-2.38,2.719A14.649,14.649,0,0,1,237.267,162.85Zm0,0a13.314,13.314,0,0,0,6.481-2.81c1.8-1.5,3.082-3.83,2.674-6.1a6.6,6.6,0,0,0-4.476-4.68,14.286,14.286,0,0,0-13.076,1.938,6.639,6.639,0,0,0-2.935,5.79,6.75,6.75,0,0,0,4.328,5.065A13.5,13.5,0,0,0,237.267,162.85Z" transform="translate(-225.29 -147.36)" fill="#ba7025"/></g></g><path d="M229.06,150.75l13.223,9.167s7.716-5.79-.646-10.765A12.988,12.988,0,0,0,229.06,150.75Z" transform="translate(-220.847 -143.914)" fill="#fff78f"/></g><g transform="translate(73.652 37.394)"><g transform="translate(0 0)"><path d="M257.417,171.693c-7.49-.385-13.813-2.912-13.4-10.969.567-11.014,7.286-9.178,14.776-8.793s13.6-.068,13.076,10.221C271.5,169.472,264.907,172.078,257.417,171.693Z" transform="translate(-243.993 -148.307)" fill="#e8a334"/><ellipse cx="9.541" cy="13.575" rx="9.541" ry="13.575" transform="translate(0.431 19.057) rotate(-87.071)" fill="#ffe05f"/><g transform="translate(3.564 2.174)"><path d="M257.667,166.122a14.259,14.259,0,0,1-6.81-2.051,8.811,8.811,0,0,1-2.629-2.47,6.071,6.071,0,0,1-1.088-3.5,6.186,6.186,0,0,1,1.28-3.5,8.991,8.991,0,0,1,2.844-2.425,14.135,14.135,0,0,1,14.2.725,8.76,8.76,0,0,1,2.583,2.7,6.254,6.254,0,0,1,.918,3.615,6.13,6.13,0,0,1-1.439,3.377,9.023,9.023,0,0,1-2.867,2.2A14.612,14.612,0,0,1,257.667,166.122Zm0,0a13.209,13.209,0,0,0,6.9-1.484c2.062-1.11,3.773-3.139,3.819-5.45a6.633,6.633,0,0,0-3.467-5.473,13.844,13.844,0,0,0-6.515-1.96,13.686,13.686,0,0,0-6.685,1.28,6.63,6.63,0,0,0-4.011,5.1,6.769,6.769,0,0,0,3.241,5.813A13.421,13.421,0,0,0,257.667,166.122Z" transform="translate(-247.139 -150.61)" fill="#ba7025"/></g></g><path d="M251.84,152.74,263,164.332s8.7-4.159,1.484-10.674A12.912,12.912,0,0,0,251.84,152.74Z" transform="translate(-242.949 -148.322)" fill="#fff78f"/></g><g transform="translate(0 33.995)"><g transform="translate(0 0)"><path d="M192.417,168.693c-7.49-.385-13.813-2.912-13.4-10.969.567-11.014,7.286-9.178,14.776-8.793s13.6-.068,13.076,10.221C206.5,166.472,199.907,169.078,192.417,168.693Z" transform="translate(-178.993 -145.307)" fill="#e8a334"/><ellipse cx="9.541" cy="13.575" rx="9.541" ry="13.575" transform="translate(0.428 19.057) rotate(-87.071)" fill="#ffe05f"/><g transform="translate(3.564 2.174)"><path d="M192.667,163.122a14.259,14.259,0,0,1-6.81-2.051,8.812,8.812,0,0,1-2.629-2.47,6.071,6.071,0,0,1-1.088-3.5,6.186,6.186,0,0,1,1.28-3.5,8.991,8.991,0,0,1,2.844-2.425,14.135,14.135,0,0,1,14.2.725,8.76,8.76,0,0,1,2.583,2.7,6.254,6.254,0,0,1,.918,3.615,6.13,6.13,0,0,1-1.439,3.377,9.022,9.022,0,0,1-2.867,2.2A14.612,14.612,0,0,1,192.667,163.122Zm0,0a13.209,13.209,0,0,0,6.9-1.484c2.062-1.11,3.773-3.139,3.819-5.45a6.633,6.633,0,0,0-3.467-5.473,13.843,13.843,0,0,0-6.515-1.96,13.686,13.686,0,0,0-6.685,1.28,6.63,6.63,0,0,0-4.011,5.1,6.769,6.769,0,0,0,3.241,5.813A13.422,13.422,0,0,0,192.667,163.122Z" transform="translate(-182.139 -147.61)" fill="#ba7025"/></g></g><path d="M186.84,149.74,198,161.332s8.7-4.159,1.484-10.674A12.912,12.912,0,0,0,186.84,149.74Z" transform="translate(-177.949 -145.322)" fill="#fff78f"/></g><g transform="translate(13.89 18.273)"><g transform="translate(0 0)"><path d="M206.921,155.5c-7.422.873-14.062-.555-15-8.555-1.28-10.923,5.632-10.243,13.065-11.116s13.359-2.334,14.549,7.864C220.382,150.971,214.342,154.631,206.921,155.5Z" transform="translate(-191.184 -131.363)" fill="#e8a334"/><ellipse cx="13.541" cy="9.518" rx="13.541" ry="9.518" transform="translate(0 3.158) rotate(-6.696)" fill="#ffe05f"/><g transform="translate(3.682 2.949)"><path d="M206.25,149.887a14.242,14.242,0,0,1-7.037-.884,8.982,8.982,0,0,1-3-1.994,5.973,5.973,0,0,1-1.654-3.263,6.142,6.142,0,0,1,.669-3.66,8.829,8.829,0,0,1,2.391-2.855,14.148,14.148,0,0,1,14.085-1.654,8.751,8.751,0,0,1,2.991,2.221,6.179,6.179,0,0,1,1.5,3.4,6.075,6.075,0,0,1-.861,3.558,8.792,8.792,0,0,1-2.459,2.629A13.761,13.761,0,0,1,206.25,149.887Zm0,0a13.253,13.253,0,0,0,6.538-2.606,6.719,6.719,0,0,0,2.844-5.994,6.613,6.613,0,0,0-4.329-4.8,14.252,14.252,0,0,0-13.087,1.53,6.579,6.579,0,0,0-3.093,5.677,6.74,6.74,0,0,0,4.159,5.178A13.217,13.217,0,0,0,206.25,149.887Z" transform="translate(-194.501 -134.419)" fill="#ba7025"/></g></g><path d="M198.41,137.6l12.906,9.541S219.18,141.6,211,136.4A12.834,12.834,0,0,0,198.41,137.6Z" transform="translate(-190.299 -131.356)" fill="#fff78f"/></g><g transform="translate(37.187 17.821)"><g transform="translate(0 0)"><path d="M228.1,155.486c-7.422,1.1-14.119-.136-15.3-8.124-1.62-10.912,5.337-10.436,12.759-11.535s13.314-2.742,14.832,7.445C241.476,150.535,235.527,154.387,228.1,155.486Z" transform="translate(-211.711 -130.94)" fill="#e8a334"/><ellipse cx="13.575" cy="9.541" rx="13.575" ry="9.541" transform="translate(0 3.977) rotate(-8.424)" fill="#ffe05f"/><g transform="translate(3.941 3.334)"><path d="M227.267,149.85a14.175,14.175,0,0,1-7.071-.669,8.842,8.842,0,0,1-3.071-1.9,6.06,6.06,0,0,1-1.756-3.218,6.173,6.173,0,0,1,.567-3.683,8.864,8.864,0,0,1,2.312-2.935,14.164,14.164,0,0,1,14.062-2.085,8.852,8.852,0,0,1,3.071,2.142,6.2,6.2,0,0,1,1.609,3.365,6.044,6.044,0,0,1-.748,3.592,9.144,9.144,0,0,1-2.38,2.719A14.649,14.649,0,0,1,227.267,149.85Zm0,0a13.314,13.314,0,0,0,6.481-2.81c1.8-1.5,3.082-3.83,2.674-6.1a6.6,6.6,0,0,0-4.476-4.68,14.286,14.286,0,0,0-13.076,1.938,6.639,6.639,0,0,0-2.935,5.79,6.75,6.75,0,0,0,4.329,5.065A13.5,13.5,0,0,0,227.267,149.85Z" transform="translate(-215.29 -134.36)" fill="#ba7025"/></g></g><path d="M219.06,137.75l13.223,9.167s7.716-5.79-.646-10.765A12.988,12.988,0,0,0,219.06,137.75Z" transform="translate(-210.847 -130.914)" fill="#fff78f"/></g><g transform="translate(62.321 22.663)"><g transform="translate(0 0)"><path d="M247.417,158.693c-7.49-.385-13.813-2.912-13.4-10.969.567-11.014,7.286-9.178,14.776-8.793s13.6-.068,13.076,10.221C261.5,156.472,254.907,159.078,247.417,158.693Z" transform="translate(-233.994 -135.306)" fill="#e8a334"/><ellipse cx="9.541" cy="13.575" rx="9.541" ry="13.575" transform="translate(0.43 19.057) rotate(-87.071)" fill="#ffe05f"/><g transform="translate(3.564 2.175)"><path d="M247.667,153.122a14.259,14.259,0,0,1-6.81-2.051,8.812,8.812,0,0,1-2.629-2.47,6.071,6.071,0,0,1-1.088-3.5,6.186,6.186,0,0,1,1.28-3.5,8.991,8.991,0,0,1,2.844-2.425,14.135,14.135,0,0,1,14.2.725,8.76,8.76,0,0,1,2.584,2.7,6.255,6.255,0,0,1,.918,3.615,6.13,6.13,0,0,1-1.439,3.377,9.022,9.022,0,0,1-2.867,2.2A14.612,14.612,0,0,1,247.667,153.122Zm0,0a13.209,13.209,0,0,0,6.9-1.484c2.062-1.11,3.773-3.139,3.819-5.45a6.633,6.633,0,0,0-3.467-5.473,13.844,13.844,0,0,0-6.515-1.96,13.686,13.686,0,0,0-6.685,1.28,6.63,6.63,0,0,0-4.011,5.1,6.769,6.769,0,0,0,3.241,5.813A13.422,13.422,0,0,0,247.667,153.122Z" transform="translate(-237.139 -137.61)" fill="#ba7025"/></g></g><path d="M241.84,139.74,253,151.332s8.7-4.159,1.484-10.674A12.912,12.912,0,0,0,241.84,139.74Z" transform="translate(-232.949 -135.321)" fill="#fff78f"/></g><g transform="translate(23.889 11.503)"><g transform="translate(0 0)"><path d="M214.392,148.686c-7.49.261-14.017-1.711-14.3-9.779-.385-11.025,6.47-9.779,13.971-10.039s13.541-1.235,13.9,9.054C228.227,145.264,221.882,148.425,214.392,148.686Z" transform="translate(-200.076 -125.458)" fill="#e8a334"/><ellipse cx="13.575" cy="9.541" rx="13.575" ry="9.541" transform="translate(0.32 0.953) rotate(-2.011)" fill="#ffe05f"/><g transform="translate(3.294 1.954)"><path d="M214.163,143.094a14.358,14.358,0,0,1-6.957-1.45,8.753,8.753,0,0,1-2.833-2.244,6.018,6.018,0,0,1-1.382-3.4,6.244,6.244,0,0,1,.974-3.6,8.925,8.925,0,0,1,2.629-2.663,14.145,14.145,0,0,1,14.209-.5,8.89,8.89,0,0,1,2.81,2.47,6.306,6.306,0,0,1,1.224,3.524,6.118,6.118,0,0,1-1.144,3.49,8.992,8.992,0,0,1-2.674,2.436A14.34,14.34,0,0,1,214.163,143.094Zm0,0a13.282,13.282,0,0,0,6.753-2.074c1.96-1.292,3.49-3.456,3.331-5.768a6.6,6.6,0,0,0-3.932-5.156,14.33,14.33,0,0,0-13.212.465,6.616,6.616,0,0,0-3.558,5.416,6.758,6.758,0,0,0,3.739,5.518A13.191,13.191,0,0,0,214.163,143.094Z" transform="translate(-202.983 -127.566)" fill="#ba7025"/></g></g><path d="M207.27,130.209,219.394,140.8s8.317-4.9.567-10.765A12.939,12.939,0,0,0,207.27,130.209Z" transform="translate(-199.119 -125.497)" fill="#fff78f"/></g><g transform="translate(49.857 11.331)"><g transform="translate(0 0)"><path d="M236.417,148.693c-7.49-.385-13.813-2.912-13.4-10.969.567-11.014,7.286-9.178,14.776-8.793s13.6-.068,13.076,10.221C250.5,146.472,243.907,149.078,236.417,148.693Z" transform="translate(-222.993 -125.306)" fill="#e8a334"/><ellipse cx="9.541" cy="13.575" rx="9.541" ry="13.575" transform="translate(0.43 19.057) rotate(-87.071)" fill="#ffe05f"/><g transform="translate(3.564 2.175)"><path d="M236.667,143.122a14.259,14.259,0,0,1-6.81-2.051,8.812,8.812,0,0,1-2.629-2.47,6.071,6.071,0,0,1-1.088-3.5,6.186,6.186,0,0,1,1.28-3.5,8.99,8.99,0,0,1,2.844-2.425,14.135,14.135,0,0,1,14.2.725,8.76,8.76,0,0,1,2.584,2.7,6.254,6.254,0,0,1,.918,3.615,6.13,6.13,0,0,1-1.439,3.377,9.023,9.023,0,0,1-2.867,2.2A14.612,14.612,0,0,1,236.667,143.122Zm0,0a13.209,13.209,0,0,0,6.9-1.484c2.062-1.11,3.773-3.139,3.819-5.45a6.633,6.633,0,0,0-3.467-5.473,13.843,13.843,0,0,0-6.515-1.96,13.685,13.685,0,0,0-6.685,1.28,6.63,6.63,0,0,0-4.011,5.1,6.769,6.769,0,0,0,3.241,5.813A13.422,13.422,0,0,0,236.667,143.122Z" transform="translate(-226.139 -127.61)" fill="#ba7025"/></g></g><path d="M230.84,129.74,242,141.332s8.7-4.159,1.484-10.674A12.912,12.912,0,0,0,230.84,129.74Z" transform="translate(-221.949 -125.321)" fill="#fff78f"/></g><g transform="translate(36.26 0)"><path d="M224.417,138.693c-7.49-.385-13.813-2.912-13.4-10.969.567-11.014,7.286-9.178,14.776-8.793s13.6-.068,13.076,10.221C238.5,136.472,231.907,139.078,224.417,138.693Z" transform="translate(-210.994 -115.305)" fill="#e8a334"/><ellipse cx="9.541" cy="13.575" rx="9.541" ry="13.575" transform="translate(0.429 19.057) rotate(-87.071)" fill="#ffe05f"/><g transform="translate(3.564 2.175)"><path d="M224.667,133.122a14.259,14.259,0,0,1-6.81-2.051,8.811,8.811,0,0,1-2.629-2.47,6.071,6.071,0,0,1-1.088-3.5,6.186,6.186,0,0,1,1.28-3.5,8.991,8.991,0,0,1,2.844-2.425,14.135,14.135,0,0,1,14.2.725,8.76,8.76,0,0,1,2.584,2.7,6.254,6.254,0,0,1,.918,3.615,6.129,6.129,0,0,1-1.439,3.377,9.022,9.022,0,0,1-2.867,2.2A14.611,14.611,0,0,1,224.667,133.122Zm0,0a13.209,13.209,0,0,0,6.9-1.484c2.062-1.11,3.773-3.139,3.819-5.45a6.633,6.633,0,0,0-3.467-5.473,13.844,13.844,0,0,0-6.515-1.96,13.686,13.686,0,0,0-6.685,1.28,6.63,6.63,0,0,0-4.011,5.1,6.769,6.769,0,0,0,3.241,5.813A13.422,13.422,0,0,0,224.667,133.122Z" transform="translate(-214.139 -117.61)" fill="#ba7025"/></g><path d="M218.84,119.74,230,131.332s8.7-4.159,1.484-10.674A12.912,12.912,0,0,0,218.84,119.74Z" transform="translate(-209.949 -115.32)" fill="#fff78f"/></g></g></g></svg>