<svg xmlns="http://www.w3.org/2000/svg" width="245" height="227.867" viewBox="0 0 245 227.867"><g transform="translate(-85 -243)"><g transform="translate(85 243)"><g transform="translate(0 0)"><g transform="translate(27.476 190.852)" opacity="0.26"><ellipse cx="93.772" cy="18.507" rx="93.772" ry="18.507" fill="#350814"/></g><g transform="translate(0 41.279)"><path d="M-3010.121,125.5s3.038-62.687-5.727-50.347S-3010.121,125.5-3010.121,125.5Z" transform="translate(3094.232 32.078)" fill="#bcedf2"/><path d="M-3022.89,96.262s3.038-62.687-5.726-50.348S-3022.89,96.262-3022.89,96.262Z" transform="translate(3094.563 32.836)" fill="#bcedf2"/><path d="M-3009.838,125.737s-44.5-54.725-41.807-39.91S-3009.838,125.737-3009.838,125.737Z" transform="translate(3095.091 31.825)" fill="#bcedf2"/><path d="M-3022.789,97.395s-44.5-54.725-41.807-39.91S-3022.789,97.395-3022.789,97.395Z" transform="translate(3095.426 32.56)" fill="#bcedf2"/><path d="M-3036.964,67.692s3.038-62.687-5.727-50.347S-3036.964,67.692-3036.964,67.692Z" transform="translate(3094.928 33.577)" fill="#bcedf2"/><path d="M-3036.864,68.825s-44.5-54.725-41.807-39.909S-3036.864,68.825-3036.864,68.825Z" transform="translate(3095.791 33.301)" fill="#bcedf2"/><path d="M-3054.421,35.631s3.039-62.687-5.725-50.348S-3054.421,35.631-3054.421,35.631Z" transform="translate(3095.381 34.408)" fill="#bcedf2"/><path d="M-3054.319,36.764s-44.5-54.725-41.807-39.91S-3054.319,36.764-3054.319,36.764Z" transform="translate(3096.244 34.132)" fill="#bcedf2"/><path d="M-3066.263,13.89s-26.356-61.081-28.464-46.543S-3066.263,13.89-3066.263,13.89Z" transform="translate(3096.208 34.89)" fill="#bcedf2"/></g><g transform="translate(159.747 39.331)"><path d="M-2931.087,123.5s-3.038-62.687,5.726-50.347S-2931.087,123.5-2931.087,123.5Z" transform="translate(2932.227 34.078)" fill="#bcedf2"/><path d="M-2918.317,94.262s-3.04-62.687,5.726-50.348S-2918.317,94.262-2918.317,94.262Z" transform="translate(2931.896 34.836)" fill="#bcedf2"/><path d="M-2932.244,123.737s44.5-54.725,41.807-39.91S-2932.244,123.737-2932.244,123.737Z" transform="translate(2932.244 33.825)" fill="#bcedf2"/><path d="M-2919.293,95.395s44.5-54.725,41.807-39.91S-2919.293,95.395-2919.293,95.395Z" transform="translate(2931.908 34.56)" fill="#bcedf2"/><path d="M-2904.243,65.692s-3.039-62.687,5.726-50.347S-2904.243,65.692-2904.243,65.692Z" transform="translate(2931.531 35.577)" fill="#bcedf2"/><path d="M-2905.219,66.825s44.5-54.725,41.807-39.909S-2905.219,66.825-2905.219,66.825Z" transform="translate(2931.543 35.301)" fill="#bcedf2"/><path d="M-2886.787,33.631s-3.038-62.687,5.727-50.348S-2886.787,33.631-2886.787,33.631Z" transform="translate(2931.078 36.408)" fill="#bcedf2"/><path d="M-2887.762,34.764s44.5-54.725,41.807-39.91S-2887.762,34.764-2887.762,34.764Z" transform="translate(2931.091 36.132)" fill="#bcedf2"/><path d="M-2875.463,11.89s26.355-61.081,28.464-46.543S-2875.463,11.89-2875.463,11.89Z" transform="translate(2930.771 36.89)" fill="#bcedf2"/></g><path d="M-2939.96,93.754l55-63.754s-2.922,58.444-24.352,65.263S-2939.96,93.754-2939.96,93.754Z" transform="translate(3092.191 74.486)" fill="#9b3f00"/><path d="M-3031.5,133.386l11.729-135.76,92.461.081,12.7,135.679Z" transform="translate(3094.565 75.326)" fill="#fcfaa2"/><g transform="translate(77.951 129.812)" opacity="0.24"><path d="M-2995.063,56c1.021,5.718,1.865,11.451,2.613,17.192.4,2.869.74,5.742,1.078,8.616.356,2.872.671,5.748.965,8.625.642,5.75,1.13,11.513,1.664,17.272l.681,8.649q.356,4.323.607,8.656l.153,2.562-2.41-.713a57.3,57.3,0,0,0-8.628-1.777,30.548,30.548,0,0,0-8.7.029c-2.792.478-5.487,1.712-6.994,4.12a10.343,10.343,0,0,0-1.418,4.067,21.1,21.1,0,0,0-.07,4.524,17.773,17.773,0,0,1-.7-4.574,10.686,10.686,0,0,1,.957-4.684,9.686,9.686,0,0,1,3.211-3.764,14.6,14.6,0,0,1,4.484-2.009,29.742,29.742,0,0,1,9.5-.778,49.43,49.43,0,0,1,9.344,1.447l-2.256,1.849c-.314-2.875-.6-5.754-.854-8.634l-.78-8.641c-.44-5.767-.926-11.531-1.259-17.307-.193-2.885-.365-5.773-.5-8.664-.149-2.89-.293-5.779-.384-8.674C-2994.981,67.6-2995.11,61.808-2995.063,56Z" transform="translate(3016.218 -56)" fill="#680c0c"/></g><g transform="translate(133.857 129.812)" opacity="0.24"><path d="M-2951.063,56c.047,5.808-.084,11.6-.309,17.387-.092,2.895-.234,5.784-.385,8.674-.129,2.891-.3,5.779-.495,8.664-.332,5.776-.818,11.54-1.26,17.307l-.78,8.641q-.374,4.32-.853,8.634l-2.257-1.849a49.44,49.44,0,0,1,9.344-1.447,29.739,29.739,0,0,1,9.5.778,14.593,14.593,0,0,1,4.485,2.009,9.685,9.685,0,0,1,3.21,3.764,10.685,10.685,0,0,1,.956,4.684,17.72,17.72,0,0,1-.7,4.574,21.117,21.117,0,0,0-.07-4.524,10.358,10.358,0,0,0-1.418-4.067c-1.507-2.408-4.2-3.642-6.995-4.12a30.539,30.539,0,0,0-8.694-.029,57.337,57.337,0,0,0-8.629,1.777l-2.409.713.153-2.562q.257-4.332.607-8.656l.681-8.649c.534-5.76,1.022-11.522,1.664-17.272.293-2.877.609-5.754.965-8.625.338-2.874.681-5.747,1.078-8.616C-2952.928,67.451-2952.083,61.718-2951.063,56Z" transform="translate(2958.823 -56)" fill="#680c0c"/></g><g transform="translate(119.074 133.221)" opacity="0.24"><path d="M-2972.052,59.5c.806,6.412,1.228,12.826,1.515,19.238s.436,12.826.432,19.238-.144,12.826-.427,19.238-.709,12.826-1.521,19.238c-.811-6.412-1.235-12.826-1.521-19.238s-.437-12.826-.427-19.238.148-12.826.432-19.238S-2972.858,65.912-2972.052,59.5Z" transform="translate(2974 -59.5)" fill="#680c0c"/></g><path d="M0,0H25.569a0,0,0,0,1,0,0V31.768a0,0,0,0,1,0,0h0A25.569,25.569,0,0,1,0,6.2V0A0,0,0,0,1,0,0Z" transform="translate(78.273 183.142) rotate(90)" fill="#fcfaa2"/><path d="M25.569,0h0a0,0,0,0,1,0,0V51.913a0,0,0,0,1,0,0H0a0,0,0,0,1,0,0V25.569A25.569,25.569,0,0,1,25.569,0Z" transform="translate(55.029 156.798)" fill="#fcfaa2"/><path d="M-3039.549,115.452s12.972-3.914,20.719,12.358c0,0,1.55-13.947-16.271-16.272l-4.615-.251Z" transform="translate(3094.778 72.378)" fill="#680c0c" opacity="0.24"/><path d="M25.569,0h0a0,0,0,0,1,0,0V31.768a0,0,0,0,1,0,0H0a0,0,0,0,1,0,0v-6.2A25.569,25.569,0,0,1,25.569,0Z" transform="translate(193.59 183.142) rotate(90)" fill="#fcfaa2"/><path d="M0,0H25.569a0,0,0,0,1,0,0V51.913a0,0,0,0,1,0,0h0A25.569,25.569,0,0,1,0,26.344V0A0,0,0,0,1,0,0Z" transform="translate(185.067 208.712) rotate(-180)" fill="#fcfaa2"/><path d="M-2907.009,115.452s-12.972-3.914-20.719,12.358c0,0-1.55-13.947,16.271-16.272l4.615-.251Z" transform="translate(3091.875 72.378)" fill="#680c0c" opacity="0.24"/><path d="M-2986.743,49.857-3027.6,37.8l4.1-11.13,40.439,12.393,18.545-.923,39.05-13.564,3.725,10.707-39.654,14.239-5.46,8.509L-2960,79.4l-10.292,11.37-12.814-10.22,4.7-21.949-8.389-8.575Z" transform="translate(3094.464 74.627)" fill="#680c0c" opacity="0.24"/><path d="M-3020.446-65.08" transform="translate(3094.278 76.952)" fill="#e25454"/><ellipse cx="46.756" cy="53.185" rx="46.756" ry="53.185" transform="translate(72.064 18.081) rotate(-2.848)" fill="#fcfaa2"/><g transform="translate(124.103 34.353)"><ellipse cx="19.943" cy="16.584" rx="19.943" ry="16.584" transform="translate(0 39.863) rotate(-88.057)" fill="#9b3f00"/></g><g transform="translate(113.137 73.728)" opacity="0.31"><g transform="translate(0 0)"><path d="M-2978.7,5.6l-1.4,10.194c-.127,3.745,3.552,6.91,8.217,7.068l.149,0c3.827.131,8.051-1.878,8.155-4.95l-.008-12.141s-7.311-3.866-6.727-7.348C-2970.3-1.577-2972.367,4.8-2978.7,5.6Z" transform="translate(2980.094 1.577)" fill="#680c0c"/></g></g><g transform="translate(65.8 31.753)" opacity="0.31"><path d="M-3001.716-44.669s13.658,24.619-6.9,48.707c-21.158,24.786-20.063,9.4-20.063,9.4S-3029.5-27.48-3001.716-44.669Z" transform="translate(3028.692 44.669)" fill="#680c0c"/></g><g transform="translate(147.972 32.29)" opacity="0.31"><path d="M-2938.157-44.118s-15.777,26.982,3.105,52.407c19.429,26.164,19.38,10.74,19.38,10.74S-2911.6-25.086-2938.157-44.118Z" transform="translate(2944.333 44.118)" fill="#680c0c"/></g><g transform="translate(102.319 51.642)"><ellipse cx="4.199" cy="2.729" rx="4.199" ry="2.729" transform="translate(0 8.392) rotate(-88.057)"/></g><g transform="translate(114.832 61.486)" opacity="0.31"><ellipse cx="3.689" cy="7.452" rx="3.689" ry="7.452" transform="translate(0 7.375) rotate(-88.057)" fill="#a32424"/></g><g transform="translate(138.825 52.88)"><ellipse cx="4.199" cy="2.309" rx="4.199" ry="2.309" transform="translate(0 8.392) rotate(-88.057)"/></g><g transform="translate(139.848 53.331)"><ellipse cx="2.519" cy="1.386" rx="2.519" ry="1.386" transform="translate(0 5.035) rotate(-88.057)" fill="#fff"/></g><g transform="translate(103.776 51.687)"><ellipse cx="2.519" cy="1.386" rx="2.519" ry="1.386" transform="translate(0 5.035) rotate(-88.057)" fill="#fff"/></g><g transform="translate(112.873 72.018)"><path d="M-2978.967,3.841l-1.4,10.194c-.126,3.745,3.552,6.909,8.218,7.068l.148,0c3.827.13,8.052-1.878,8.156-4.95l-.921-10s-6.4-6.006-5.814-9.488C-2970.577-3.333-2972.639,3.044-2978.967,3.841Z" transform="translate(2980.366 3.333)" fill="#ef583f"/></g><g transform="translate(106.421 65.332)"><path d="M-2979.777,5.145A9.213,9.213,0,0,1-2984.2,3.8c-1.8-1.1-2.84-2.611-2.792-4.034a.84.84,0,0,1,.868-.81.84.84,0,0,1,.81.868c-.026.774.774,1.8,1.992,2.544a6.838,6.838,0,0,0,6.7.369c2.064-1.138,4.546-4.161,4.646-12.106a.84.84,0,0,1,.85-.829.839.839,0,0,1,.829.85c-.111,8.752-3.059,12.2-5.514,13.555A7.6,7.6,0,0,1-2979.777,5.145Z" transform="translate(2986.99 10.196)" fill="#350202"/></g><g transform="translate(121.794 65.765)"><path d="M-2962.673,6.142a7.594,7.594,0,0,1-3.894-1.2c-2.357-1.517-5.065-5.159-4.583-13.9a.831.831,0,0,1,.884-.792.838.838,0,0,1,.792.884c-.437,7.933,1.833,11.118,3.816,12.393a6.839,6.839,0,0,0,6.707.086c1.265-.663,2.132-1.63,2.158-2.4a.841.841,0,0,1,.868-.811.84.84,0,0,1,.812.868c-.049,1.423-1.192,2.857-3.058,3.835A9.219,9.219,0,0,1-2962.673,6.142Z" transform="translate(2971.207 9.752)" fill="#350202"/></g><g transform="translate(64.959 27.262)"><path d="M-3002.469-49.28s13.723,24.621-6.926,48.705c-21.249,24.784-20.152,9.4-20.152,9.4S-3030.377-32.1-3002.469-49.28Z" transform="translate(3029.556 49.28)" fill="#9b3f00"/></g><g transform="translate(149.315 31.619)"><path d="M-2937.679-44.807a46.571,46.571,0,0,0,4.448,49.932c19.43,26.164,19.38,10.74,19.38,10.74S-2911.12-25.775-2937.679-44.807Z" transform="translate(2942.954 44.807)" fill="#9b3f00"/></g><g transform="translate(114.889 59.807)"><ellipse cx="3.689" cy="7.452" rx="3.689" ry="7.452" transform="translate(0 7.375) rotate(-88.057)" fill="#350202"/></g><g transform="translate(89.482 86.39)"><path d="M-3001.859,11.422l-2.521,5.316,2.377,4.222,2.67-4.41Z" transform="translate(3004.38 -11.422)" fill="#f99393"/></g><g transform="translate(152.612 38.823)"><path d="M-2937.049-37.411l-2.521,5.316,2.377,4.222,2.67-4.41Z" transform="translate(2939.569 37.411)" fill="#bcedf2"/></g><g transform="translate(42.376 34.025)"><path d="M-3047.921-42.337l-4.819,10.162,4.545,8.07,5.1-8.431Z" transform="translate(3052.74 42.337)" fill="#fff250"/></g><g transform="translate(50.168 48.636)"><path d="M-3039.921-27.337l-4.819,10.162,4.545,8.07,5.1-8.431Z" transform="translate(3044.74 27.337)" fill="#8884f2"/></g><g transform="translate(186.425 37.71)"><path d="M-2902.059-38.554l-2.8,5.9,2.638,4.684,2.963-4.894Z" transform="translate(2904.856 38.554)" fill="#bcedf2"/></g><g transform="translate(156.463 45.654)"><path d="M-2933.095-30.4l-2.521,5.316,2.377,4.222,2.67-4.41Z" transform="translate(2935.616 30.399)" fill="#f99393"/></g><g transform="translate(160.842 69.875)"><path d="M-2929.519-5.533l-1.6,3.377,1.51,2.682,1.7-2.8Z" transform="translate(2931.12 5.533)" fill="#fff250"/></g><g transform="translate(154.54 92.596)" opacity="0.67"><path d="M-2930.714,21.255l-2.929-.1,2.141-2a.174.174,0,0,0,.009-.246.174.174,0,0,0-.246-.008l-2.141,2,.1-2.929a.174.174,0,0,0-.169-.179.173.173,0,0,0-.179.168l-.1,2.929-2-2.141a.174.174,0,0,0-.246-.009.174.174,0,0,0-.009.245l2,2.141-2.929-.1a.174.174,0,0,0-.179.169.174.174,0,0,0,.168.179l2.929.1-2.141,2a.174.174,0,0,0-.009.245.173.173,0,0,0,.121.056.169.169,0,0,0,.125-.047l2.142-2-.1,2.929a.173.173,0,0,0,.168.179.173.173,0,0,0,.179-.168l.1-2.929,2,2.141a.177.177,0,0,0,.122.056.176.176,0,0,0,.125-.047.174.174,0,0,0,.008-.245l-2-2.142,2.929.1a.173.173,0,0,0,.179-.168A.172.172,0,0,0-2930.714,21.255Z" transform="translate(2937.59 -17.793)" fill="#fff"/></g><g transform="translate(162.786 35.228)" opacity="0.64"><circle cx="0.84" cy="0.84" r="0.84" fill="#fff"/></g><g transform="translate(89.755 21.788)" opacity="0.64"><circle cx="0.84" cy="0.84" r="0.84" fill="#fff"/></g><g transform="translate(117.311 60.966)" opacity="0.22"><ellipse cx="1.469" cy="5.038" rx="1.469" ry="5.038" transform="translate(0 2.937) rotate(-88.057)" fill="#ef583f"/></g><g transform="translate(132.896 72.785)"><path d="M-2955.258,1.143c-.051,0-.1,0-.152-.007a6.772,6.772,0,0,1-4.205-2.3.839.839,0,0,1,.107-1.183.839.839,0,0,1,1.18.105h0a5.129,5.129,0,0,0,3.038,1.706,3.12,3.12,0,0,0,2.337-.942.839.839,0,0,1,1.186.052.84.84,0,0,1-.052,1.186A4.767,4.767,0,0,1-2955.258,1.143Z" transform="translate(2959.811 2.545)" fill="#350202"/></g><g transform="translate(102.325 71.406)"><path d="M-2986.7.467A5.127,5.127,0,0,1-2988.6.052a4.737,4.737,0,0,1-2.541-2.888.84.84,0,0,1,.5-1.075.84.84,0,0,1,1.075.5,3.088,3.088,0,0,0,1.638,1.923,5.16,5.16,0,0,0,3.474-.1.84.84,0,0,1,1.1.455.839.839,0,0,1-.455,1.1A7.609,7.609,0,0,1-2986.7.467Z" transform="translate(2991.195 3.961)" fill="#350202"/></g><g transform="translate(124.878 95.286)"><path d="M-2918.943,31.262l-45.832,16.458-3.267-11.4,45.374-15.761Z" transform="translate(2968.042 -20.555)" fill="#2b8488"/></g><g transform="translate(68.115 97.38)"><path d="M-2979.236,47.732l-47.08-13.9,4.1-11.13,46.294,14.188Z" transform="translate(3026.315 -22.705)" fill="#2b8488"/></g><g transform="translate(80.633 42.198)"><path d="M-3006.588-30.484l-2.928-.1,2.141-2a.173.173,0,0,0,.008-.245.174.174,0,0,0-.246-.009l-2.141,2,.1-2.929a.174.174,0,0,0-.169-.179.173.173,0,0,0-.179.168l-.1,2.929-2-2.141a.174.174,0,0,0-.245-.009.174.174,0,0,0-.009.245l2,2.142-2.929-.1a.173.173,0,0,0-.179.168.174.174,0,0,0,.168.179l2.929.1-2.141,2a.175.175,0,0,0-.009.246.171.171,0,0,0,.122.055.171.171,0,0,0,.125-.047l2.141-2-.1,2.929a.173.173,0,0,0,.167.179.173.173,0,0,0,.18-.168l.1-2.929,2,2.141a.168.168,0,0,0,.12.056.17.17,0,0,0,.125-.047.173.173,0,0,0,.008-.245l-2-2.141,2.929.1a.175.175,0,0,0,.18-.169A.174.174,0,0,0-3006.588-30.484Z" transform="translate(3013.464 33.946)" fill="#fff"/></g><g transform="translate(169.108 22.243)"><path d="M-2915.757-50.97l-2.929-.1,2.141-2a.174.174,0,0,0,.009-.245.174.174,0,0,0-.247-.009l-2.141,2,.1-2.929a.174.174,0,0,0-.168-.179.174.174,0,0,0-.18.168l-.1,2.929-2-2.141a.174.174,0,0,0-.245-.009.173.173,0,0,0-.008.245l2,2.142-2.929-.1a.173.173,0,0,0-.18.168.174.174,0,0,0,.168.179l2.928.1-2.141,2a.174.174,0,0,0-.008.246.167.167,0,0,0,.12.055.17.17,0,0,0,.125-.047l2.141-2-.1,2.929a.174.174,0,0,0,.167.179.173.173,0,0,0,.18-.168l.1-2.929,2,2.141a.175.175,0,0,0,.121.056.17.17,0,0,0,.125-.047.174.174,0,0,0,.009-.245l-2-2.141,2.928.1a.174.174,0,0,0,.18-.169A.174.174,0,0,0-2915.757-50.97Z" transform="translate(2922.634 54.432)" fill="#bcedf2"/></g><g transform="translate(163.393 60.804)"><path d="M-2921.624-11.383l-2.929-.1,2.141-2a.174.174,0,0,0,.009-.245.175.175,0,0,0-.246-.009l-2.141,2,.1-2.929a.173.173,0,0,0-.167-.179.174.174,0,0,0-.18.168l-.1,2.929-2-2.141a.174.174,0,0,0-.245-.009.174.174,0,0,0-.008.246l2,2.141-2.929-.1a.175.175,0,0,0-.18.168.175.175,0,0,0,.168.18l2.929.1-2.142,2a.173.173,0,0,0-.008.245.169.169,0,0,0,.121.055.171.171,0,0,0,.125-.047l2.141-2-.1,2.929a.175.175,0,0,0,.168.18.174.174,0,0,0,.179-.169l.1-2.928,2,2.141a.172.172,0,0,0,.121.055.169.169,0,0,0,.125-.047.174.174,0,0,0,.009-.245l-2-2.141,2.929.1a.174.174,0,0,0,.179-.169A.174.174,0,0,0-2921.624-11.383Z" transform="translate(2928.501 14.845)" fill="#bcedf2"/></g><g transform="translate(132.28 12.389)"><path d="M-2955.474-64.549l-4.968,10.476,4.685,8.319,5.262-8.692Z" transform="translate(2960.442 64.549)" fill="#8884f2"/></g><g transform="translate(44.614 118.563)"><g transform="translate(0 0)"><path d="M-3045.474,44.451l-4.968,10.476,4.685,8.319,5.262-8.692Z" transform="translate(3050.442 -44.451)" fill="#8884f2"/></g></g><g transform="translate(141.874)"><path d="M-2945.625-77.268l-4.968,10.476,4.685,8.319,5.262-8.692Z" transform="translate(2950.593 77.268)" fill="#f99393"/></g><g transform="translate(191.551 44.807)"><path d="M-2894.625-31.268l-4.968,10.476,4.685,8.319,5.262-8.692Z" transform="translate(2899.593 31.268)" fill="#f99393"/></g><path d="M-2980.965,35.415l19.974-.994,3.225,9.48-6.717,10.468-11.552.575-8.389-8.575Z" transform="translate(3093.344 74.371)" fill="#1d6868"/><path d="M-2964.384,54.9l6.854,21.374-10.292,11.37-12.813-10.22,4.7-21.949" transform="translate(3093.246 73.84)" fill="#1d6868"/><g transform="translate(55.836 132.817)"><g transform="translate(26.362 44.228)"><path d="M-3011.858,130.976s9.6-32.9,15.055-25.363S-3011.858,130.976-3011.858,130.976Z" transform="translate(3011.858 -104.491)" fill="#f99393"/></g><g transform="translate(22.888 14.054)"><path d="M-3015.425,102.05s5.786-34.6,12.24-27.6S-3015.425,102.05-3015.425,102.05Z" transform="translate(3015.425 -73.513)" fill="#f99393"/></g><g transform="translate(26.462 26.655)"><path d="M-3011.755,114.033s8.617-34.012,14.472-26.5S-3011.755,114.033-3011.755,114.033Z" transform="translate(3011.755 -86.45)" fill="#f99393"/></g><g transform="translate(0.33 28.507)"><path d="M-3016.417,107.614s-19.917-26.124-22.034-17.526S-3016.417,107.614-3016.417,107.614Z" transform="translate(3038.583 -88.351)" fill="#f99393"/></g><g transform="translate(0.231 45.876)"><path d="M-3012.138,118.016s-27.318-18.244-26.53-9.426S-3012.138,118.016-3012.138,118.016Z" transform="translate(3038.684 -106.182)" fill="#f99393"/></g><g transform="translate(0 60.808)"><path d="M-3012.09,129.189s-28.816-13.236-26.724-4.949S-3012.09,129.189-3012.09,129.189Z" transform="translate(3038.922 -121.512)" fill="#fcfaa2"/></g><g transform="translate(4.643 0)"><path d="M-3019.7,95.263s-4.049-43.325-12.459-35.151S-3019.7,95.263-3019.7,95.263Z" transform="translate(3034.155 -59.085)" fill="#f99393"/></g><g transform="translate(16.808 26.742)"><path d="M-3016.929,139.437a22.219,22.219,0,0,0,3.32-6.05,24.534,24.534,0,0,0,1.425-6.6,27.236,27.236,0,0,0-.354-6.686c-.1-.549-.208-1.1-.333-1.645-.142-.544-.255-1.091-.427-1.627-.154-.54-.308-1.079-.5-1.609l-.271-.8-.3-.822q-2.373-6.591-4.541-13.244c-.725-2.221-1.439-4.427-2.14-6.678a11.429,11.429,0,0,1-.433-1.8c-.078-.626-.09-1.218-.108-1.8-.024-1.175-.07-2.345-.076-3.526.171.564.325,1.133.482,1.7l.425,1.715c.136.573.262,1.144.422,1.662a12.189,12.189,0,0,0,.652,1.525c1.026,2.093,2.017,4.242,2.926,6.4,1.829,4.324,3.461,8.716,4.972,13.147l.281.832.272.869c.19.576.343,1.164.495,1.752a32.051,32.051,0,0,1,.677,3.588,25.784,25.784,0,0,1-.122,7.3,22.227,22.227,0,0,1-2.3,6.863,20.087,20.087,0,0,1-1.962,3.006A14.852,14.852,0,0,1-3016.929,139.437Z" transform="translate(3021.666 -86.539)" fill="#f99393"/></g></g><g transform="translate(132.787 133.791)"><g transform="translate(0 44.228)"><path d="M-2943.944,131.976s-9.6-32.9-15.056-25.363S-2943.944,131.976-2943.944,131.976Z" transform="translate(2959.922 -105.491)" fill="#f99393"/></g><g transform="translate(5.857 14.054)"><path d="M-2940.315,103.05s-5.785-34.6-12.24-27.6S-2940.315,103.05-2940.315,103.05Z" transform="translate(2953.91 -74.513)" fill="#f99393"/></g><g transform="translate(0.347 26.655)"><path d="M-2944.036,115.033s-8.616-34.012-14.471-26.5S-2944.036,115.033-2944.036,115.033Z" transform="translate(2959.566 -87.45)" fill="#f99393"/></g><g transform="translate(19.844 28.507)"><path d="M-2939.55,108.614s19.917-26.124,22.034-17.526S-2939.55,108.614-2939.55,108.614Z" transform="translate(2939.55 -89.351)" fill="#f99393"/></g><g transform="translate(15.562 45.876)"><path d="M-2943.946,119.016s27.318-18.244,26.531-9.426S-2943.946,119.016-2943.946,119.016Z" transform="translate(2943.946 -107.182)" fill="#f99393"/></g><g transform="translate(15.507 60.808)"><path d="M-2944,130.189s28.816-13.236,26.725-4.949S-2944,130.189-2944,130.189Z" transform="translate(2944.002 -122.512)" fill="#f99393"/></g><g transform="translate(23.24 0)"><path d="M-2936.063,96.263s4.049-43.325,12.459-35.151S-2936.063,96.263-2936.063,96.263Z" transform="translate(2936.063 -60.085)" fill="#f99393"/></g><g transform="translate(13.728 26.742)"><path d="M-2938.762,140.437a22.217,22.217,0,0,1-3.32-6.05,24.516,24.516,0,0,1-1.425-6.6,27.212,27.212,0,0,1,.354-6.686c.1-.549.207-1.1.333-1.645.142-.544.255-1.091.426-1.627.154-.54.307-1.079.5-1.609l.271-.8.3-.822q2.375-6.591,4.542-13.244c.724-2.221,1.438-4.427,2.14-6.678a11.483,11.483,0,0,0,.434-1.8c.077-.626.088-1.218.108-1.8.024-1.175.069-2.345.076-3.526-.172.564-.325,1.133-.483,1.7l-.425,1.715c-.135.573-.262,1.144-.421,1.662a12.489,12.489,0,0,1-.652,1.525c-1.027,2.093-2.017,4.242-2.927,6.4-1.828,4.324-3.459,8.716-4.971,13.147l-.282.832-.271.869c-.19.576-.344,1.164-.495,1.752a31.941,31.941,0,0,0-.677,3.588,25.793,25.793,0,0,0,.122,7.3,22.263,22.263,0,0,0,2.3,6.863,20.134,20.134,0,0,0,1.963,3.006A14.829,14.829,0,0,0-2938.762,140.437Z" transform="translate(2945.829 -87.539)" fill="#f99393"/></g></g></g></g></g></svg>