<svg xmlns="http://www.w3.org/2000/svg" xmlns:xlink="http://www.w3.org/1999/xlink" width="326.55" height="291.232" viewBox="0 0 326.55 291.232"><defs><clipPath id="a"><path d="M-2215.312-617.981a49.186,49.186,0,0,1-7.017-3.389c-6.647-3.9-12.273-10.248-13.46-17.862a23.129,23.129,0,0,1,2.117-13.261c4.938-10.527,16.327-16.557,27.749-15.749,4.094.29,9.956.409,12.993-2.884,3.885-4.212,3.636-12.691,4.953-17.949,2.586-10.328,9.934-19.637,19.888-23.416s22.29-1.314,29.189,6.8c23.2,27.281-.042,71.757-27.668,85.07C-2181.385-613.482-2199.823-611.945-2215.312-617.981Z" transform="translate(2236.027 714.223)" fill="none"/></clipPath><clipPath id="b"><rect width="261.878" height="111.485" rx="18.612" fill="none"/></clipPath><clipPath id="c"><path d="M-2292-508.352a7.835,7.835,0,0,0-4.566-.985,7.957,7.957,0,0,0-1.354-.969,7.872,7.872,0,0,0-9.173,1.04,7.871,7.871,0,0,0-9.148,3.655,7.867,7.867,0,0,0,1.352,9.489l-47.844,32.042,10.063,15.026,52.135-34.631c.128-.018.255-.027.383-.051a9.412,9.412,0,0,0,7.586-10.626,7.828,7.828,0,0,0,3.549-3.265A7.871,7.871,0,0,0-2292-508.352Z" transform="translate(2362.729 511.323)" fill="none"/></clipPath><clipPath id="d"><path d="M-2274.321-507.72c.391.675,1.366,1.641,3.548.625a.953.953,0,0,0,.5-1.133,8.223,8.223,0,0,1-.236-4.23.508.508,0,0,0-.716-.607,6.264,6.264,0,0,0-3.248,4.412A1.322,1.322,0,0,0-2274.321-507.72Z" transform="translate(2274.5 513.124)" fill="none"/></clipPath><clipPath id="e"><path d="M-2285.4-510.741c.39.675,1.365,1.641,3.547.624a.951.951,0,0,0,.5-1.132,8.224,8.224,0,0,1-.236-4.23.508.508,0,0,0-.716-.607,6.267,6.267,0,0,0-3.248,4.413A1.316,1.316,0,0,0-2285.4-510.741Z" transform="translate(2285.577 516.145)" fill="none"/></clipPath><clipPath id="f"><path d="M-2296.476-509.734c.39.675,1.366,1.641,3.547.624a.951.951,0,0,0,.5-1.132,8.23,8.23,0,0,1-.236-4.23.508.508,0,0,0-.716-.607,6.262,6.262,0,0,0-3.247,4.412A1.314,1.314,0,0,0-2296.476-509.734Z" transform="translate(2296.655 515.138)" fill="none"/></clipPath><clipPath id="g"><path d="M-2047.112-423.487c-13.257-4.078-20.48-10.623-18.543-21.825,2.278-13.17,11.467-18.226,21.175-18.7,10.537-.51,11.505-4.653,11.593-10.572.2-13.868,5.7-26.919,19.256-29.843s22.889,4.471,25.813,18.031c4.67,21.665,2.388,39.243-18.136,54.029C-2007.323-431.375-2023.769-416.307-2047.112-423.487Z" transform="translate(2065.967 505.055)" fill="none"/></clipPath></defs><g transform="translate(2389.966 774.599)"><g transform="translate(-2306.463 -774.599)"><g transform="translate(0 132.046)" opacity="0.21"><ellipse cx="11.246" cy="52.38" rx="11.246" ry="52.38" transform="translate(0 20.978) rotate(-68.867)" fill="#1c0233"/></g><g transform="translate(120.371 28.024)"><path d="M-2113.609-737.145l-3.878,3.938.806,4.48,3.731-3.089Z" transform="translate(2117.487 737.145)" fill="#bcedf2"/></g><g transform="translate(4.723 92.464)"><path d="M-2268.173-651.02l-3.878,3.938.806,4.48,3.731-3.089Z" transform="translate(2272.051 651.02)" fill="#fff"/></g><g transform="translate(96.469 184.594)"><path d="M-2146.7-527.888l-2.736,2.778.568,3.16,2.632-2.179Z" transform="translate(2149.432 527.888)" fill="#fff"/></g><g transform="translate(159.035 82.31)"><path d="M-2061.935-664.591l-3.878,3.938.806,4.48,3.731-3.089Z" transform="translate(2065.813 664.591)" fill="#fff"/></g><g transform="translate(126.244 22.679)"><path d="M-2105.76-744.288l-3.878,3.938.806,4.48,3.731-3.089Z" transform="translate(2109.638 744.288)" fill="#bcedf2"/></g><g transform="translate(57.696 74.269)"><path d="M-2191.352-663.764l-2.825-4.68,5.307,1.311a.324.324,0,0,0,.393-.237.324.324,0,0,0-.237-.392l-5.308-1.311,4.68-2.826a.324.324,0,0,0,.11-.445.324.324,0,0,0-.445-.11l-4.68,2.826,1.311-5.308a.323.323,0,0,0-.238-.392.324.324,0,0,0-.393.237l-1.31,5.307-2.826-4.68a.326.326,0,0,0-.446-.11.325.325,0,0,0-.109.446l2.825,4.679-5.307-1.311a.325.325,0,0,0-.393.237.325.325,0,0,0,.037.245.325.325,0,0,0,.2.147l5.308,1.311-4.68,2.826a.324.324,0,0,0-.11.445.324.324,0,0,0,.445.11l4.68-2.826-1.311,5.307a.318.318,0,0,0,.037.245.324.324,0,0,0,.2.147.325.325,0,0,0,.393-.237l1.31-5.307,2.826,4.679a.324.324,0,0,0,.445.11A.324.324,0,0,0-2191.352-663.764Z" transform="translate(2201.252 675.338)" fill="#fff"/></g><g transform="translate(21.679 20.297)"><g transform="translate(89.761 84.061)"><path d="M-2120.693-598.337a7.462,7.462,0,0,1-1.146-.56,7.4,7.4,0,0,1-3.471-5.045l-4-22.486a7.4,7.4,0,0,1,5.989-8.58,7.4,7.4,0,0,1,8.579,5.989l2.515,14.141,7.153-2.305a7.4,7.4,0,0,1,8.451,2.977l5.595,8.508a7.4,7.4,0,0,1-2.116,10.247,7.4,7.4,0,0,1-10.247-2.117l-2.5-3.805-9.864,3.178A7.4,7.4,0,0,1-2120.693-598.337Z" transform="translate(2129.424 635.123)" fill="#f7c57c"/></g><g transform="translate(0 30.403)"><g transform="translate(3.255 3.255)"><path d="M-2218.588-660.6s-17.977-24.082-20.033-40.105C-2240.046-711.826-2260.986-667.474-2218.588-660.6Z" transform="translate(2245.04 702.488)" fill="#2b0c0c"/></g><path d="M-2230.266-661.135a30.2,30.2,0,0,1-13.87-10.162,28.863,28.863,0,0,1-5.183-19.068c.436-6.744,3.331-16.311,8.4-16.471.638-.02,3.851.108,4.429,4.618,1.922,14.983,19.238,38.338,19.413,38.572l4.809,6.446-7.938-1.286A50.181,50.181,0,0,1-2230.266-661.135Zm-11.516-34.762a26.275,26.275,0,0,0-.186,14.43c1.967,6.821,6.886,11.683,14.675,14.5C-2232.053-674.211-2238.892-685.716-2241.782-695.9Z" transform="translate(2249.39 706.838)" fill="#2b0c0c"/></g><g transform="translate(62.437)"><path d="M-2161.667-730.86a42.9,42.9,0,0,1,7.331-6.34c3.209-2.316,3.817-2.832,3.908-5.343.117-3.181,3.046-5.357,6.542-4.857s6.237,3.483,6.121,6.664c-.272,7.445-4.393,10.42-8.029,13.044a33.157,33.157,0,0,0-5.728,4.9c-1.322,1.466-2.661,6.34-2.717,6.92-.118,4.625-2.1,7.261-5.28,5.577a12.082,12.082,0,0,1-6.01-7.472,12.65,12.65,0,0,1,1.221-9.368A18.536,18.536,0,0,1-2161.667-730.86Zm7.411,10.623,0,.005Z" transform="translate(2165.944 747.471)" fill="#2b0c0c"/></g><g transform="translate(9.999 24.877)"><path d="M-2215.312-617.981a49.186,49.186,0,0,1-7.017-3.389c-6.647-3.9-12.273-10.248-13.46-17.862a23.129,23.129,0,0,1,2.117-13.261c4.938-10.527,16.327-16.557,27.749-15.749,4.094.29,9.956.409,12.993-2.884,3.885-4.212,3.636-12.691,4.953-17.949,2.586-10.328,9.934-19.637,19.888-23.416s22.29-1.314,29.189,6.8c23.2,27.281-.042,71.757-27.668,85.07C-2181.385-613.482-2199.823-611.945-2215.312-617.981Z" transform="translate(2236.027 714.223)" fill="#fff8b6"/></g><g transform="translate(27.321 88.076)"><path d="M-2207.168-574.271a7.4,7.4,0,0,1-4.727-6.589l-.973-22.886a7.4,7.4,0,0,1,3.068-6.318,7.4,7.4,0,0,1,6.965-.907,48.415,48.415,0,0,0,12.177,2.941,88,88,0,0,0-1.537-12.7,7.406,7.406,0,0,1,5.584-8.843,7.391,7.391,0,0,1,8.844,5.561,105.07,105.07,0,0,1,2.019,18.122,11.445,11.445,0,0,1-4.765,10.057c-4.449,3.177-11.168,2.941-17.133,1.755l.535,12.589a7.4,7.4,0,0,1-7.077,7.706A7.368,7.368,0,0,1-2207.168-574.271Zm16.631-31.106.006,0Z" transform="translate(2212.875 629.758)" fill="#f7c57c"/></g><g transform="translate(9.999 24.877)"><g clip-path="url(#a)"><g transform="translate(-4.519 32.251)"><path d="M-2130.706-671.12s-23.856,67.3-93.054,52.611l-18.306-5.173,21.916,31.949s52.01,1.7,52.562,1.915,61.978-38.864,61.978-38.864Z" transform="translate(2242.067 671.12)" fill="#f7c57c"/></g></g></g><g transform="translate(73.438 46.764)" opacity="0.26"><path d="M-2146.313-673.269c-3.223-1.583-5.081-2.088-4.917-8.232.065-2.451,1.23-3.532,3.681-3.467s2.134,2.367,4.53,4.2c12.908.884,16.949,4.827,17.626,6.81a4.441,4.441,0,0,1-2.768,5.636,4.441,4.441,0,0,1-5.3-2.02c-.45-.367-2.8-1.942-10.263-2.281A6.481,6.481,0,0,1-2146.313-673.269Zm12.521,2.189v0Zm0-.008,0,.007Z" transform="translate(2151.239 684.971)" fill="#990707"/></g><g transform="translate(74.631 45.322)"><path d="M-2144.719-675.2c-3.224-1.583-5.081-2.088-4.917-8.231.066-2.451,1.231-3.532,3.681-3.467s2.135,2.367,4.53,4.2c12.908.884,16.949,4.827,17.627,6.81a4.439,4.439,0,0,1-2.769,5.635,4.44,4.44,0,0,1-5.3-2.02c-.45-.367-2.805-1.941-10.264-2.281A6.484,6.484,0,0,1-2144.719-675.2Zm12.52,2.189,0,0Zm0-.007,0,.006Z" transform="translate(2149.646 686.899)" fill="#ed3b3b"/></g><g transform="translate(69.227 35.312)"><circle cx="2.178" cy="2.178" r="2.178" fill="#2b0c0c"/></g><g transform="translate(69.196 43.809)"><path d="M-2140.364-682.523a3.02,3.02,0,0,1-.754.091c-2.645-.009-5.564-3.255-6.677-4.622-1.412.949-5.077,3.333-6.88,3.788a1.587,1.587,0,0,1-1.55-.359c-1.1-1.069-.586-3.886-.4-4.724a.726.726,0,0,1,.864-.553.726.726,0,0,1,.554.865c-.288,1.314-.352,3.035-.005,3.37.031.031.159,0,.184-.006,1.628-.411,5.587-3,6.975-3.958a.726.726,0,0,1,.994.162c.953,1.273,3.88,4.58,5.949,4.586a1.619,1.619,0,0,0,1.351-.735l2.81-3.7a.725.725,0,0,1,1.017-.139.725.725,0,0,1,.14,1.017l-2.81,3.7A3.179,3.179,0,0,1-2140.364-682.523Z" transform="translate(2156.91 688.92)" fill="#2b0c0c"/></g><g transform="translate(87.592 41.482)"><path d="M-2127.893-688.495a3.5,3.5,0,0,1-4.407-2.632.726.726,0,0,1,.526-.881.726.726,0,0,1,.881.523,2.071,2.071,0,0,0,2.646,1.583.726.726,0,0,1,.881.526A.727.727,0,0,1-2127.893-688.495Zm-3-2.988.008,0Z" transform="translate(2132.323 692.031)" fill="#2b0c0c"/></g><g transform="translate(67.782 41.901)"><path d="M-2155.449-688.872a3.3,3.3,0,0,1-1.354.048,4.293,4.293,0,0,1-1.7-.687.726.726,0,0,1-.162-1.014.725.725,0,0,1,1.011-.164,2.071,2.071,0,0,0,3.045-.483.726.726,0,0,1,1.014-.162.725.725,0,0,1,.161,1.014A3.591,3.591,0,0,1-2155.449-688.872Z" transform="translate(2158.799 691.471)" fill="#2b0c0c"/></g><g transform="translate(91.062 35.794)"><circle cx="2.178" cy="2.178" r="2.178" fill="#2b0c0c"/></g><g transform="translate(74.828 39.371)"><g transform="translate(0 0)"><ellipse cx="2.178" cy="3.528" rx="2.178" ry="3.528" transform="translate(0 4.229) rotate(-76.124)" fill="#2b0c0c"/></g></g><g transform="translate(76.021 39.698)" opacity="0.25"><g transform="translate(0 0)"><ellipse cx="1.267" cy="2.26" rx="1.267" ry="2.26" transform="translate(0 2.46) rotate(-76.124)" fill="#ed3b3b"/></g></g><g transform="translate(102.405 34.183)"><path d="M-2104.28-683.737a12.651,12.651,0,0,1-7.065-6.272,12.083,12.083,0,0,1-.364-9.582c1.3-3.359,4.521-2.667,7.643.747.423.4,4.631,3.2,6.59,3.443a33.209,33.209,0,0,0,7.54-.055c4.465-.4,9.526-.86,14.615,4.581,2.174,2.326,2.063,6.375-.25,9.045s-5.949,2.949-8.124.624c-1.717-1.835-2.513-1.826-6.454-1.471a42.87,42.87,0,0,1-9.693.023A18.559,18.559,0,0,1-2104.28-683.737Zm3.061-11.8.006,0Z" transform="translate(2112.526 701.785)" fill="#2b0c0c"/></g><g transform="translate(47.344 70.486)"><path d="M-2181.383-619.895a7.389,7.389,0,0,1-3.047-2.2,7.4,7.4,0,0,1-1.458-6.517l4.833-19.071a7.4,7.4,0,0,1,8.989-5.354,7.4,7.4,0,0,1,5.354,8.989l-2.363,9.324,15.883-.859a7.4,7.4,0,0,1,6.1,2.678,7.4,7.4,0,0,1,1.473,6.5l-.141,7.909c-.989,3.965-7.174,7.727-11.139,6.738a7.4,7.4,0,0,1-5.487-8.51l-15.936.862A7.4,7.4,0,0,1-2181.383-619.895Z" transform="translate(2186.115 653.267)" fill="#f7c57c"/></g><g transform="translate(49.709 67.257)"><g transform="translate(0.02 0.343)"><path d="M-2178.2-623.751a7.391,7.391,0,0,1-3.047-2.2,7.4,7.4,0,0,1-1.458-6.517l4.834-19.071a7.4,7.4,0,0,1,8.989-5.354,7.4,7.4,0,0,1,5.354,8.99l-2.363,9.324,15.882-.859a7.4,7.4,0,0,1,6.1,2.677,7.4,7.4,0,0,1,1.473,6.5l-2.31,9.26a7.4,7.4,0,0,1-8.969,5.388,7.4,7.4,0,0,1-5.487-8.51l-15.936.861A7.4,7.4,0,0,1-2178.2-623.751Z" transform="translate(2182.928 657.124)" fill="#fff8b6"/></g><path d="M-2178.2-623.866a7.428,7.428,0,0,1-4.682-5.917,7.413,7.413,0,0,1-.006-1.977c.088-.657.277-1.291.426-1.932l.943-3.84,1.867-7.684.925-3.844.462-1.922a10.949,10.949,0,0,1,.579-1.927,7.61,7.61,0,0,1,2.507-3.173,7.724,7.724,0,0,1,3.8-1.456,7.833,7.833,0,0,1,4.039.68,7.826,7.826,0,0,1,3.14,2.67,7.925,7.925,0,0,1,1.366,3.915,7.923,7.923,0,0,1-.153,2.1c-.139.681-.309,1.291-.463,1.94l-1.892,7.678-.582-.709c5.162-.294,10.324-.588,15.489-.845a8.245,8.245,0,0,1,4.048.661,8.019,8.019,0,0,1,3.189,2.608,8.018,8.018,0,0,1,1.45,3.841,7.841,7.841,0,0,1-.073,2.064c-.124.7-.313,1.293-.47,1.924l-1.969,7.5a10.229,10.229,0,0,1-.65,1.9,7.724,7.724,0,0,1-1.115,1.686,7.765,7.765,0,0,1-3.3,2.245,7.666,7.666,0,0,1-7.5-1.444,7.536,7.536,0,0,1-2.188-3.247,7.552,7.552,0,0,1-.278-3.882l.094.107-9.533.448-4.766.246c-.795.026-1.588.115-2.385.085A7.406,7.406,0,0,1-2178.2-623.866Zm0,0a7.43,7.43,0,0,0,2.325.483c.794.025,1.588-.067,2.382-.1l4.764-.269,9.526-.582.115-.008-.02.115a7.306,7.306,0,0,0,2.526,6.814,7.2,7.2,0,0,0,7.072,1.2,7.156,7.156,0,0,0,2.988-2.141,7.047,7.047,0,0,0,.98-1.562,9.417,9.417,0,0,0,.558-1.781l1.785-7.548c.141-.626.321-1.273.407-1.851a7.19,7.19,0,0,0,.032-1.8,6.96,6.96,0,0,0-1.305-3.315,6.928,6.928,0,0,0-2.779-2.206,7.092,7.092,0,0,0-3.527-.545c-5.162.3-10.326.566-15.49.831l-.777.04.2-.747,1.993-7.652c.159-.632.35-1.289.483-1.9a7.251,7.251,0,0,0,.176-1.832,7.01,7.01,0,0,0-1.126-3.487,7,7,0,0,0-2.753-2.457,7.113,7.113,0,0,0-3.649-.7,7.1,7.1,0,0,0-3.524,1.255,7.092,7.092,0,0,0-2.4,2.9,10.528,10.528,0,0,0-.6,1.84l-.509,1.91-1.017,3.82-2.019,7.646-1,3.825a18.589,18.589,0,0,0-.449,1.921,7.385,7.385,0,0,0,0,1.965A7.409,7.409,0,0,0-2178.2-623.866Z" transform="translate(2182.955 657.582)" fill="#f7c57c"/></g><g transform="translate(53.258 57.119)"><path d="M-2174.669-666.984l-3.542,7.914.239,10.48,22.9-.4-5.248-12.449,2.134-5.521-6.75-3.878S-2173.088-672.719-2174.669-666.984Z" transform="translate(2178.211 671.132)" fill="#fff8b6"/></g><g transform="translate(1.947 86.797)"><path d="M-2242.064-581.508a7.4,7.4,0,0,1-4.594-8.275l4.258-22.507a7.4,7.4,0,0,1,4.425-5.454,7.4,7.4,0,0,1,6.99.7,48.327,48.327,0,0,0,11.188,5.633,87.892,87.892,0,0,0,1.392-12.718,7.4,7.4,0,0,1,7.449-7.339,7.393,7.393,0,0,1,7.348,7.426,105.14,105.14,0,0,1-2.157,18.106,11.447,11.447,0,0,1-6.929,8.709c-5.054,2.081-11.546.325-17.083-2.188l-2.342,12.381a7.4,7.4,0,0,1-8.645,5.894A7.426,7.426,0,0,1-2242.064-581.508Zm21.782-27.29.005,0Z" transform="translate(2246.788 631.466)" fill="#fff8b6"/></g><g transform="translate(63.018 52.565)"><path d="M-2165.167-677.218s11.993,19.865,36.562,15.4C-2128.6-661.817-2157.618-642.573-2165.167-677.218Z" transform="translate(2165.167 677.218)" fill="#f7c57c"/></g><g transform="translate(23.129 69.453)" opacity="0.54"><g transform="translate(0 0)"><ellipse cx="8.619" cy="12.725" rx="8.619" ry="12.725" transform="translate(0 17.112) rotate(-83.078)" fill="#720e0e"/></g></g><g transform="translate(17.331 87.445)" opacity="0.54"><g transform="translate(0 0)"><ellipse cx="5.459" cy="7.229" rx="5.459" ry="7.229" transform="translate(0 10.839) rotate(-83.078)" fill="#720e0e"/></g></g></g><g transform="translate(51.522 8.483)"><circle cx="21.899" cy="21.899" r="21.899" fill="#fff250"/><g transform="translate(0.836 8.914)" opacity="0.44"><path d="M-2169.774-751.348a21.8,21.8,0,0,1-.4,14.37,21.9,21.9,0,0,1-28.247,12.7,21.791,21.791,0,0,1-9.962-7.632,21.853,21.853,0,0,0,13.1,13.877,21.9,21.9,0,0,0,28.247-12.7A21.876,21.876,0,0,0-2169.774-751.348Z" transform="translate(2208.387 751.348)" fill="#ef583f"/></g><g transform="translate(12.077 3.302)"><ellipse cx="8.803" cy="3.865" rx="8.803" ry="3.865" transform="translate(0 1.274) rotate(-4.149)" fill="#fffbe1"/></g><g transform="translate(4.575 10.304)"><ellipse cx="4.008" cy="3.865" rx="4.008" ry="3.865" transform="translate(0 0.58) rotate(-4.149)" fill="#fffbe1"/></g></g><g transform="translate(58.106 7.056)"><path d="M-2195.375-765.169l-5.33,5.412,1.107,6.157,5.128-4.245Z" transform="translate(2200.705 765.169)" fill="#fff"/></g><g transform="translate(55.841)"><path d="M-2199.089-774.6l-4.644,4.715.965,5.364,4.468-3.7Z" transform="translate(2203.732 774.599)" fill="#f99393"/></g><g transform="translate(7.317 99.27)"><path d="M-2263.94-641.925l-4.644,4.715.965,5.364,4.468-3.7Z" transform="translate(2268.584 641.925)" fill="#f99393"/></g></g><g transform="translate(-2093.699 -647.531)"><path d="M-1991.317-604.773l-2.687,6.2,2.894,4.754,2.894-5.168Z" transform="translate(1994.004 604.773)" fill="#f99393"/></g><g transform="translate(-2099.684 -655.013)"><g transform="translate(0)"><path d="M-1999.317-614.773l-2.687,6.2,2.894,4.754,2.894-5.168Z" transform="translate(2002.004 614.773)" fill="#f99393"/></g></g><g transform="translate(-2113.124 -649.946)"><g transform="translate(0 51.926)"><path d="M-2001.208-507.506s-11.274-38.627-17.676-29.777S-2001.208-507.506-2001.208-507.506Z" transform="translate(2019.966 538.601)" fill="#8985f2"/></g><g transform="translate(6.875 16.5)"><path d="M-1994.817-552.444s-6.792-40.628-14.37-32.406S-1994.817-552.444-1994.817-552.444Z" transform="translate(2010.778 585.948)" fill="#8985f2"/></g><g transform="translate(0.406 31.294)"><path d="M-2001.19-533.792s-10.115-39.93-16.99-31.112S-2001.19-533.792-2001.19-533.792Z" transform="translate(2019.423 566.176)" fill="#8985f2"/></g><g transform="translate(23.297 33.469)"><path d="M-1988.83-540.654s23.384-30.67,25.869-20.577S-1988.83-540.654-1988.83-540.654Z" transform="translate(1988.83 563.269)" fill="#8985f2"/></g><g transform="translate(18.27 53.86)"><path d="M-1995.549-522.124s32.072-21.419,31.147-11.065S-1995.549-522.124-1995.549-522.124Z" transform="translate(1995.549 536.016)" fill="#8985f2"/></g><g transform="translate(18.205 71.391)"><path d="M-1995.635-503.574s33.832-15.538,31.375-5.81S-1995.635-503.574-1995.635-503.574Z" transform="translate(1995.635 512.586)" fill="#8985f2"/></g><g transform="translate(27.283)"><path d="M-1983.5-565.526s4.754-50.865,14.628-41.27S-1983.5-565.526-1983.5-565.526Z" transform="translate(1983.502 608)" fill="#8985f2"/></g><g transform="translate(16.116 31.396)"><path d="M-1990.13-503.936a26.063,26.063,0,0,1-3.9-7.1,28.789,28.789,0,0,1-1.673-7.752,31.96,31.96,0,0,1,.416-7.85c.12-.646.243-1.291.39-1.932.167-.638.3-1.281.5-1.91.18-.634.361-1.267.585-1.889l.317-.938.354-.965q2.786-7.737,5.332-15.549c.851-2.608,1.689-5.2,2.512-7.841a13.389,13.389,0,0,0,.509-2.119c.091-.735.1-1.428.127-2.116.028-1.379.082-2.753.089-4.141-.2.663-.382,1.331-.566,2l-.5,2.013c-.158.673-.307,1.343-.5,1.951a14.362,14.362,0,0,1-.765,1.791c-1.2,2.458-2.367,4.979-3.436,7.514-2.147,5.076-4.063,10.233-5.837,15.435l-.331.977-.318,1.02c-.224.676-.4,1.367-.581,2.058a37.653,37.653,0,0,0-.795,4.212,30.282,30.282,0,0,0,.143,8.566,26.112,26.112,0,0,0,2.7,8.058,23.719,23.719,0,0,0,2.3,3.529A17.4,17.4,0,0,0-1990.13-503.936Z" transform="translate(1998.428 566.04)" fill="#8985f2"/></g></g><g transform="translate(-2223.861 -701.574)"><g transform="translate(0 51.926)"><path d="M-2149.208-576.506s-11.274-38.627-17.676-29.777S-2149.208-576.506-2149.208-576.506Z" transform="translate(2167.966 607.601)" fill="#f99393"/></g><g transform="translate(6.874 16.5)"><path d="M-2142.817-621.444s-6.792-40.628-14.37-32.405S-2142.817-621.444-2142.817-621.444Z" transform="translate(2158.779 654.948)" fill="#f99393"/></g><g transform="translate(0.406 31.294)"><path d="M-2149.189-602.792s-10.115-39.93-16.99-31.112S-2149.189-602.792-2149.189-602.792Z" transform="translate(2167.423 635.176)" fill="#f99393"/></g><g transform="translate(23.297 33.469)"><path d="M-2136.83-609.654s23.384-30.67,25.869-20.577S-2136.83-609.654-2136.83-609.654Z" transform="translate(2136.83 632.269)" fill="#f99393"/></g><g transform="translate(18.27 53.86)"><path d="M-2143.549-591.124s32.072-21.419,31.147-11.065S-2143.549-591.124-2143.549-591.124Z" transform="translate(2143.549 605.016)" fill="#f99393"/></g><g transform="translate(18.205 71.391)"><path d="M-2143.635-572.574s33.832-15.538,31.375-5.81S-2143.635-572.574-2143.635-572.574Z" transform="translate(2143.635 581.586)" fill="#f99393"/></g><g transform="translate(27.283 0)"><path d="M-2131.5-634.526s4.754-50.865,14.628-41.27S-2131.5-634.526-2131.5-634.526Z" transform="translate(2131.502 677)" fill="#f99393"/></g><g transform="translate(16.116 31.396)"><path d="M-2138.13-572.936a26.064,26.064,0,0,1-3.9-7.1,28.8,28.8,0,0,1-1.673-7.752,31.96,31.96,0,0,1,.416-7.85c.12-.646.243-1.291.39-1.932.167-.638.3-1.281.5-1.91.18-.634.361-1.267.585-1.889l.317-.938.354-.965q2.787-7.737,5.332-15.549c.851-2.608,1.689-5.2,2.513-7.841a13.387,13.387,0,0,0,.509-2.119c.091-.735.1-1.428.127-2.116.028-1.379.082-2.753.089-4.141-.2.663-.382,1.331-.566,2l-.5,2.013c-.159.673-.308,1.343-.5,1.951a14.323,14.323,0,0,1-.765,1.791c-1.2,2.458-2.368,4.979-3.436,7.514-2.146,5.076-4.063,10.233-5.837,15.435l-.331.976-.318,1.02c-.224.676-.4,1.367-.581,2.058a37.6,37.6,0,0,0-.795,4.213,30.281,30.281,0,0,0,.143,8.566,26.106,26.106,0,0,0,2.7,8.058,23.74,23.74,0,0,0,2.3,3.529A17.391,17.391,0,0,0-2138.13-572.936Z" transform="translate(2146.428 635.04)" fill="#f99393"/></g></g><g transform="translate(-2389.966 -655.184)"><g transform="translate(30.949 51.926)"><path d="M-2348.6-514.506s11.274-38.627,17.676-29.777S-2348.6-514.506-2348.6-514.506Z" transform="translate(2348.603 545.601)" fill="#8985f2"/></g><g transform="translate(26.872 16.5)"><path d="M-2354.052-559.444s6.792-40.628,14.37-32.406S-2354.052-559.444-2354.052-559.444Z" transform="translate(2354.052 592.948)" fill="#8985f2"/></g><g transform="translate(31.067 31.294)"><path d="M-2348.445-540.792s10.116-39.93,16.99-31.112S-2348.445-540.792-2348.445-540.792Z" transform="translate(2348.445 573.176)" fill="#8985f2"/></g><g transform="translate(0.387 33.469)"><path d="M-2363.426-547.654s-23.383-30.67-25.869-20.577S-2363.426-547.654-2363.426-547.654Z" transform="translate(2389.449 570.269)" fill="#8985f2"/></g><g transform="translate(0.271 53.86)"><path d="M-2358.437-529.124s-32.072-21.419-31.147-11.065S-2358.437-529.124-2358.437-529.124Z" transform="translate(2389.604 543.016)" fill="#8985f2"/></g><g transform="translate(0 71.391)"><path d="M-2358.464-510.574s-33.831-15.538-31.375-5.81S-2358.464-510.574-2358.464-510.574Z" transform="translate(2389.967 519.586)" fill="#8985f2"/></g><g transform="translate(5.451 0)"><path d="M-2365.708-572.526s-4.753-50.865-14.628-41.27S-2365.708-572.526-2365.708-572.526Z" transform="translate(2382.681 615)" fill="#8985f2"/></g><g transform="translate(19.733 31.396)"><path d="M-2358.031-510.936a26.109,26.109,0,0,0,3.9-7.1,28.816,28.816,0,0,0,1.673-7.752,31.984,31.984,0,0,0-.416-7.85c-.121-.646-.244-1.291-.391-1.932-.167-.638-.3-1.281-.5-1.91-.181-.634-.362-1.267-.585-1.889l-.318-.938-.354-.965q-2.785-7.737-5.332-15.549c-.85-2.608-1.688-5.2-2.512-7.841a13.415,13.415,0,0,1-.51-2.119c-.091-.735-.1-1.428-.126-2.116-.029-1.379-.082-2.753-.089-4.141.2.663.382,1.331.566,2l.5,2.013c.159.673.307,1.343.495,1.951a14.442,14.442,0,0,0,.766,1.791c1.2,2.458,2.367,4.979,3.435,7.514,2.147,5.076,4.063,10.233,5.838,15.435l.33.977.319,1.02c.223.676.4,1.367.581,2.058a37.491,37.491,0,0,1,.795,4.213,30.254,30.254,0,0,1-.142,8.566,26.119,26.119,0,0,1-2.706,8.058,23.6,23.6,0,0,1-2.3,3.529A17.366,17.366,0,0,1-2358.031-510.936Z" transform="translate(2363.593 573.04)" fill="#8985f2"/></g></g><g transform="translate(-2279.978 -703.07)"><g transform="translate(30.949 51.926)"><path d="M-2201.6-578.506s11.274-38.627,17.676-29.777S-2201.6-578.506-2201.6-578.506Z" transform="translate(2201.603 609.601)" fill="#f99393"/></g><g transform="translate(26.872 16.5)"><path d="M-2207.052-623.444s6.792-40.628,14.37-32.406S-2207.052-623.444-2207.052-623.444Z" transform="translate(2207.052 656.948)" fill="#f99393"/></g><g transform="translate(31.067 31.294)"><path d="M-2201.445-604.792s10.116-39.93,16.99-31.112S-2201.445-604.792-2201.445-604.792Z" transform="translate(2201.445 637.176)" fill="#f99393"/></g><g transform="translate(0.387 33.469)"><path d="M-2216.426-611.654s-23.383-30.67-25.869-20.577S-2216.426-611.654-2216.426-611.654Z" transform="translate(2242.449 634.269)" fill="#f99393"/></g><g transform="translate(0.271 53.86)"><path d="M-2211.437-593.124s-32.072-21.419-31.148-11.065S-2211.437-593.124-2211.437-593.124Z" transform="translate(2242.604 607.016)" fill="#f99393"/></g><g transform="translate(0 71.391)"><path d="M-2211.464-574.574s-33.831-15.538-31.374-5.81S-2211.464-574.574-2211.464-574.574Z" transform="translate(2242.966 583.586)" fill="#f99393"/></g><g transform="translate(5.451)"><path d="M-2218.709-636.526s-4.753-50.865-14.627-41.27S-2218.709-636.526-2218.709-636.526Z" transform="translate(2235.681 679)" fill="#f99393"/></g><g transform="translate(19.733 31.396)"><path d="M-2211.031-574.936a26.109,26.109,0,0,0,3.9-7.1,28.808,28.808,0,0,0,1.673-7.752,31.96,31.96,0,0,0-.416-7.85c-.121-.646-.244-1.291-.391-1.932-.167-.637-.3-1.281-.5-1.91-.181-.634-.362-1.267-.585-1.889l-.318-.938-.354-.965q-2.785-7.737-5.332-15.549c-.85-2.608-1.688-5.2-2.511-7.841a13.361,13.361,0,0,1-.51-2.119c-.091-.735-.1-1.428-.127-2.116-.029-1.379-.082-2.753-.089-4.141.2.663.382,1.331.566,2l.5,2.013c.159.673.307,1.343.5,1.951a14.33,14.33,0,0,0,.766,1.791c1.2,2.458,2.367,4.979,3.435,7.514,2.148,5.076,4.063,10.233,5.838,15.435l.33.977.319,1.02c.223.676.4,1.367.581,2.058a37.486,37.486,0,0,1,.795,4.213,30.255,30.255,0,0,1-.142,8.566,26.121,26.121,0,0,1-2.706,8.058,23.609,23.609,0,0,1-2.3,3.529A17.36,17.36,0,0,1-2211.031-574.936Z" transform="translate(2216.593 637.04)" fill="#f99393"/></g></g><g transform="translate(-2359.688 -695.635)"><g transform="translate(64.278 74.376)"><path d="M-2252.3-527.265s-6.406-52.376-10.55-40.694S-2252.3-527.265-2252.3-527.265Z" transform="translate(2263.592 569.659)" fill="#abecef"/></g><g transform="translate(52.22 52.899)"><path d="M-2268.419-555.971s-6.406-52.375-10.551-40.694S-2268.419-555.971-2268.419-555.971Z" transform="translate(2279.707 598.364)" fill="#abecef"/></g><g transform="translate(43.014 88.277)"><path d="M-2258.707-522.794s-36.8-37.81-33.032-26S-2258.707-522.794-2258.707-522.794Z" transform="translate(2292.011 551.081)" fill="#abecef"/></g><g transform="translate(30.956 67.552)"><path d="M-2274.822-550.492s-36.8-37.81-33.032-26S-2274.822-550.492-2274.822-550.492Z" transform="translate(2308.125 578.779)" fill="#abecef"/></g><g transform="translate(39.409 32.175)"><path d="M-2285.542-583.668s-6.406-52.375-10.55-40.694S-2285.542-583.668-2285.542-583.668Z" transform="translate(2296.829 626.062)" fill="#abecef"/></g><g transform="translate(18.145 46.829)"><path d="M-2291.944-578.189s-36.8-37.811-33.033-26S-2291.944-578.189-2291.944-578.189Z" transform="translate(2325.248 606.477)" fill="#abecef"/></g><g transform="translate(23.96 9.19)"><path d="M-2306.189-614.387s-6.405-52.376-10.55-40.694S-2306.189-614.387-2306.189-614.387Z" transform="translate(2317.476 656.781)" fill="#abecef"/></g><g transform="translate(2.696 23.843)"><path d="M-2312.592-608.909s-36.8-37.81-33.032-26S-2312.592-608.909-2312.592-608.909Z" transform="translate(2345.896 637.196)" fill="#abecef"/></g><g transform="translate(0 0)"><path d="M-2324.4-633.22s-25.647-46.113-25.092-33.731S-2324.4-633.22-2324.4-633.22Z" transform="translate(2349.499 669.063)" fill="#abecef"/></g></g><g transform="translate(-2163.954 -707.212)"><g transform="translate(3.121 97.858)"><path d="M-2083.728-519.341s36.26-38.333,24.62-34.077S-2083.728-519.341-2083.728-519.341Z" transform="translate(2083.728 553.748)" fill="#abecef"/></g><g transform="translate(11.977 74.874)"><path d="M-2071.892-550.059s36.26-38.333,24.619-34.077S-2071.892-550.059-2071.892-550.059Z" transform="translate(2071.892 584.466)" fill="#abecef"/></g><g transform="translate(0 89.314)"><path d="M-2084.14-521.767s5.655-52.462-1.034-42.027S-2084.14-521.767-2084.14-521.767Z" transform="translate(2087.9 565.167)" fill="#abecef"/></g><g transform="translate(8.275 66.811)"><path d="M-2073.08-551.843s5.656-52.462-1.033-42.027S-2073.08-551.843-2073.08-551.843Z" transform="translate(2076.84 595.243)" fill="#abecef"/></g><g transform="translate(19.772 51.79)"><path d="M-2061.475-580.91s36.259-38.334,24.619-34.078S-2061.475-580.91-2061.475-580.91Z" transform="translate(2061.475 615.318)" fill="#abecef"/></g><g transform="translate(16.069 43.727)"><path d="M-2062.663-582.694s5.656-52.462-1.033-42.028S-2062.663-582.694-2062.663-582.694Z" transform="translate(2066.423 626.095)" fill="#abecef"/></g><g transform="translate(27.625 25.234)"><path d="M-2050.979-616.4s36.26-38.333,24.62-34.077S-2050.979-616.4-2050.979-616.4Z" transform="translate(2050.979 650.811)" fill="#abecef"/></g><g transform="translate(23.923 17.169)"><path d="M-2052.166-618.188s5.656-52.462-1.033-42.028S-2052.166-618.188-2052.166-618.188Z" transform="translate(2055.926 661.589)" fill="#abecef"/></g><g transform="translate(33.28)"><path d="M-2043.421-642.748s19.166-49.162,9.983-40.838S-2043.421-642.748-2043.421-642.748Z" transform="translate(2043.421 684.536)" fill="#abecef"/></g></g><g transform="translate(-2362.681 -641.716)"><g transform="translate(0 0)" clip-path="url(#b)"><g transform="translate(-1.371 8.312)"><rect width="267.738" height="109.863" rx="20.288" fill="#bcedf2"/></g><g transform="translate(33.67 26.623)"><rect width="2.245" height="104.37" fill="#2b8488"/></g><g transform="translate(73.037 30.285)"><rect width="2.245" height="104.37" fill="#2b8488"/></g><g transform="translate(110.737 29.616)"><rect width="2.245" height="104.37" fill="#2b8488"/></g><g transform="translate(146.363 30.303)"><rect width="2.245" height="107.345" fill="#2b8488"/></g><g transform="translate(186.307 30.364)"><rect width="2.245" height="104.37" fill="#2b8488"/></g><g transform="translate(225.667 29.555)"><rect width="2.245" height="108.841" fill="#2b8488"/></g><g transform="translate(-1.496 57.086)"><rect width="279.835" height="2.245" fill="#2b8488"/></g><g transform="translate(-6.864 91.876)"><rect width="277.197" height="2.245" fill="#2b8488"/></g><g transform="translate(-6.905 66.508)" opacity="0.24"><path d="M-2289.754-500.345l-1.358-4.753-1.507-.753s-.139.178-.332.474a.484.484,0,0,0-.487-.016,6.145,6.145,0,0,0-2.892,3.268l-.186.048a7.924,7.924,0,0,0-1.4-1.01c-.1-.058-.206-.106-.309-.158l-1.175-4.112-1.507-.753s-.139.177-.332.474a.483.483,0,0,0-.487-.016,6.248,6.248,0,0,0-3.189,4.206,7.832,7.832,0,0,0-1.6.934l-1.168-4.091-1.508-.753s-.139.177-.331.474a.485.485,0,0,0-.488-.016,6.264,6.264,0,0,0-3.247,4.412,1.312,1.312,0,0,0,.15.932c.015.026.037.054.054.081a7.818,7.818,0,0,0-3.179,3.082,7.867,7.867,0,0,0,1.352,9.489l-47.844,32.042,5.125,7.652c-3.718,1.246,5.9,6.5,5.9,6.5l47.607-33.874c3.084-2.1,10.987,0,11.668-7.827l-.088-2.255c-.01-.112-.018-.224-.033-.336.562.075,4.557.476,5.957-3.024C-2285.68-492.3-2287.354-497.1-2289.754-500.345Zm-2.807,13.2c.086-.04.165-.1.25-.139-.081.071-.157.144-.243.214C-2292.557-487.1-2292.557-487.121-2292.561-487.145Z" transform="translate(2362.729 508.112)" fill="#66082a"/></g><g transform="translate(237.665 36.166)"><g transform="translate(3.505 8.552)" opacity="0.38"><path d="M-2023.859-536.933a1.061,1.061,0,0,0-1.438-.041s-5.648,2.978-5.876,7.058a3.435,3.435,0,0,0,3.284,3.291,3.623,3.623,0,0,0,3-1.149,3.624,3.624,0,0,0,3,1.149,3.623,3.623,0,0,0,3.28-3.244C-2018.354-532.784-2023.859-536.933-2023.859-536.933Z" transform="translate(2031.176 537.234)" fill="#30096d"/></g><g transform="translate(0.218 5.666)" opacity="0.38"><circle cx="2.615" cy="2.615" r="2.615" fill="#30096d"/></g><g transform="translate(0 4.794)"><circle cx="2.615" cy="2.615" r="2.615" fill="#f99393"/></g><g transform="translate(7.191 0.872)" opacity="0.38"><circle cx="2.615" cy="2.615" r="2.615" fill="#30096d"/></g><g transform="translate(6.973)"><circle cx="2.615" cy="2.615" r="2.615" fill="#f99393"/></g><g transform="translate(13.51 5.448)" opacity="0.38"><circle cx="2.615" cy="2.615" r="2.615" fill="#30096d"/></g><g transform="translate(13.293 4.576)"><circle cx="2.615" cy="2.615" r="2.615" fill="#f99393"/></g><g transform="translate(3.505 7.245)"><path d="M-2023.859-538.68a1.063,1.063,0,0,0-1.438-.041s-5.648,2.979-5.876,7.059a3.434,3.434,0,0,0,3.284,3.29,3.623,3.623,0,0,0,3-1.149,3.623,3.623,0,0,0,3,1.149,3.622,3.622,0,0,0,3.28-3.244C-2018.354-534.532-2023.859-538.68-2023.859-538.68Z" transform="translate(2031.176 538.982)" fill="#f99393"/></g></g><g transform="translate(239.119 64.431)"><g transform="translate(3.505 8.552)" opacity="0.38"><path d="M-2021.914-499.157a1.061,1.061,0,0,0-1.438-.041s-5.647,2.979-5.876,7.059a3.435,3.435,0,0,0,3.284,3.29,3.626,3.626,0,0,0,3-1.148,3.625,3.625,0,0,0,3,1.148,3.622,3.622,0,0,0,3.279-3.244C-2016.409-495.008-2021.914-499.157-2021.914-499.157Z" transform="translate(2029.232 499.458)" fill="#30096d"/></g><g transform="translate(0.218 5.666)" opacity="0.38"><circle cx="2.615" cy="2.615" r="2.615" fill="#30096d"/></g><g transform="translate(0 4.794)"><circle cx="2.615" cy="2.615" r="2.615" fill="#f99393"/></g><g transform="translate(7.191 0.872)" opacity="0.38"><circle cx="2.615" cy="2.615" r="2.615" fill="#30096d"/></g><g transform="translate(6.973)"><circle cx="2.615" cy="2.615" r="2.615" fill="#f99393"/></g><g transform="translate(13.51 5.448)" opacity="0.38"><circle cx="2.615" cy="2.615" r="2.615" fill="#30096d"/></g><g transform="translate(13.293 4.576)"><circle cx="2.615" cy="2.615" r="2.615" fill="#f99393"/></g><g transform="translate(3.505 7.245)"><path d="M-2021.914-500.9a1.061,1.061,0,0,0-1.438-.041s-5.647,2.978-5.876,7.058a3.436,3.436,0,0,0,3.284,3.291,3.625,3.625,0,0,0,3-1.149,3.626,3.626,0,0,0,3,1.149,3.622,3.622,0,0,0,3.279-3.244C-2016.409-496.756-2021.914-500.9-2021.914-500.9Z" transform="translate(2029.232 501.205)" fill="#f99393"/></g></g><g transform="translate(197.512 34.502)"><g transform="translate(3.505 8.552)" opacity="0.38"><path d="M-2077.523-539.157a1.06,1.06,0,0,0-1.437-.041s-5.648,2.979-5.876,7.059a3.434,3.434,0,0,0,3.284,3.29,3.624,3.624,0,0,0,3-1.149,3.627,3.627,0,0,0,3,1.149,3.623,3.623,0,0,0,3.28-3.244C-2072.018-535.008-2077.523-539.157-2077.523-539.157Z" transform="translate(2084.841 539.458)" fill="#30096d"/></g><g transform="translate(0.218 5.666)" opacity="0.38"><circle cx="2.615" cy="2.615" r="2.615" fill="#30096d"/></g><g transform="translate(0 4.794)"><circle cx="2.615" cy="2.615" r="2.615" fill="#f99393"/></g><g transform="translate(7.191 0.872)" opacity="0.38"><circle cx="2.615" cy="2.615" r="2.615" fill="#30096d"/></g><g transform="translate(6.973)"><circle cx="2.615" cy="2.615" r="2.615" fill="#f99393"/></g><g transform="translate(13.511 5.448)" opacity="0.38"><circle cx="2.615" cy="2.615" r="2.615" fill="#30096d"/></g><g transform="translate(13.293 4.576)"><circle cx="2.615" cy="2.615" r="2.615" fill="#f99393"/></g><g transform="translate(3.505 7.245)"><path d="M-2077.523-540.9a1.061,1.061,0,0,0-1.437-.041s-5.648,2.978-5.876,7.058a3.434,3.434,0,0,0,3.284,3.291,3.623,3.623,0,0,0,3-1.149,3.627,3.627,0,0,0,3,1.149,3.624,3.624,0,0,0,3.28-3.244C-2072.018-536.756-2077.523-540.9-2077.523-540.9Z" transform="translate(2084.841 541.205)" fill="#f99393"/></g></g><g transform="translate(5.963 62.395)"><g transform="translate(3.505 8.552)" opacity="0.38"><path d="M-2333.528-501.878a1.061,1.061,0,0,0-1.437-.042s-5.648,2.979-5.876,7.059a3.434,3.434,0,0,0,3.284,3.29,3.623,3.623,0,0,0,3-1.149,3.625,3.625,0,0,0,3,1.149,3.622,3.622,0,0,0,3.28-3.243C-2328.023-497.73-2333.528-501.878-2333.528-501.878Z" transform="translate(2340.846 502.18)" fill="#30096d"/></g><g transform="translate(0.218 5.666)" opacity="0.38"><circle cx="2.615" cy="2.615" r="2.615" fill="#30096d"/></g><g transform="translate(0 4.794)"><circle cx="2.615" cy="2.615" r="2.615" fill="#f99393"/></g><g transform="translate(7.191 0.872)" opacity="0.38"><circle cx="2.615" cy="2.615" r="2.615" fill="#30096d"/></g><g transform="translate(6.973)"><circle cx="2.615" cy="2.615" r="2.615" fill="#f99393"/></g><g transform="translate(13.511 5.448)" opacity="0.38"><circle cx="2.615" cy="2.615" r="2.615" fill="#30096d"/></g><g transform="translate(13.293 4.576)"><circle cx="2.615" cy="2.615" r="2.615" fill="#f99393"/></g><g transform="translate(3.505 7.244)"><path d="M-2333.528-503.626a1.06,1.06,0,0,0-1.437-.041s-5.648,2.979-5.876,7.059a3.434,3.434,0,0,0,3.284,3.29,3.625,3.625,0,0,0,3-1.149,3.627,3.627,0,0,0,3,1.149,3.622,3.622,0,0,0,3.28-3.244C-2328.023-499.477-2333.528-503.626-2333.528-503.626Z" transform="translate(2340.846 503.927)" fill="#f99393"/></g></g><g transform="translate(-12.358 0.988)" opacity="0.38"><rect width="285.81" height="34.79" fill="#30096d"/></g><g transform="translate(-10.465 -2.674)"><rect width="285.81" height="34.79" fill="#2b8488"/></g><g transform="translate(-6.905 60.497)"><g transform="translate(0 3.609)"><g clip-path="url(#c)"><path d="M-2292-508.352a7.835,7.835,0,0,0-4.566-.985,7.957,7.957,0,0,0-1.354-.969,7.872,7.872,0,0,0-9.173,1.04,7.871,7.871,0,0,0-9.148,3.655,7.867,7.867,0,0,0,1.352,9.489l-47.844,32.042,10.063,15.026,52.135-34.631c.128-.018.255-.027.383-.051a9.412,9.412,0,0,0,7.586-10.626,7.828,7.828,0,0,0,3.549-3.265A7.871,7.871,0,0,0-2292-508.352Z" transform="translate(2362.729 511.323)" fill="#ef583f"/><g transform="translate(60.556 2.021)" opacity="0.38"><path d="M-2276.008-508.621s-9.042.753-4.521,8.289A9.943,9.943,0,0,1-2276.008-508.621Z" transform="translate(2281.795 508.621)" fill="#66082a"/></g><g transform="translate(50.677 2.021)" opacity="0.38"><path d="M-2289.882-508.621s-8.289.753-3.768,8.289C-2293.65-500.332-2294.58-505.74-2289.882-508.621Z" transform="translate(2294.999 508.621)" fill="#66082a"/></g><g transform="translate(67.85 0.464)" opacity="0.38"><path d="M-2272.047-510.652s9.8,10.549,2.26,16.577c0,0,4.521.753,6.028-3.014S-2267.822-511.527-2272.047-510.652Z" transform="translate(2272.047 510.703)" fill="#66082a"/></g><g transform="translate(4.292 17.091)" opacity="0.38"><path d="M-2291.174-488.48s-9.042,11.3-15.07,8.289a43.251,43.251,0,0,1-6.635,5.576c-11.283,7.238-37.633,23.811-42.344,23.811-6.029,0,5.274,11.3,5.274,11.3l61.035-41.443Z" transform="translate(2356.993 488.48)" fill="#66082a"/></g></g></g><g transform="translate(66.015 2.261)"><g clip-path="url(#d)"><path d="M-2274.321-507.72c.391.675,1.366,1.641,3.548.625a.953.953,0,0,0,.5-1.133,8.223,8.223,0,0,1-.236-4.23.508.508,0,0,0-.716-.607,6.264,6.264,0,0,0-3.248,4.412A1.322,1.322,0,0,0-2274.321-507.72Z" transform="translate(2274.5 513.124)" fill="#ffd7e7"/><g transform="translate(2.502 -0.398)" opacity="0.24"><path d="M-2269.562-513.656s-3.014,3.767-.754,6.781l3.768-.753-1.507-5.274Z" transform="translate(2271.156 513.656)" fill="#66082a"/></g></g></g><g transform="translate(57.727)"><g clip-path="url(#e)"><path d="M-2285.4-510.741c.39.675,1.365,1.641,3.547.624a.951.951,0,0,0,.5-1.132,8.224,8.224,0,0,1-.236-4.23.508.508,0,0,0-.716-.607,6.267,6.267,0,0,0-3.248,4.413A1.316,1.316,0,0,0-2285.4-510.741Z" transform="translate(2285.577 516.145)" fill="#ffd7e7"/><g transform="translate(2.501 -0.398)" opacity="0.24"><path d="M-2280.641-516.678s-3.014,3.768-.753,6.782l3.767-.753-1.507-5.275Z" transform="translate(2282.234 516.678)" fill="#66082a"/></g></g></g><g transform="translate(49.438 0.754)"><g clip-path="url(#f)"><path d="M-2296.476-509.734c.39.675,1.366,1.641,3.547.624a.951.951,0,0,0,.5-1.132,8.23,8.23,0,0,1-.236-4.23.508.508,0,0,0-.716-.607,6.262,6.262,0,0,0-3.247,4.412A1.314,1.314,0,0,0-2296.476-509.734Z" transform="translate(2296.655 515.138)" fill="#ffd7e7"/><g transform="translate(2.501 -0.399)" opacity="0.24"><path d="M-2291.719-515.671s-3.014,3.768-.753,6.782l3.768-.753-1.507-5.275Z" transform="translate(2293.313 515.671)" fill="#66082a"/></g></g></g></g><g transform="translate(-1.371 8.312)"><rect width="109.863" height="109.863" rx="20.288" fill="none"/></g><g transform="translate(83.269 108.956)"><path d="M-2240.894-451.38l-1.317,3.039,1.418,2.33,1.418-2.533Z" transform="translate(2242.21 451.38)" fill="#fff"/></g><g transform="translate(84.009 96.784)"><path d="M-2238.041-467.648l-3.18,7.338,3.425,5.626,3.424-6.115Z" transform="translate(2241.221 467.648)" fill="#8884f2"/></g><g transform="translate(11.683 97.017)"><path d="M-2335.212-467.337l-2.674,6.17,2.879,4.73,2.88-5.141Z" transform="translate(2337.886 467.337)" fill="#8884f2"/></g><g transform="translate(8.021 106.892)"><path d="M-2340.957-454.139l-1.823,4.208,1.964,3.226,1.964-3.507Z" transform="translate(2342.78 454.139)" fill="#bcedf2"/></g><g transform="translate(56.841 77.976)"><path d="M-2267.05-487.677h-4.469l3.16-3.16a.265.265,0,0,0,0-.375.265.265,0,0,0-.375,0l-3.16,3.16v-4.468a.265.265,0,0,0-.265-.265.264.264,0,0,0-.265.265v4.468l-3.16-3.16a.265.265,0,0,0-.375,0,.264.264,0,0,0,0,.375l3.16,3.16h-4.468a.265.265,0,0,0-.266.265.266.266,0,0,0,.266.266h4.468l-3.16,3.159a.264.264,0,0,0,0,.375.262.262,0,0,0,.187.078.262.262,0,0,0,.188-.078l3.16-3.159v4.468a.265.265,0,0,0,.265.265.265.265,0,0,0,.265-.265v-4.468l3.16,3.159a.262.262,0,0,0,.188.078.261.261,0,0,0,.187-.078.266.266,0,0,0,0-.375l-3.16-3.159h4.469a.265.265,0,0,0,.265-.266A.265.265,0,0,0-2267.05-487.677Z" transform="translate(2277.532 492.785)" fill="#fff"/></g></g></g><g transform="translate(-2183.108 -507.784)" opacity="0.21"><ellipse cx="56.865" cy="12.208" rx="56.865" ry="12.208" transform="translate(0 0)" fill="#1c0233"/></g><g transform="translate(-2192.845 -579.613)"><g transform="translate(51.433 12.689)"><path d="M-2026.808-462.788a5.192,5.192,0,0,1-7.017-1.478c-7.332-10.694-15.76-20.662-18.836-22.334a5.2,5.2,0,0,1-5-4.128,5.193,5.193,0,0,1,4.017-6.147c4-.839,8.521,1.158,18.649,13.689,5.153,6.376,9.551,12.78,9.736,13.049a5.192,5.192,0,0,1-1.348,7.218C-2026.673-462.874-2026.74-462.83-2026.808-462.788Zm-24.711-23.921,0,0Z" transform="translate(2057.773 497.042)" fill="#ffe8a9"/></g><g transform="translate(40.231 39.16)"><path d="M-2046.932-438.175a5.192,5.192,0,0,1-5.529-.03,5.193,5.193,0,0,1-1.6-7.162,22.507,22.507,0,0,0,2.257-4.786c-4.289.262-9.006,3.132-10.465,4.244a5.189,5.189,0,0,1-4.541.868,5.194,5.194,0,0,1-3.433-3.1l-1.935-4.91c-1.052-2.667-.768-7.366,1.9-8.418,2.411-.95,6.133,1.711,7.406,3.877,3.605-1.743,8.518-3.386,13.609-2.874a8.526,8.526,0,0,1,7.225,4.715c2.692,5.547-1.379,13-3.255,15.948A5.166,5.166,0,0,1-2046.932-438.175Zm-3.259-11.938h0Z" transform="translate(2072.745 461.663)" fill="#ffe8a9"/></g><g transform="translate(0 27.166)"><path d="M-2070.488-424.327a5.171,5.171,0,0,1-1.845.7c-8.615,1.5-24.382,2.623-33.18-6.768-4.445-4.745-5.647-10.908-6.707-16.345l-.215-1.1c-1.489-7.509-3.3-12.838-5.877-17.28a7.5,7.5,0,0,0-1.667-2.093,5.192,5.192,0,0,1-6.228-3.264,5.191,5.191,0,0,1,3.134-6.64c5.084-1.823,10.222.714,13.744,6.786,3.176,5.476,5.359,11.79,7.08,20.472l.221,1.128c.869,4.457,1.69,8.667,4.093,11.232,3.93,4.194,12.834,5.554,23.818,3.638a5.191,5.191,0,0,1,6.007,4.223A5.193,5.193,0,0,1-2070.488-424.327Z" transform="translate(2126.513 477.693)" fill="#fff8b6"/></g><g transform="translate(83.672 3.649)"><path d="M-2011.522-497.454s7.067-6.26,10.861-5.963c0,0-3.529-5.847-11.946-5.7a2.12,2.12,0,0,0-1.962,2.809Z" transform="translate(2014.686 509.123)" fill="#ffe8a9"/></g><g transform="translate(45.302 6.693)"><path d="M-2047.112-423.487c-13.257-4.078-20.48-10.623-18.543-21.825,2.278-13.17,11.467-18.226,21.175-18.7,10.537-.51,11.505-4.653,11.593-10.572.2-13.868,5.7-26.919,19.256-29.843s22.889,4.471,25.813,18.031c4.67,21.665,2.388,39.243-18.136,54.029C-2007.323-431.375-2023.769-416.307-2047.112-423.487Z" transform="translate(2065.967 505.055)" fill="#fff8b6"/></g><g transform="translate(86.493 13.219)"><circle cx="1.416" cy="1.416" r="1.416" fill="#2b0c0c"/></g><g transform="translate(90.723 17.782)"><path d="M-2005.262-486.641s.469,7.056,3.222,7.014,4.885-8.8,4.885-8.8-3.156-.052-4.8-1.809Z" transform="translate(2005.262 490.234)" fill="#ed3b3b"/></g><g transform="translate(91.476 21.928)"><path d="M-1997.684-484.614s-6.156-.955-6.571,3.747c0,0,.688,3.307,2.868,2.587C-2001.387-478.279-1999.549-478.681-1997.684-484.614Z" transform="translate(2004.255 484.693)" fill="#ff7171"/></g><g transform="translate(88.073 15.105)"><path d="M-1997.576-489.232a1.974,1.974,0,0,1-.45.2c-1.64.516-4.089-.918-5.048-1.546a21.581,21.581,0,0,1-3.515,3.7,1.032,1.032,0,0,1-1.031.084c-.894-.445-1.131-2.292-1.182-2.848a.472.472,0,0,1,.427-.513.472.472,0,0,1,.513.426c.082.871.382,1.95.662,2.089.025.013.1-.031.112-.04a23.392,23.392,0,0,0,3.541-3.828.473.473,0,0,1,.648-.1c.842.6,3.308,2.072,4.59,1.668a1.055,1.055,0,0,0,.693-.722l1.01-2.849a.472.472,0,0,1,.6-.287.472.472,0,0,1,.287.6l-1.009,2.848A2.074,2.074,0,0,1-1997.576-489.232Z" transform="translate(2008.804 493.813)" fill="#2b0c0c"/></g><g transform="translate(98.846 13.749)"><path d="M-1991.084-494.142a2.275,2.275,0,0,1-3.25-.761.472.472,0,0,1,.153-.65.472.472,0,0,1,.649.15,1.346,1.346,0,0,0,1.951.459.472.472,0,0,1,.65.152A.472.472,0,0,1-1991.084-494.142Zm-2.448-1.258,0,0Z" transform="translate(1994.405 495.624)" fill="#2b0c0c"/></g><g transform="translate(86.784 17.117)"><path d="M-2008.187-489.208a2.139,2.139,0,0,1-.83.3A2.8,2.8,0,0,1-2010.2-489a.472.472,0,0,1-.3-.6.471.471,0,0,1,.594-.3,1.347,1.347,0,0,0,1.791-.9.471.471,0,0,1,.6-.3.472.472,0,0,1,.3.6A2.334,2.334,0,0,1-2008.187-489.208Z" transform="translate(2010.527 491.123)" fill="#2b0c0c"/></g><g transform="translate(91.209 13.581)"><path d="M-2004.119-494.661l2.542-1.116a.824.824,0,0,1,1.06,1.141l-1.277,2.409a.824.824,0,0,1-1.317.19l-1.265-1.294A.824.824,0,0,1-2004.119-494.661Z" transform="translate(2004.613 495.849)" fill="#f99393"/></g><g transform="translate(105.558)"><path d="M-1985.435-505.419s9.276,1.751,11.366,4.931a13.645,13.645,0,0,0-2.512-12.554,2.416,2.416,0,0,0-3.946.132Z" transform="translate(1985.435 514)" fill="#fff8b6"/></g><g transform="translate(81.843 39.762)"><path d="M-1988.8-453.691c-4.15-1.172-8.255-2.471-12.352-3.792l-3.064-1.014c-.5-.162-1.042-.357-1.511-.491a6.176,6.176,0,0,0-1.4-.236,5.718,5.718,0,0,0-4.865,2.3l-.2.281-.177.3c-.118.182-.247.451-.367.673-.242.468-.477.938-.7,1.413a26.221,26.221,0,0,0-1.173,2.884,12.215,12.215,0,0,0-.649,2.9,4.447,4.447,0,0,0,.086,1.319,2.1,2.1,0,0,0,.514.977,2.061,2.061,0,0,0,.443.327,1.8,1.8,0,0,0,.284.138c.1.041.206.1.311.128a3.492,3.492,0,0,0,1.252.224,3.7,3.7,0,0,0,2.364-1.018,13.138,13.138,0,0,0,3.185-5.068l.02-.052a.662.662,0,0,1,.854-.387l.049.021c1.076.507,2.142,1.036,3.211,1.559s2.139,1.043,3.2,1.582c2.129,1.065,4.252,2.146,6.354,3.274-2.245-.8-4.47-1.656-6.688-2.522-1.112-.426-2.215-.874-3.319-1.316s-2.212-.88-3.309-1.339l.922-.418a17.422,17.422,0,0,1-1.3,3.119,10.642,10.642,0,0,1-2.073,2.78,5.415,5.415,0,0,1-3.408,1.547,5.116,5.116,0,0,1-1.914-.278c-.153-.046-.291-.115-.436-.173a3.388,3.388,0,0,1-.442-.21,3.894,3.894,0,0,1-.853-.625,3.94,3.94,0,0,1-1.013-1.82,6.275,6.275,0,0,1-.156-1.885,12.833,12.833,0,0,1,.727-3.386,28.3,28.3,0,0,1,1.288-3.077q.359-.745.748-1.47c.137-.249.241-.466.412-.739l.24-.391.273-.369a7.4,7.4,0,0,1,6.415-2.813,7.019,7.019,0,0,1,1.76.383c.555.194,1.017.392,1.53.588l3,1.181C-1996.727-457.073-1992.741-455.445-1988.8-453.691Z" transform="translate(2017.13 460.858)" fill="#f7c57c"/></g><g transform="translate(45.17 51.302)"><path d="M-2024.489-424.765c-.15-1-.342-2-.556-2.989s-.434-1.975-.7-2.95a41.933,41.933,0,0,0-1.906-5.715,23.343,23.343,0,0,0-1.306-2.674,13.924,13.924,0,0,0-1.678-2.387,8.531,8.531,0,0,0-2.146-1.792,5.246,5.246,0,0,0-2.573-.664l-.334,0c-.112,0-.225.028-.336.041a6.593,6.593,0,0,0-.67.1l-.664.183a7.03,7.03,0,0,0-.682.248l-1.377.523-1.333.63a27.632,27.632,0,0,0-4.97,3.158,33.349,33.349,0,0,0-4.289,4.059c-.661.731-1.269,1.51-1.859,2.3a27.92,27.92,0,0,0-1.6,2.428l-.005.009a.951.951,0,0,1-1.3.348.98.98,0,0,1-.324-.308,23.549,23.549,0,0,0-3.549-4.367,9.408,9.408,0,0,0-2.158-1.564,2.918,2.918,0,0,0-2.171-.3,2.336,2.336,0,0,0-.885.53,2.171,2.171,0,0,0-.485.9,6.171,6.171,0,0,0,.027,2.55,21.166,21.166,0,0,0,1.937,5.3,28.436,28.436,0,0,0,3.078,4.84,13.2,13.2,0,0,0,.935,1.056,5.725,5.725,0,0,0,1.025.858,1.693,1.693,0,0,0,.492.223,1.64,1.64,0,0,0,.257.021c.1-.014.192-.01.3-.034a5.352,5.352,0,0,0,1.267-.439,27.44,27.44,0,0,0,4.813-3.218q2.294-1.829,4.468-3.828c-1.31,1.467-2.684,2.879-4.132,4.219q-1.082,1.011-2.249,1.939a18.448,18.448,0,0,1-2.485,1.7,5.848,5.848,0,0,1-1.48.6,3.923,3.923,0,0,1-.433.071,2.611,2.611,0,0,1-.476-.012,2.625,2.625,0,0,1-.869-.316,6.7,6.7,0,0,1-1.283-.958,14.327,14.327,0,0,1-1.075-1.094,27.807,27.807,0,0,1-3.437-4.949,21.05,21.05,0,0,1-2.259-5.664,7.73,7.73,0,0,1-.071-3.293,3.9,3.9,0,0,1,.872-1.674l.365-.339a4.115,4.115,0,0,1,.38-.268,2.483,2.483,0,0,1,.406-.227,2.649,2.649,0,0,1,.437-.183,3.91,3.91,0,0,1,1.862-.177,5.875,5.875,0,0,1,1.666.522,11.173,11.173,0,0,1,2.616,1.85,25.3,25.3,0,0,1,3.9,4.724l-1.628.049a30.582,30.582,0,0,1,3.735-5.057,34.037,34.037,0,0,1,4.57-4.251,29.376,29.376,0,0,1,5.349-3.236l1.432-.637,1.477-.525a7.749,7.749,0,0,1,.755-.243l.81-.191a8.108,8.108,0,0,1,.835-.1c.14-.01.278-.032.42-.032l.426.018a6.7,6.7,0,0,1,3.218.958,9.381,9.381,0,0,1,2.417,2.179,15.136,15.136,0,0,1,1.683,2.669,23.769,23.769,0,0,1,1.217,2.854,40.109,40.109,0,0,1,1.549,5.938A48.357,48.357,0,0,1-2024.489-424.765Z" transform="translate(2066.144 445.435)" fill="#f7c57c"/></g><g transform="translate(45.302 6.693)"><g clip-path="url(#g)"><g transform="translate(6.078 5.056)" opacity="0.19"><path d="M-1992.037-497.469s13.867,67.813-65.806,69.323l16.439,18.53,66.411-20.1-7.2-48.307-3.137-20.275Z" transform="translate(2057.843 498.298)" fill="#5e041c"/></g></g></g><g transform="translate(79.439 67.368)" opacity="0.51"><g transform="translate(0 0)"><ellipse cx="13.453" cy="5.192" rx="13.453" ry="5.192" transform="translate(0 14.187) rotate(-31.822)" fill="#ed3b3b"/></g></g><g transform="translate(96.668 56.594)" opacity="0.51"><g transform="translate(0 0)"><ellipse cx="7.552" cy="2.915" rx="7.552" ry="2.915" transform="translate(0 7.964) rotate(-31.822)" fill="#ed3b3b"/></g></g><g transform="translate(97.093 5.437)" opacity="0.51"><g transform="translate(0 0)"><ellipse cx="3.722" cy="2.915" rx="3.722" ry="2.915" transform="translate(0 6.2) rotate(-56.395)" fill="#ed3b3b"/></g></g><g transform="translate(100.116 9.21)"><circle cx="1.416" cy="1.416" r="1.416" fill="#2b0c0c"/></g><g transform="translate(108.35 2.454)" opacity="0.51"><path d="M-1981.7-506.779a11.413,11.413,0,0,1,5.3,2.269l-1.631-6.209Z" transform="translate(1981.703 510.72)" fill="#ed3b3b"/></g><g transform="translate(85.982 6.004)" opacity="0.51"><path d="M-2010.371-500.735a11.412,11.412,0,0,1,4.837-3.131l-6.064-2.109Z" transform="translate(2011.598 505.976)" fill="#ed3b3b"/></g><g transform="translate(105.7 32.426)"><path d="M-1984.161-468.417a1.123,1.123,0,0,0,0-2.245,1.123,1.123,0,0,0,0,2.245Z" transform="translate(1985.245 470.662)" fill="#fff8b6"/></g></g></g></svg>