<svg xmlns="http://www.w3.org/2000/svg" xmlns:xlink="http://www.w3.org/1999/xlink" width="298.073" height="242.192" viewBox="0 0 298.073 242.192"><defs><clipPath id="a"><path d="M-1465.464,266.731c-11.963-13.723-15.49-26.022-5.576-37.175,11.656-13.112,25.4-12.392,36.555-6.2,12.1,6.725,16.052,2.773,20.246-3.767,9.826-15.325,24.986-26.078,42.13-19.957s22.433,20.828,16.31,37.974c-9.784,27.4-24.5,45.421-57.62,47.708C-1415.627,285.471-1444.4,290.895-1465.464,266.731Z" transform="translate(1476.805 -197.89)" fill="none"/></clipPath></defs><g transform="translate(0 9.37)"><path d="M-1564.981,182.614s-57,10.533-30.979,33.457,157.992,0,171.623,17.968,105.328,3.717,102.85-17.968-75.931-21.765-62.748-87.09S-1420-1.4-1475.762,25.241s-55.762,37.794-73.73,24.164c-14.438-10.954-66.884-3.9-69.891,27.259a28.329,28.329,0,0,0,21.474,29.957c15.89,3.976,40.2,12.958,41.012,30.813C-1555.688,164.027-1555.068,180.755-1564.981,182.614Z" transform="translate(1619.511 -19.12)" fill="#8884f2"/></g><ellipse cx="54.833" cy="11.772" rx="54.833" ry="11.772" transform="translate(95.422 187.734)" fill="#1c0233" opacity="0.21"/><g transform="translate(170.981 16.93)"><g transform="translate(0)"><path d="M-1339.3,31.322l-4.245,9.8,4.572,7.51,4.571-8.163Z" transform="translate(1343.548 -31.322)" fill="#bcedf2"/></g></g><g transform="translate(180.894 29.941)"><g transform="translate(0 0)"><path d="M-1324.557,52.322l-2.991,6.9,3.22,5.291,3.221-5.751Z" transform="translate(1327.548 -52.322)" fill="#fff"/></g></g><g transform="translate(123.886 40.515)"><g transform="translate(0 0)"><path d="M-1325.631,52.322l-1.917,4.423,2.064,3.391,2.064-3.686Z" transform="translate(1327.548 -52.322)" fill="#fff"/></g></g><g transform="translate(251.534 51.009)"><g transform="translate(0 0)"><path d="M-1324.557,52.322l-2.991,6.9,3.22,5.291,3.221-5.751Z" transform="translate(1327.548 -52.322)" fill="#ff85a8"/></g></g><g transform="translate(257.731 59.684)"><g transform="translate(0 0)"><path d="M-1324.557,52.322l-2.991,6.9,3.22,5.291,3.221-5.751Z" transform="translate(1327.548 -52.322)" fill="#44bfbc"/></g></g><g transform="translate(45.81 29.941)"><g transform="translate(0 0)"><path d="M-1324.557,52.322l-2.991,6.9,3.22,5.291,3.221-5.751Z" transform="translate(1327.548 -52.322)" fill="#ff85a8"/></g></g><g transform="translate(43.332 60.923)"><g transform="translate(173.502 0)"><path d="M-1324.557,52.322l-2.991,6.9,3.22,5.291,3.221-5.751Z" transform="translate(1327.548 -52.322)" fill="#ffdb12"/></g><g transform="translate(219.356 70.64)"><path d="M-1324.557,52.322l-2.991,6.9,3.22,5.291,3.221-5.751Z" transform="translate(1327.548 -52.322)" fill="#ffdb12"/></g><g transform="translate(0 105.341)"><path d="M-1324.557,52.322l-2.991,6.9,3.22,5.291,3.221-5.751Z" transform="translate(1327.548 -52.322)" fill="#ffdb12"/></g></g><g transform="translate(169.122 86.322)"><g transform="translate(0)"><path d="M-1344.247,143.322l-2.3,5.309,2.478,4.07,2.477-4.424Z" transform="translate(1346.548 -143.322)" fill="#bcedf2"/></g></g><g transform="translate(68.062 63.223)"><g transform="translate(0)"><path d="M-1507.358,106.038l-2.3,5.309,2.478,4.07,2.477-4.424Z" transform="translate(1509.659 -106.038)" fill="#f99293"/></g></g><g transform="translate(60.845 54.636)"><path d="M-1519.291,92.18l-2.015,6.949,3.717,4.657,2.374-5.88Z" transform="translate(1521.306 -92.18)" fill="#fff"/></g><g transform="translate(183.229 68.859)"><path d="M-1316.95,121.045l-2.531-1.958,3.175-.4a.19.19,0,0,0,.164-.213.189.189,0,0,0-.212-.164l-3.175.4,1.959-2.531a.191.191,0,0,0-.034-.266.19.19,0,0,0-.266.034l-1.959,2.531-.4-3.175a.19.19,0,0,0-.212-.165.191.191,0,0,0-.165.213l.4,3.175-2.531-1.959a.19.19,0,0,0-.266.034.19.19,0,0,0,.034.266l2.531,1.958-3.176.4a.19.19,0,0,0-.164.213.191.191,0,0,0,.072.126.189.189,0,0,0,.141.038l3.175-.4-1.959,2.531a.19.19,0,0,0,.034.266.19.19,0,0,0,.267-.034l1.959-2.531.4,3.175a.189.189,0,0,0,.072.126.193.193,0,0,0,.141.038.19.19,0,0,0,.164-.212l-.4-3.175,2.531,1.959a.189.189,0,0,0,.266-.034A.19.19,0,0,0-1316.95,121.045Z" transform="translate(1323.78 -115.136)" fill="#fff"/></g><g transform="translate(243.466 204.425)"><path d="M-1192.793,363.153l-12.513-9.685,15.7-2a.939.939,0,0,0,.813-1.05.938.938,0,0,0-1.05-.812l-15.7,2,9.685-12.513a.939.939,0,0,0-.168-1.317.939.939,0,0,0-1.317.168l-9.685,12.513-2-15.7a.938.938,0,0,0-1.049-.812.938.938,0,0,0-.813,1.05l2,15.7-12.513-9.685a.94.94,0,0,0-1.317.168.939.939,0,0,0,.168,1.317l12.513,9.685-15.7,2a.939.939,0,0,0-.813,1.05.934.934,0,0,0,.357.623.933.933,0,0,0,.693.189l15.7-2-9.686,12.513a.938.938,0,0,0,.168,1.317A.939.939,0,0,0-1218,367.7l9.684-12.513,2,15.7a.937.937,0,0,0,.356.624.936.936,0,0,0,.693.188.938.938,0,0,0,.813-1.049l-2-15.7,12.513,9.685a.939.939,0,0,0,1.317-.167A.939.939,0,0,0-1192.793,363.153Z" transform="translate(1226.556 -333.939)" fill="#fff"/></g><g transform="translate(124.493 42.994)"><path d="M-1214.663,344.23l-4.408-3.412,5.529-.7a.331.331,0,0,0,.286-.37.33.33,0,0,0-.37-.286l-5.529.7,3.411-4.408a.331.331,0,0,0-.059-.464.331.331,0,0,0-.464.059l-3.411,4.408-.7-5.529a.33.33,0,0,0-.37-.286.331.331,0,0,0-.286.37l.7,5.529-4.408-3.412a.331.331,0,0,0-.464.059.331.331,0,0,0,.059.464l4.408,3.412-5.529.7a.331.331,0,0,0-.286.37.329.329,0,0,0,.126.22.329.329,0,0,0,.244.067l5.529-.7-3.412,4.408a.33.33,0,0,0,.059.464.331.331,0,0,0,.464-.059l3.411-4.408.7,5.529a.33.33,0,0,0,.125.22.33.33,0,0,0,.244.066.33.33,0,0,0,.286-.37l-.7-5.529,4.408,3.411a.331.331,0,0,0,.464-.059A.331.331,0,0,0-1214.663,344.23Z" transform="translate(1226.556 -333.939)" fill="#fff"/></g><g transform="translate(183.732 37.933)"><g transform="translate(41.374 69.417)"><path d="M-1256.188,218.828s15.071-51.638,23.63-39.807S-1256.188,218.828-1256.188,218.828Z" transform="translate(1256.188 -177.26)" fill="#abecef"/></g><g transform="translate(35.923 22.058)"><path d="M-1264.986,145.612s9.081-54.313,19.211-43.321S-1264.986,145.612-1264.986,145.612Z" transform="translate(1264.986 -100.822)" fill="#abecef"/></g><g transform="translate(41.532 41.835)"><path d="M-1255.933,176.035s13.523-53.381,22.713-41.592S-1255.933,176.035-1255.933,176.035Z" transform="translate(1255.933 -132.743)" fill="#abecef"/></g><g transform="translate(0.517 44.742)"><path d="M-1287.342,167.669s-31.26-41-34.583-27.509S-1287.342,167.669-1287.342,167.669Z" transform="translate(1322.131 -137.435)" fill="#abecef"/></g><g transform="translate(0.362 72.002)"><path d="M-1280.716,200.006s-42.875-28.634-41.639-14.794S-1280.716,200.006-1280.716,200.006Z" transform="translate(1322.381 -181.433)" fill="#abecef"/></g><g transform="translate(0 95.438)"><path d="M-1280.853,231.307s-45.226-20.773-41.943-7.768S-1280.853,231.307-1280.853,231.307Z" transform="translate(1322.966 -219.258)" fill="#abecef"/></g><g transform="translate(7.287)"><path d="M-1288.515,122s-6.355-68-19.555-55.17S-1288.515,122-1288.515,122Z" transform="translate(1311.205 -65.221)" fill="#abecef"/></g><g transform="translate(26.38 41.971)"><path d="M-1272.954,215.985a34.849,34.849,0,0,0,5.211-9.5,38.521,38.521,0,0,0,2.237-10.363,42.737,42.737,0,0,0-.557-10.494c-.161-.863-.325-1.726-.522-2.583-.223-.852-.4-1.712-.67-2.553-.241-.847-.483-1.693-.782-2.525l-.425-1.254-.473-1.29q-3.725-10.344-7.127-20.786c-1.137-3.487-2.257-6.949-3.358-10.482a17.912,17.912,0,0,1-.681-2.833c-.121-.983-.14-1.911-.169-2.83-.039-1.843-.11-3.68-.119-5.535.27.887.51,1.779.758,2.672l.668,2.691c.212.9.411,1.8.661,2.61a19.358,19.358,0,0,0,1.023,2.394c1.61,3.286,3.165,6.657,4.593,10.046,2.87,6.786,5.431,13.68,7.8,20.634l.441,1.305.425,1.363c.3.9.539,1.827.777,2.752a50.12,50.12,0,0,1,1.062,5.631,40.482,40.482,0,0,1-.19,11.451,34.932,34.932,0,0,1-3.616,10.773,31.61,31.61,0,0,1-3.08,4.717A23.224,23.224,0,0,1-1272.954,215.985Z" transform="translate(1280.389 -132.962)" fill="#abecef"/></g></g><g transform="translate(256.843 136.929)"><g transform="translate(0 37.149)"><path d="M-1191.546,307.2s-8.066-27.634-12.646-21.3S-1191.546,307.2-1191.546,307.2Z" transform="translate(1204.966 -284.958)" fill="#ff85a8"/></g><g transform="translate(4.918 11.804)"><path d="M-1185.609,268.021s-4.859-29.066-10.28-23.183S-1185.609,268.021-1185.609,268.021Z" transform="translate(1197.028 -244.051)" fill="#ff85a8"/></g><g transform="translate(0.291 22.388)"><path d="M-1191.453,284.3s-7.237-28.567-12.155-22.258S-1191.453,284.3-1191.453,284.3Z" transform="translate(1204.497 -261.134)" fill="#ff85a8"/></g><g transform="translate(16.667 23.944)"><path d="M-1178.066,279.825s16.728-21.942,18.508-14.721S-1178.066,279.825-1178.066,279.825Z" transform="translate(1178.066 -263.645)" fill="#ff85a8"/></g><g transform="translate(13.07 38.533)"><path d="M-1183.871,297.13s22.945-15.323,22.283-7.917S-1183.871,297.13-1183.871,297.13Z" transform="translate(1183.871 -287.191)" fill="#ff85a8"/></g><g transform="translate(13.024 51.074)"><path d="M-1183.945,313.881s24.2-11.116,22.446-4.157S-1183.945,313.881-1183.945,313.881Z" transform="translate(1183.945 -307.433)" fill="#ff85a8"/></g><g transform="translate(19.519)"><path d="M-1173.462,255.387s3.4-36.389,10.465-29.525S-1173.462,255.387-1173.462,255.387Z" transform="translate(1173.462 -225)" fill="#ff85a8"/></g><g transform="translate(11.53 22.461)"><path d="M-1180.422,305.682a18.67,18.67,0,0,1-2.789-5.081,20.6,20.6,0,0,1-1.2-5.546,22.845,22.845,0,0,1,.3-5.616c.086-.462.174-.924.279-1.382s.214-.916.359-1.366c.129-.453.258-.906.418-1.352l.228-.671.253-.69q1.994-5.535,3.815-11.124c.608-1.866,1.207-3.719,1.8-5.61a9.6,9.6,0,0,0,.364-1.516c.065-.525.075-1.022.09-1.514.021-.986.059-1.97.064-2.962-.144.475-.273.952-.405,1.43l-.358,1.44c-.113.481-.22.961-.354,1.4a10.285,10.285,0,0,1-.547,1.281c-.862,1.758-1.694,3.563-2.458,5.376-1.536,3.631-2.906,7.32-4.177,11.042l-.236.7-.227.73c-.16.483-.289.978-.416,1.472a26.931,26.931,0,0,0-.569,3.014,21.682,21.682,0,0,0,.1,6.128,18.678,18.678,0,0,0,1.935,5.765,16.931,16.931,0,0,0,1.649,2.525A12.433,12.433,0,0,0-1180.422,305.682Z" transform="translate(1186.358 -261.252)" fill="#ff85a8"/></g></g><g transform="translate(7.474 148.133)"><g transform="translate(22.142 37.149)"><path d="M-1571.711,325.286s8.065-27.634,12.646-21.3S-1571.711,325.286-1571.711,325.286Z" transform="translate(1571.711 -303.041)" fill="#ff85a8"/></g><g transform="translate(19.224 11.804)"><path d="M-1576.42,286.1s4.86-29.066,10.28-23.183S-1576.42,286.1-1576.42,286.1Z" transform="translate(1576.42 -262.135)" fill="#ff85a8"/></g><g transform="translate(22.226 22.388)"><path d="M-1571.575,302.385s7.237-28.567,12.155-22.258S-1571.575,302.385-1571.575,302.385Z" transform="translate(1571.575 -279.217)" fill="#ff85a8"/></g><g transform="translate(0.277 23.944)"><path d="M-1588.383,297.908s-16.729-21.941-18.507-14.721S-1588.383,297.908-1588.383,297.908Z" transform="translate(1607 -281.729)" fill="#ff85a8"/></g><g transform="translate(0.194 38.532)"><path d="M-1584.837,315.213s-22.945-15.323-22.283-7.917S-1584.837,315.213-1584.837,315.213Z" transform="translate(1607.135 -305.274)" fill="#ff85a8"/></g><g transform="translate(0 51.074)"><path d="M-1584.911,331.965s-24.2-11.116-22.446-4.157S-1584.911,331.965-1584.911,331.965Z" transform="translate(1607.448 -325.517)" fill="#ff85a8"/></g><g transform="translate(3.9)"><path d="M-1589.011,273.47s-3.4-36.389-10.465-29.524S-1589.011,273.47-1589.011,273.47Z" transform="translate(1601.154 -243.084)" fill="#ff85a8"/></g><g transform="translate(14.118 22.461)"><path d="M-1580.684,323.766a18.67,18.67,0,0,0,2.789-5.082,20.607,20.607,0,0,0,1.2-5.546,22.856,22.856,0,0,0-.3-5.615c-.086-.462-.174-.924-.279-1.383s-.214-.916-.358-1.366c-.129-.454-.258-.906-.419-1.351l-.227-.671-.253-.691q-1.993-5.535-3.815-11.123c-.608-1.866-1.208-3.719-1.8-5.61a9.594,9.594,0,0,1-.364-1.516c-.065-.526-.075-1.022-.091-1.514-.021-.986-.058-1.969-.063-2.962.144.475.272.952.405,1.43l.357,1.44c.114.481.22.961.354,1.4a10.293,10.293,0,0,0,.548,1.281c.861,1.758,1.693,3.563,2.458,5.376,1.536,3.631,2.907,7.321,4.176,11.042l.236.7.228.729c.159.484.288.978.416,1.473a26.889,26.889,0,0,1,.568,3.013,21.681,21.681,0,0,1-.1,6.128,18.709,18.709,0,0,1-1.936,5.765,16.933,16.933,0,0,1-1.648,2.524A12.429,12.429,0,0,1-1580.684,323.766Z" transform="translate(1584.662 -279.335)" fill="#ff85a8"/></g></g><g transform="translate(42.469 38.553)"><g transform="translate(0 69.417)"><path d="M-1525.889,219.828s-15.072-51.637-23.63-39.807S-1525.889,219.828-1525.889,219.828Z" transform="translate(1550.966 -178.26)" fill="#abecef"/></g><g transform="translate(9.191 22.058)"><path d="M-1514.8,146.612s-9.08-54.313-19.21-43.321S-1514.8,146.612-1514.8,146.612Z" transform="translate(1536.132 -101.822)" fill="#abecef"/></g><g transform="translate(0.543 41.835)"><path d="M-1525.714,177.035s-13.523-53.381-22.713-41.592S-1525.714,177.035-1525.714,177.035Z" transform="translate(1550.09 -133.743)" fill="#abecef"/></g><g transform="translate(31.145 44.742)"><path d="M-1500.7,168.669s31.26-41,34.583-27.509S-1500.7,168.669-1500.7,168.669Z" transform="translate(1500.699 -138.435)" fill="#abecef"/></g><g transform="translate(24.423 72.002)"><path d="M-1511.547,201.006s42.875-28.634,41.639-14.794S-1511.547,201.006-1511.547,201.006Z" transform="translate(1511.547 -182.433)" fill="#abecef"/></g><g transform="translate(24.338 95.438)"><path d="M-1511.685,232.307s45.227-20.773,41.944-7.768S-1511.685,232.307-1511.685,232.307Z" transform="translate(1511.685 -220.258)" fill="#abecef"/></g><g transform="translate(36.474)"><path d="M-1492.1,123s6.355-68,19.555-55.17S-1492.1,123-1492.1,123Z" transform="translate(1492.097 -66.221)" fill="#abecef"/></g><g transform="translate(21.544 41.971)"><path d="M-1505.1,216.985a34.862,34.862,0,0,1-5.212-9.5,38.53,38.53,0,0,1-2.236-10.363,42.731,42.731,0,0,1,.556-10.494c.161-.863.326-1.726.522-2.583.223-.852.4-1.712.67-2.553.241-.847.483-1.693.782-2.525l.425-1.254.473-1.29q3.725-10.344,7.128-20.786c1.136-3.487,2.256-6.949,3.358-10.482a17.952,17.952,0,0,0,.68-2.833c.121-.983.14-1.911.17-2.83.038-1.843.109-3.68.118-5.535-.27.887-.51,1.779-.757,2.672l-.668,2.691c-.212.9-.411,1.8-.662,2.61a19.358,19.358,0,0,1-1.023,2.394c-1.609,3.286-3.165,6.657-4.593,10.046-2.87,6.786-5.431,13.68-7.8,20.634l-.441,1.305-.426,1.363c-.3.9-.539,1.827-.777,2.752a50.094,50.094,0,0,0-1.062,5.631,40.469,40.469,0,0,0,.19,11.451,34.926,34.926,0,0,0,3.616,10.773,31.585,31.585,0,0,0,3.08,4.717A23.253,23.253,0,0,0-1505.1,216.985Z" transform="translate(1516.194 -133.962)" fill="#abecef"/></g></g><g transform="translate(133.214 98.513)"><path d="M-1389.017,220a6.817,6.817,0,0,1-6.8-6.506c-.776-17-3.276-33.952-5.551-37.945a6.817,6.817,0,0,1-2.72-8.064,6.815,6.815,0,0,1,8.734-4.076c5.048,1.836,8.7,7.189,11.327,28.175,1.334,10.677,1.807,20.863,1.827,21.291a6.815,6.815,0,0,1-6.5,7.118C-1388.807,220-1388.913,220-1389.017,220Zm-11-43.783.006,0Z" transform="translate(1404.503 -162.996)" fill="#ffe8a9"/></g><g transform="translate(100.378 119.52)"><path d="M-1438.288,239.1a6.815,6.815,0,0,1-6.146-3.86,6.816,6.816,0,0,1,3.175-9.093,29.546,29.546,0,0,0,5.83-3.776c-4.965-2.676-12.212-2.74-14.609-2.51a6.808,6.808,0,0,1-5.666-2.175,6.813,6.813,0,0,1-1.686-5.83l1.239-6.815c.674-3.7,4.242-8.746,7.945-8.074,3.346.608,5.655,6.153,5.575,9.45,5.228.551,11.843,2.118,17.167,6.214,4.722,3.632,5.031,7.986,4.794,10.259-.836,8.049-10.536,13.545-14.667,15.534A6.784,6.784,0,0,1-1438.288,239.1Zm4.629-15.569Z" transform="translate(1457.5 -196.902)" fill="#ffe8a9"/></g><g transform="translate(60.682 79.306)"><g transform="translate(0)"><path d="M-1486.212,227.416a6.8,6.8,0,0,1-2.543-.5c-10.649-4.287-29.009-13.951-32.322-30.512-1.674-8.369,1.251-16.073,3.832-22.871l.52-1.373c3.537-9.4,5.2-16.6,5.405-23.34a9.81,9.81,0,0,0-.411-3.488,6.817,6.817,0,0,1-4.688-7.951,6.815,6.815,0,0,1,8.092-5.236c6.931,1.486,10.906,7.87,10.631,17.081-.247,8.305-2.182,16.858-6.273,27.732l-.534,1.411c-2.116,5.573-4.114,10.836-3.209,15.36,1.48,7.4,10.469,15.076,24.047,20.542a6.815,6.815,0,0,1,3.777,8.867A6.817,6.817,0,0,1-1486.212,227.416Z" transform="translate(1521.57 -131.997)" fill="#fff8b6"/></g></g><g transform="translate(175.536 109.16)"><path d="M-1336.2,194.338s12.214-2.09,16.24.867c0,0,.111-8.963-9.375-14.629a2.782,2.782,0,0,0-4.133,1.774Z" transform="translate(1336.196 -180.182)" fill="#ffe8a9"/></g><g transform="translate(88.417 120.132)"><path d="M-1465.464,266.731c-11.963-13.723-15.49-26.022-5.576-37.175,11.656-13.112,25.4-12.392,36.555-6.2,12.1,6.725,16.052,2.773,20.246-3.767,9.826-15.325,24.986-26.078,42.13-19.957s22.433,20.828,16.31,37.974c-9.784,27.4-24.5,45.421-57.62,47.708C-1415.627,285.471-1444.4,290.895-1465.464,266.731Z" transform="translate(1476.805 -197.89)" fill="#fff8b6"/></g><g transform="translate(175.348 121.439)"><ellipse cx="1.859" cy="1.859" rx="1.859" ry="1.859" fill="#2b0c0c"/></g><g transform="translate(173.306 131.043)"><path d="M-1337.421,217.22s-4.359,8.193-1.261,10.052,11.538-6.431,11.538-6.431-3.483-2.243-4.1-5.341Z" transform="translate(1339.794 -215.5)" fill="#ed3b3b"/></g><g transform="translate(173.094 136.057)"><path d="M-1329.82,226.072s-6.205-5.325-9.923-.369c0,0-1.52,4.165,1.408,4.87C-1338.334,230.574-1336.006,231.4-1329.82,226.072Z" transform="translate(1340.137 -223.592)" fill="#ff7171"/></g><g transform="translate(173.286 128.254)"><path d="M-1326.7,219.559a2.58,2.58,0,0,1-.642-.082c-2.187-.56-3.926-3.855-4.562-5.218-1.366.489-4.9,1.7-6.484,1.7a1.354,1.354,0,0,1-1.208-.621c-.689-1.115.326-3.338.653-3.993a.621.621,0,0,1,.832-.278.621.621,0,0,1,.277.831c-.513,1.027-.924,2.438-.708,2.787.02.032.131.033.154.033,1.432,0,5.248-1.314,6.6-1.82a.621.621,0,0,1,.789.342c.523,1.253,2.255,4.6,3.965,5.037a1.383,1.383,0,0,0,1.271-.326l3.1-2.478a.62.62,0,0,1,.871.1.62.62,0,0,1-.1.871l-3.1,2.478A2.717,2.717,0,0,1-1326.7,219.559Z" transform="translate(1339.828 -211)" fill="#2b0c0c"/></g><g transform="translate(189.598 130.113)"><path d="M-1310.4,217.717a2.987,2.987,0,0,1-3.1-3.1.62.62,0,0,1,.619-.62.619.619,0,0,1,.62.616,1.768,1.768,0,0,0,1.859,1.862.62.62,0,0,1,.62.62A.62.62,0,0,1-1310.4,217.717Zm-1.859-3.1h0Z" transform="translate(1313.5 -214)" fill="#2b0c0c"/></g><g transform="translate(172.982 126.859)"><path d="M-1337.782,210.931a2.82,2.82,0,0,1-1.131-.243,3.657,3.657,0,0,1-1.26-.923.62.62,0,0,1,.077-.873.619.619,0,0,1,.871.076,1.768,1.768,0,0,0,2.621.236.619.619,0,0,1,.872.078.619.619,0,0,1-.077.873A3.066,3.066,0,0,1-1337.782,210.931Z" transform="translate(1340.317 -208.748)" fill="#2b0c0c"/></g><g transform="translate(180.108 126.061)"><path d="M-1327.58,207.47l3.607.515a1.082,1.082,0,0,1,.392,2.006l-3.091,1.8a1.082,1.082,0,0,1-1.6-.7l-.515-2.318A1.082,1.082,0,0,1-1327.58,207.47Z" transform="translate(1328.816 -207.459)" fill="#f99393"/></g><g transform="translate(201.08 123.504)"><path d="M-1294.967,208.588s9.135,8.373,9.265,13.366c0,0,6.877-5.2,5.887-15.74a3.172,3.172,0,0,0-4.492-2.584Z" transform="translate(1294.967 -203.333)" fill="#fff8b6"/></g><g transform="translate(143.186 152.258)"><path d="M-1351.91,272.207c-3.818-4.18-7.5-8.47-11.152-12.778l-2.715-3.252c-.447-.527-.916-1.118-1.345-1.593a8.111,8.111,0,0,0-1.393-1.23,7.5,7.5,0,0,0-7.019-.8l-.423.171-.4.211c-.257.123-.587.333-.875.5-.594.353-1.182.716-1.758,1.091a34.7,34.7,0,0,0-3.3,2.405,16.059,16.059,0,0,0-2.73,2.783,5.877,5.877,0,0,0-.817,1.53,2.759,2.759,0,0,0-.1,1.446,2.7,2.7,0,0,0,.267.672,2.465,2.465,0,0,0,.222.35c.088.118.163.251.259.359a4.6,4.6,0,0,0,1.241,1.116,4.851,4.851,0,0,0,3.342.5,17.24,17.24,0,0,0,7.06-3.448l.057-.045a.87.87,0,0,1,1.22.16c.014.018.028.038.04.057.849,1.31,1.672,2.639,2.5,3.961s1.665,2.644,2.475,3.98c1.637,2.662,3.257,5.336,4.82,8.048-1.948-2.451-3.839-4.94-5.713-7.441-.944-1.245-1.865-2.507-2.791-3.765s-1.858-2.512-2.764-3.784l1.318.172a22.814,22.814,0,0,1-3.605,2.581,13.989,13.989,0,0,1-4.235,1.667,7.105,7.105,0,0,1-4.872-.634,6.7,6.7,0,0,1-1.943-1.634c-.137-.157-.245-.33-.367-.5a4.328,4.328,0,0,1-.348-.54,5.11,5.11,0,0,1-.519-1.286,5.17,5.17,0,0,1,.129-2.73,8.237,8.237,0,0,1,1.13-2.21,16.845,16.845,0,0,1,3.156-3.274,36.989,36.989,0,0,1,3.565-2.54q.916-.583,1.852-1.122c.326-.183.591-.354.97-.539l.538-.27.561-.222a9.713,9.713,0,0,1,9.1,1.3,9.2,9.2,0,0,1,1.7,1.646c.485.6.862,1.141,1.3,1.714l2.533,3.4C-1358.408,262.949-1355.089,267.523-1351.91,272.207Z" transform="translate(1388.408 -249.742)" fill="#f7c57c"/></g><g transform="translate(93.759 144.433)"><path d="M-1425.629,279.174c.527-1.224,1-2.467,1.449-3.718s.883-2.5,1.266-3.773a55.048,55.048,0,0,0,1.83-7.692,30.819,30.819,0,0,0,.394-3.887,18.293,18.293,0,0,0-.219-3.823,11.229,11.229,0,0,0-1.153-3.484,6.9,6.9,0,0,0-2.411-2.521l-.369-.237c-.127-.073-.27-.123-.4-.186a8.825,8.825,0,0,0-.82-.346l-.867-.255a9.28,9.28,0,0,0-.933-.2l-1.9-.37-1.922-.22a36.331,36.331,0,0,0-7.728.083,43.791,43.791,0,0,0-7.592,1.559c-1.245.358-2.462.806-3.665,1.276a36.99,36.99,0,0,0-3.464,1.6l-.012.006a1.249,1.249,0,0,1-1.69-.511,1.264,1.264,0,0,1-.147-.568,30.974,30.974,0,0,0-.936-7.327,12.389,12.389,0,0,0-1.325-3.238,3.83,3.83,0,0,0-2.215-1.836,3.08,3.08,0,0,0-1.354-.022,2.848,2.848,0,0,0-1.164.671,8.073,8.073,0,0,0-1.735,2.862,27.784,27.784,0,0,0-1.509,7.254,37.358,37.358,0,0,0,.083,7.529,17.182,17.182,0,0,0,.312,1.826,7.476,7.476,0,0,0,.55,1.667,2.222,2.222,0,0,0,.394.589,2.194,2.194,0,0,0,.272.2c.119.052.221.121.353.167a7.005,7.005,0,0,0,1.718.387,36,36,0,0,0,7.594-.258q3.824-.453,7.633-1.177c-2.476.729-4.986,1.354-7.529,1.846q-1.907.379-3.849.605a24.157,24.157,0,0,1-3.953.18,7.688,7.688,0,0,1-2.065-.355,5.455,5.455,0,0,1-.532-.221,3.459,3.459,0,0,1-.523-.343,3.459,3.459,0,0,1-.751-.954,8.839,8.839,0,0,1-.768-1.957,18.807,18.807,0,0,1-.442-1.964,36.47,36.47,0,0,1-.407-7.9,27.63,27.63,0,0,1,1.4-7.881,10.148,10.148,0,0,1,2.2-3.722,5.119,5.119,0,0,1,2.133-1.263l.641-.126a5.674,5.674,0,0,1,.609-.035,3.175,3.175,0,0,1,.611.028,3.408,3.408,0,0,1,.614.1,5.122,5.122,0,0,1,2.2,1.091,7.732,7.732,0,0,1,1.5,1.735,14.686,14.686,0,0,1,1.637,3.875,33.221,33.221,0,0,1,1.08,7.967l-1.849-1.073a40.208,40.208,0,0,1,7.665-3.056,44.729,44.729,0,0,1,8.039-1.577,38.57,38.57,0,0,1,8.205.094l2.037.28,2.011.437a10.307,10.307,0,0,1,1.01.252l1.036.348a10.7,10.7,0,0,1,1,.465c.164.085.334.157.491.255l.461.315a8.773,8.773,0,0,1,2.927,3.295,12.294,12.294,0,0,1,1.188,4.1,19.822,19.822,0,0,1,.03,4.141,31.216,31.216,0,0,1-.618,4.026,52.687,52.687,0,0,1-2.381,7.695A63.5,63.5,0,0,1-1425.629,279.174Z" transform="translate(1468.184 -237.112)" fill="#f7c57c"/></g><g transform="translate(126.401 25.096)"><g transform="translate(0 21.994)"><ellipse cx="18.278" cy="18.278" rx="18.278" ry="18.278" fill="#ef6145"/></g><g transform="translate(0 21.994)"><g opacity="0.36"><path d="M-1394.125,83.717a18.211,18.211,0,0,1,12.366,4.821A18.26,18.26,0,0,0-1397.223,80,18.278,18.278,0,0,0-1415.5,98.278a18.225,18.225,0,0,0,5.911,13.456A18.186,18.186,0,0,1-1412.4,102,18.278,18.278,0,0,1-1394.125,83.717Z" transform="translate(1415.5 -80)" fill="#ffc5c5"/></g><g transform="translate(2.814 4.821)" opacity="0.36"><path d="M-1383.129,87.781a18.189,18.189,0,0,1,2.814,9.739,18.278,18.278,0,0,1-18.278,18.278,18.209,18.209,0,0,1-12.366-4.822,18.259,18.259,0,0,0,15.464,8.539,18.278,18.278,0,0,0,18.278-18.278A18.227,18.227,0,0,0-1383.129,87.781Z" transform="translate(1410.959 -87.781)" fill="#5e041c"/></g></g><g transform="translate(6.803 26.455)"><path d="M-1381.535,87.2a27.748,27.748,0,0,0-4.7,1.125,29.526,29.526,0,0,0-4.45,1.825,24.712,24.712,0,0,0-7.553,5.8,23.322,23.322,0,0,0-4.672,8.283,35.035,35.035,0,0,0-1.6,9.487c-.006-.807-.025-1.618,0-2.428.063-.806.071-1.621.178-2.426s.2-1.613.387-2.406c.086-.4.154-.8.256-1.193l.326-1.178a22.179,22.179,0,0,1,1.876-4.515,21.866,21.866,0,0,1,2.785-4.032,24.312,24.312,0,0,1,7.81-5.817A26.981,26.981,0,0,1-1381.535,87.2Z" transform="translate(1404.52 -87.199)" fill="#8e2619"/></g><g transform="translate(9.281 29.553)"><path d="M-1377.535,92.2a27.753,27.753,0,0,0-4.7,1.125,29.531,29.531,0,0,0-4.45,1.825,24.711,24.711,0,0,0-7.553,5.8,23.321,23.321,0,0,0-4.672,8.283,35.03,35.03,0,0,0-1.6,9.487c-.006-.807-.025-1.618,0-2.428.063-.806.071-1.621.178-2.426s.2-1.613.387-2.406c.086-.4.154-.8.256-1.193l.326-1.178a22.193,22.193,0,0,1,1.876-4.515,21.884,21.884,0,0,1,2.785-4.032,24.309,24.309,0,0,1,7.81-5.817A26.98,26.98,0,0,1-1377.535,92.2Z" transform="translate(1400.521 -92.199)" fill="#8e2619"/></g><g transform="translate(13.302 33.42)"><g transform="translate(0 0)"><path d="M-1372.326,98.478a23.413,23.413,0,0,0-4.481.521,23.5,23.5,0,0,0-4.3,1.291,21.745,21.745,0,0,0-3.938,2.1,17.924,17.924,0,0,0-3.319,2.959,20.176,20.176,0,0,0-4.247,7.779,35.1,35.1,0,0,0-1.4,8.89c-.012-.755-.021-1.512-.019-2.269.047-.755.073-1.514.137-2.27a28.738,28.738,0,0,1,.826-4.483,19.992,19.992,0,0,1,4.242-8.057,18.86,18.86,0,0,1,7.547-5.095A22.334,22.334,0,0,1-1372.326,98.478Z" transform="translate(1394.031 -98.442)" fill="#8e2619"/></g></g><g transform="translate(16.419 45.848)"><path d="M-1389,118.5a10.741,10.741,0,0,1,2.253,2.366,11.789,11.789,0,0,1,1.512,2.931,11.84,11.84,0,0,1,.421,1.606c.049.273.064.551.1.825l.042.413-.008.416a8.964,8.964,0,0,1-.6,3.216,14.547,14.547,0,0,0,.115-3.2,11.842,11.842,0,0,0-.653-3.077,15.816,15.816,0,0,0-1.33-2.871A20.067,20.067,0,0,0-1389,118.5Z" transform="translate(1389 -118.5)" fill="#8e2619"/></g><g transform="translate(18.897 43.37)"><path d="M-1385,114.5a10.734,10.734,0,0,1,2.253,2.366,11.8,11.8,0,0,1,1.512,2.931,11.839,11.839,0,0,1,.421,1.606c.049.273.064.551.1.825l.042.413-.008.416a8.964,8.964,0,0,1-.6,3.216,14.547,14.547,0,0,0,.115-3.2,11.837,11.837,0,0,0-.653-3.077,15.825,15.825,0,0,0-1.33-2.871A20.078,20.078,0,0,0-1385,114.5Z" transform="translate(1385 -114.5)" fill="#8e2619"/></g><g transform="translate(28.191 37.174)"><path d="M-1370,104.5a10.743,10.743,0,0,1,2.253,2.366,11.786,11.786,0,0,1,1.512,2.931,11.858,11.858,0,0,1,.421,1.606c.049.273.064.551.1.825l.042.413-.008.416a8.969,8.969,0,0,1-.6,3.216,14.546,14.546,0,0,0,.115-3.2,11.842,11.842,0,0,0-.653-3.077,15.808,15.808,0,0,0-1.33-2.871A20.075,20.075,0,0,0-1370,104.5Z" transform="translate(1370 -104.5)" fill="#8e2619"/></g><g transform="translate(20.136 39.652)"><path d="M-1383,108.5a9.952,9.952,0,0,1,1.746,1.393,13.5,13.5,0,0,1,1.415,1.748,12.84,12.84,0,0,1,1.817,4.122,14.512,14.512,0,0,1,.313,4.488,7.42,7.42,0,0,1-.138,1.114l-.186,1.1c-.188.722-.4,1.436-.63,2.139.091-.74.245-1.46.331-2.19l.1-1.1a7.008,7.008,0,0,0,.05-1.094c-.006-.365-.009-.729,0-1.092s-.062-.724-.089-1.085a7.319,7.319,0,0,0-.138-1.077c-.071-.354-.124-.713-.208-1.064a15.181,15.181,0,0,0-1.617-4.015A13.684,13.684,0,0,0-1383,108.5Z" transform="translate(1383 -108.5)" fill="#8e2619"/></g><g transform="translate(23.854 38.413)"><g transform="translate(0 0)"><path d="M-1377,106.5a9.96,9.96,0,0,1,1.746,1.393,13.514,13.514,0,0,1,1.415,1.748,12.837,12.837,0,0,1,1.817,4.122,14.509,14.509,0,0,1,.314,4.488,7.42,7.42,0,0,1-.138,1.114l-.186,1.1c-.189.722-.4,1.436-.63,2.139.091-.74.245-1.46.331-2.19l.1-1.1a7.038,7.038,0,0,0,.05-1.094c-.006-.365-.009-.729,0-1.092s-.062-.724-.089-1.085a7.3,7.3,0,0,0-.138-1.077c-.071-.354-.124-.713-.208-1.064a15.176,15.176,0,0,0-1.617-4.015A13.683,13.683,0,0,0-1377,106.5Z" transform="translate(1377 -106.5)" fill="#8e2619"/></g></g><g transform="translate(1.549 44.377)"><path d="M-1413,116.977a3.274,3.274,0,0,1,1.163-.569,6.736,6.736,0,0,1,1.256-.245,6.8,6.8,0,0,1,2.537.195,8.039,8.039,0,0,1-1.245.267c-.411.069-.822.107-1.231.155l-1.229.1C-1412.159,116.915-1412.569,116.934-1413,116.977Z" transform="translate(1413 -116.125)" fill="#8e2619"/></g><g transform="translate(0.47 40.044)"><path d="M-1406.847,109.979c-.708-.1-1.4-.17-2.091-.217a13.464,13.464,0,0,0-2.05.011,8.382,8.382,0,0,0-1.971.419,7.181,7.181,0,0,0-1.783,1.03,4.194,4.194,0,0,1,1.585-1.472,6.006,6.006,0,0,1,2.113-.594,7.916,7.916,0,0,1,2.167.128A7.156,7.156,0,0,1-1406.847,109.979Z" transform="translate(1414.741 -109.132)" fill="#8e2619"/></g><g transform="translate(0.929 35.497)"><g transform="translate(0 0)"><path d="M-1404.706,103.47c-.78-.275-1.566-.488-2.348-.68a14.739,14.739,0,0,0-2.363-.369,9.351,9.351,0,0,0-2.352.156,8.193,8.193,0,0,0-2.231.893,5.192,5.192,0,0,1,2.1-1.359,7.067,7.067,0,0,1,2.521-.309A9.337,9.337,0,0,1-1404.706,103.47Z" transform="translate(1414 -101.793)" fill="#8e2619"/></g></g><g transform="translate(2.388 30.71)"><path d="M-1400.713,96.814a12.491,12.491,0,0,0-2.545-1.375,10.274,10.274,0,0,0-2.746-.7,10.077,10.077,0,0,0-2.83.05,12.492,12.492,0,0,0-1.41.286c-.473.106-.92.3-1.4.418a14.349,14.349,0,0,1,1.3-.705,8.512,8.512,0,0,1,1.416-.473,8.155,8.155,0,0,1,3-.19,8.287,8.287,0,0,1,2.873.877A7.623,7.623,0,0,1-1400.713,96.814Z" transform="translate(1411.646 -94.068)" fill="#8e2619"/></g><g transform="translate(6.506 26.832)"><path d="M-1394.467,90.715a10.263,10.263,0,0,0-2.388-1.436,10.5,10.5,0,0,0-2.627-.764c-.223-.042-.453-.052-.68-.08a4.517,4.517,0,0,0-.685-.038c-.229,0-.459-.017-.688-.012s-.459.033-.69.045a4.7,4.7,0,0,0-.691.071l-.693.092c-.464.068-.915.195-1.391.264.428-.2.869-.388,1.317-.558a10.138,10.138,0,0,1,1.4-.349,9.026,9.026,0,0,1,2.9-.046,8.29,8.29,0,0,1,2.747.945A6.618,6.618,0,0,1-1394.467,90.715Z" transform="translate(1405 -87.809)" fill="#8e2619"/></g><g transform="translate(10.223 23.565)"><path d="M-1387.847,86.231a8.5,8.5,0,0,0-5.117-2.98,9.331,9.331,0,0,0-1.494-.126,11.666,11.666,0,0,0-1.511.061c-.5.048-1,.159-1.515.226-.5.108-1,.245-1.515.341.467-.228.951-.424,1.435-.634.5-.141,1-.319,1.524-.411a9.279,9.279,0,0,1,3.182-.066,7.481,7.481,0,0,1,2.954,1.218A6.134,6.134,0,0,1-1387.847,86.231Z" transform="translate(1399 -82.535)" fill="#8e2619"/></g><g transform="translate(19.517 22.825)"><path d="M-1377.8,85.157A7.955,7.955,0,0,0-1379,83.7a7.274,7.274,0,0,0-1.462-1.094,8.488,8.488,0,0,0-1.688-.717c-.292-.109-.6-.155-.907-.246-.309-.071-.624-.116-.943-.2a8.2,8.2,0,0,1,.974-.1,6.259,6.259,0,0,1,.984.078,5.657,5.657,0,0,1,1.886.651,5.214,5.214,0,0,1,1.514,1.31A4.06,4.06,0,0,1-1377.8,85.157Z" transform="translate(1384 -81.34)" fill="#8e2619"/></g><g transform="translate(23.216)"><path d="M-1371.2,73a.619.619,0,0,1-.6-.459.62.62,0,0,1,.438-.759c.36-.1,8.834-2.478,8.834-11.173,0-4.564-4.276-6.556-8.411-8.483-3.808-1.774-7.4-3.45-7.075-7.063a.624.624,0,0,1,.673-.561.619.619,0,0,1,.561.673c-.25,2.745,2.816,4.174,6.365,5.828,4.278,1.993,9.127,4.253,9.127,9.606,0,9.658-9.656,12.344-9.753,12.37A.625.625,0,0,1-1371.2,73Z" transform="translate(1378.03 -44.501)" fill="#ef6145"/></g></g><g transform="translate(206.947 98.476)"><g transform="translate(0.623 61.589)"><path d="M-1284.492,297.446s5.3-43.37,8.737-33.7S-1284.492,297.446-1284.492,297.446Z" transform="translate(1284.492 -262.341)" fill="#210140"/></g><g transform="translate(10.608 43.804)"><path d="M-1268.377,268.741s5.3-43.371,8.737-33.7S-1268.377,268.741-1268.377,268.741Z" transform="translate(1268.377 -233.636)" fill="#210140"/></g><g transform="translate(0 73.099)"><path d="M-1285.5,304.343s30.477-31.309,27.353-21.533S-1285.5,304.343-1285.5,304.343Z" transform="translate(1285.498 -280.919)" fill="#210140"/></g><g transform="translate(9.984 55.938)"><path d="M-1269.383,276.645s30.476-31.309,27.353-21.533S-1269.383,276.645-1269.383,276.645Z" transform="translate(1269.383 -253.221)" fill="#210140"/></g><g transform="translate(21.216 26.643)"><path d="M-1251.255,241.043s5.3-43.37,8.737-33.7S-1251.255,241.043-1251.255,241.043Z" transform="translate(1251.255 -205.938)" fill="#210140"/></g><g transform="translate(20.593 38.777)"><path d="M-1252.261,248.948s30.477-31.31,27.353-21.533S-1252.261,248.948-1252.261,248.948Z" transform="translate(1252.261 -225.523)" fill="#210140"/></g><g transform="translate(34.009 7.61)"><path d="M-1230.607,210.324s5.3-43.37,8.736-33.7S-1230.607,210.324-1230.607,210.324Z" transform="translate(1230.607 -175.219)" fill="#210140"/></g><g transform="translate(33.385 19.744)"><path d="M-1231.614,218.228s30.477-31.309,27.354-21.533S-1231.614,218.228-1231.614,218.228Z" transform="translate(1231.614 -194.804)" fill="#210140"/></g><g transform="translate(42.411)"><path d="M-1217.046,192.617s21.238-38.185,20.777-27.932S-1217.046,192.617-1217.046,192.617Z" transform="translate(1217.046 -162.937)" fill="#210140"/></g></g><g transform="translate(16.117 97.856)"><g transform="translate(53.226 61.589)"><path d="M-1498.245,296.446s-5.3-43.37-8.737-33.7S-1498.245,296.446-1498.245,296.446Z" transform="translate(1507.592 -261.341)" fill="#210140"/></g><g transform="translate(43.242 43.804)"><path d="M-1514.36,267.741s-5.3-43.371-8.737-33.7S-1514.36,267.741-1514.36,267.741Z" transform="translate(1523.707 -232.636)" fill="#210140"/></g><g transform="translate(35.619 73.099)"><path d="M-1508.433,303.343s-30.477-31.309-27.353-21.533S-1508.433,303.343-1508.433,303.343Z" transform="translate(1536.011 -279.919)" fill="#210140"/></g><g transform="translate(25.634 55.938)"><path d="M-1524.548,275.645s-30.477-31.309-27.353-21.533S-1524.548,275.645-1524.548,275.645Z" transform="translate(1552.126 -252.221)" fill="#210140"/></g><g transform="translate(32.633 26.643)"><path d="M-1531.483,240.043s-5.3-43.37-8.736-33.7S-1531.483,240.043-1531.483,240.043Z" transform="translate(1540.829 -204.938)" fill="#210140"/></g><g transform="translate(15.025 38.777)"><path d="M-1541.67,247.948s-30.477-31.31-27.354-21.533S-1541.67,247.948-1541.67,247.948Z" transform="translate(1569.249 -224.523)" fill="#210140"/></g><g transform="translate(19.84 7.61)"><path d="M-1552.13,209.324s-5.3-43.37-8.737-33.7S-1552.13,209.324-1552.13,209.324Z" transform="translate(1561.476 -174.219)" fill="#210140"/></g><g transform="translate(2.233 19.744)"><path d="M-1562.318,217.228s-30.477-31.309-27.353-21.533S-1562.318,217.228-1562.318,217.228Z" transform="translate(1589.896 -193.804)" fill="#210140"/></g><path d="M-1572.714,191.617s-21.238-38.185-20.777-27.932S-1572.714,191.617-1572.714,191.617Z" transform="translate(1593.499 -161.937)" fill="#210140"/></g><g transform="translate(52.382 171.485)"><g transform="translate(12.139 20.366)"><path d="M-1515.375,325.841s4.422-15.15,6.933-11.679S-1515.375,325.841-1515.375,325.841Z" transform="translate(1515.375 -313.645)" fill="#bcedf2"/></g><g transform="translate(10.539 6.472)"><path d="M-1517.956,304.36s2.664-15.935,5.636-12.709S-1517.956,304.36-1517.956,304.36Z" transform="translate(1517.956 -291.219)" fill="#bcedf2"/></g><g transform="translate(12.185 12.274)"><path d="M-1515.3,313.285s3.968-15.661,6.663-12.2S-1515.3,313.285-1515.3,313.285Z" transform="translate(1515.3 -300.584)" fill="#bcedf2"/></g><g transform="translate(0.152 13.127)"><path d="M-1524.515,310.831s-9.171-12.029-10.146-8.071S-1524.515,310.831-1524.515,310.831Z" transform="translate(1534.722 -301.961)" fill="#bcedf2"/></g><g transform="translate(0.107 21.125)"><path d="M-1522.57,320.318s-12.579-8.4-12.216-4.34S-1522.57,320.318-1522.57,320.318Z" transform="translate(1534.794 -314.87)" fill="#bcedf2"/></g><g transform="translate(0 28)"><path d="M-1522.611,329.5s-13.269-6.094-12.306-2.279S-1522.611,329.5-1522.611,329.5Z" transform="translate(1534.967 -325.967)" fill="#bcedf2"/></g><g transform="translate(2.138)"><path d="M-1524.858,297.433s-1.865-19.95-5.737-16.186S-1524.858,297.433-1524.858,297.433Z" transform="translate(1531.516 -280.774)" fill="#bcedf2"/></g><g transform="translate(7.74 12.314)"><path d="M-1520.294,325.006a10.227,10.227,0,0,0,1.529-2.786,11.273,11.273,0,0,0,.656-3.04,12.509,12.509,0,0,0-.163-3.079c-.047-.253-.1-.507-.153-.758s-.117-.5-.2-.749-.142-.5-.229-.741l-.125-.368-.138-.379q-1.093-3.034-2.092-6.1c-.333-1.023-.662-2.038-.985-3.075a5.233,5.233,0,0,1-.2-.831c-.036-.288-.042-.56-.05-.83-.011-.541-.032-1.08-.035-1.624.079.26.15.522.222.784l.2.789c.062.264.12.527.194.766a5.612,5.612,0,0,0,.3.7c.472.964.928,1.954,1.347,2.947.842,1.991,1.594,4.014,2.29,6.054l.13.383.124.4c.087.265.158.536.228.807a14.693,14.693,0,0,1,.312,1.652,11.9,11.9,0,0,1-.056,3.359,10.233,10.233,0,0,1-1.061,3.16,9.246,9.246,0,0,1-.9,1.384A6.8,6.8,0,0,1-1520.294,325.006Z" transform="translate(1522.475 -300.649)" fill="#bcedf2"/></g></g><g transform="translate(225.864 177.061)"><g transform="translate(0 20.366)"><path d="M-1247.609,334.841s-4.422-15.15-6.932-11.679S-1247.609,334.841-1247.609,334.841Z" transform="translate(1254.967 -322.645)" fill="#bcedf2"/></g><g transform="translate(2.697 6.472)"><path d="M-1244.355,313.36s-2.664-15.935-5.636-12.709S-1244.355,313.36-1244.355,313.36Z" transform="translate(1250.614 -300.219)" fill="#bcedf2"/></g><g transform="translate(0.159 12.274)"><path d="M-1247.558,322.285s-3.967-15.661-6.663-12.2S-1247.558,322.285-1247.558,322.285Z" transform="translate(1254.709 -309.584)" fill="#bcedf2"/></g><g transform="translate(9.137 13.127)"><path d="M-1240.219,319.831s9.171-12.029,10.146-8.071S-1240.219,319.831-1240.219,319.831Z" transform="translate(1240.219 -310.961)" fill="#bcedf2"/></g><g transform="translate(7.166 21.125)"><path d="M-1243.4,329.318s12.579-8.4,12.216-4.34S-1243.4,329.318-1243.4,329.318Z" transform="translate(1243.401 -323.87)" fill="#bcedf2"/></g><g transform="translate(7.14 28)"><path d="M-1243.442,338.5s13.269-6.094,12.305-2.279S-1243.442,338.5-1243.442,338.5Z" transform="translate(1243.442 -334.967)" fill="#bcedf2"/></g><g transform="translate(10.701)"><path d="M-1237.695,306.433s1.864-19.95,5.737-16.186S-1237.695,306.433-1237.695,306.433Z" transform="translate(1237.695 -289.774)" fill="#bcedf2"/></g><g transform="translate(6.321 12.314)"><path d="M-1241.51,334.007a10.22,10.22,0,0,1-1.529-2.786,11.306,11.306,0,0,1-.656-3.04,12.55,12.55,0,0,1,.163-3.079c.048-.253.1-.507.153-.758s.118-.5.2-.749.141-.5.229-.741l.125-.368.139-.379q1.093-3.034,2.091-6.1c.333-1.023.662-2.038.985-3.075a5.234,5.234,0,0,0,.2-.831c.035-.288.041-.56.05-.83.011-.541.032-1.08.035-1.624-.079.26-.149.522-.222.784l-.2.789c-.062.264-.121.527-.194.766a5.685,5.685,0,0,1-.3.7c-.473.964-.929,1.953-1.348,2.947-.842,1.991-1.593,4.014-2.289,6.054l-.13.383-.125.4c-.087.265-.158.536-.228.807a14.747,14.747,0,0,0-.311,1.652,11.871,11.871,0,0,0,.056,3.359,10.231,10.231,0,0,0,1.06,3.16,9.264,9.264,0,0,0,.9,1.384A6.794,6.794,0,0,0-1241.51,334.007Z" transform="translate(1244.765 -309.649)" fill="#bcedf2"/></g></g><g transform="translate(88.417 120.132)"><g clip-path="url(#a)"><g transform="translate(1.495 21.134)" opacity="0.19"><path d="M-1353.022,232s-31.465,85.229-121.371,31.772l5.51,32.045,87.98,23.544,25.4-58.86,10.533-24.783Z" transform="translate(1474.393 -232)" fill="#5e041c"/></g></g></g><g transform="translate(121.444 192.071)" opacity="0.51"><ellipse cx="17.658" cy="6.815" rx="17.658" ry="6.815" fill="#ed3b3b"/></g><g transform="translate(152.423 185.038)" opacity="0.51"><ellipse cx="9.913" cy="3.826" rx="9.913" ry="3.826" fill="#ed3b3b"/></g><g transform="translate(189.524 122.247)" opacity="0.51"><ellipse cx="4.886" cy="3.826" rx="4.886" ry="3.826" transform="translate(0 4.064) rotate(-24.573)" fill="#ed3b3b"/></g><g transform="translate(175.965 121.439)"><ellipse cx="1.122" cy="1.122" rx="1.122" ry="1.122" transform="translate(0)" fill="#fff"/></g><g transform="translate(205.707 126.396)" opacity="0.51"><path d="M-1287.5,209.859a14.979,14.979,0,0,1,4.337,6.2l2.478-8.055Z" transform="translate(1287.5 -208)" fill="#ed3b3b"/></g><g transform="translate(178.772 112.338)" opacity="0.51"><path d="M-1330.973,192a14.984,14.984,0,0,1,7.562-.144l-5.3-6.549Z" transform="translate(1330.973 -185.31)" fill="#ed3b3b"/></g><g transform="translate(220.051 14.065)"><path d="M-1259.631,27.327a8.021,8.021,0,0,0-3.281,11.923c1.029,1.5,2.352,3.514,4.045,6.223,6.2,9.913,17.348,7.435,19.826,1.239C-1237.043,41.72-1249.521,23.06-1259.631,27.327Z" transform="translate(1264.348 -26.698)" fill="#8884f2"/></g><g transform="translate(73.12 14.382)"><path d="M-1501.493,37.656a6.8,6.8,0,0,0,8.081,6.678c1.516-.275,3.534-.6,6.218-.967,9.819-1.348,11.776-10.833,7.846-14.9C-1482.515,25.187-1501.281,28.355-1501.493,37.656Z" transform="translate(1501.495 -27.21)" fill="#8884f2"/></g><g transform="translate(228.677 0)"><path d="M-1248.719,4.809a4.281,4.281,0,0,0-.307,6.592c.711.659,1.637,1.553,2.837,2.764,4.39,4.433,9.905,1.833,10.467-1.685C-1235.268,9.648-1243.957,1.4-1248.719,4.809Z" transform="translate(1250.427 -3.997)" fill="#8884f2"/></g><g transform="translate(192.698 126.396)"><ellipse cx="1.859" cy="1.859" rx="1.859" ry="1.859" fill="#2b0c0c"/></g><g transform="translate(193.315 126.396)"><ellipse cx="1.122" cy="1.122" rx="1.122" ry="1.122" transform="translate(0)" fill="#fff"/></g></svg>