<svg xmlns="http://www.w3.org/2000/svg" xmlns:xlink="http://www.w3.org/1999/xlink" width="303.878" height="243" viewBox="0 0 303.878 243"><defs><clipPath id="a"><path d="M-1410.447,680a52.408,52.408,0,0,1-8.289-.675c-8.116-1.323-16.159-5.478-20.271-12.6a24.69,24.69,0,0,1-3-14.015c.866-12.379,9.883-22.763,21.563-26.353,4.186-1.287,10.068-3.423,11.824-7.87,2.246-5.687-1.263-14.032-1.976-19.773-1.4-11.277,2.333-23.37,10.787-30.962s21.682-9.883,31.671-4.464c33.594,18.228,27.568,71.445,5.19,95.327C-1374.944,671.421-1392.705,680.046-1410.447,680Z" transform="translate(1442.07 -560.314)" fill="none"/></clipPath></defs><g transform="translate(1622.511 -455.945)"><g transform="translate(-1388.7 487.371)"><path d="M-1247.539,506.339a8.177,8.177,0,0,0-3.344,12.155c1.048,1.527,2.4,3.582,4.124,6.344,6.316,10.106,17.686,7.58,20.213,1.263C-1224.512,521.013-1237.232,501.989-1247.539,506.339Z" transform="translate(1252.348 -505.698)" fill="#8884f2"/></g><g transform="translate(-1514.99 455.945)"><path d="M-1451.79,472.36a6.329,6.329,0,0,0,9.408,2.589c1.182-.812,2.772-1.856,4.91-3.192,7.822-4.889,5.867-13.689.978-15.645C-1440.432,454.537-1455.157,464.382-1451.79,472.36Z" transform="translate(1452.286 -455.945)" fill="#8884f2"/></g><g transform="translate(-1381.17 468.611)"><path d="M-1238.685,476.825a4.364,4.364,0,0,0-.313,6.721c.725.671,1.669,1.583,2.892,2.818,4.476,4.519,10.1,1.868,10.671-1.717C-1224.973,481.758-1233.831,473.349-1238.685,476.825Z" transform="translate(1240.427 -475.997)" fill="#8884f2"/></g><g transform="translate(-1622.511 465.53)"><path d="M-1566.92,637.8s-58.111,10.738-31.582,34.109,161.069,0,174.965,18.318,107.379,3.79,104.853-18.318-77.41-22.188-63.97-88.786-36.461-132.92-93.309-105.76-56.848,38.53-75.166,24.634c-14.72-11.167-68.187-3.979-71.253,27.79a28.881,28.881,0,0,0,21.892,30.54c16.2,4.053,40.983,13.211,41.811,31.413C-1557.445,618.849-1556.813,635.9-1566.92,637.8Z" transform="translate(1622.511 -471.12)" fill="#8884f2"/><ellipse cx="55.9" cy="12.001" rx="55.9" ry="12.001" transform="translate(97.912 183.732)" fill="#1c0233" opacity="0.21"/><g transform="translate(171.152 35.499)"><path d="M-1349.2,527.322l-2.345,5.412,2.526,4.149,2.526-4.51Z" transform="translate(1351.548 -527.322)" fill="#bcedf2"/></g><g transform="translate(257.056 182.672)"><path d="M-1213.2,760.322l-2.345,5.412,2.526,4.149,2.526-4.51Z" transform="translate(1215.548 -760.322)" fill="#bcedf2"/></g><g transform="translate(29.664 51.29)"><path d="M-1573.2,552.322l-2.345,5.412,2.526,4.149,2.526-4.51Z" transform="translate(1575.548 -552.322)" fill="#fff"/></g><g transform="translate(207.156 200.99)"><path d="M-1292.893,789.322l-1.654,3.818,1.782,2.927,1.782-3.182Z" transform="translate(1294.548 -789.322)" fill="#fff"/></g><g transform="translate(230.527 74.661)"><path d="M-1255.2,589.322l-2.345,5.412,2.526,4.149,2.526-4.51Z" transform="translate(1257.548 -589.322)" fill="#fff"/></g><g transform="translate(174.942 27.92)"><path d="M-1343.2,515.322l-2.345,5.412,2.526,4.149,2.526-4.51Z" transform="translate(1345.548 -515.322)" fill="#bcedf2"/></g><g transform="translate(208.735 10.953)"><path d="M-1275.353,502.907l-6.188-4.789,7.762-.989a.464.464,0,0,0,.4-.519.464.464,0,0,0-.519-.4l-7.762.989,4.789-6.188a.464.464,0,0,0-.083-.651.464.464,0,0,0-.651.083l-4.789,6.187-.989-7.762a.464.464,0,0,0-.519-.4.464.464,0,0,0-.4.519l.989,7.762-6.187-4.789a.465.465,0,0,0-.651.083.465.465,0,0,0,.083.651l6.187,4.789-7.761.989a.464.464,0,0,0-.4.519.461.461,0,0,0,.176.308.464.464,0,0,0,.342.094l7.762-.989-4.789,6.188a.465.465,0,0,0,.083.651.465.465,0,0,0,.651-.083l4.789-6.187.989,7.762a.46.46,0,0,0,.176.308.465.465,0,0,0,.343.094.465.465,0,0,0,.4-.519l-.989-7.762,6.188,4.789a.464.464,0,0,0,.651-.083A.465.465,0,0,0-1275.353,502.907Z" transform="translate(1292.048 -488.461)" fill="#fff"/></g><g transform="translate(241.097 207.498)"><path d="M-1217.645,819.672l-8.586-6.646,10.771-1.372a.644.644,0,0,0,.557-.721.643.643,0,0,0-.72-.557l-10.771,1.372,6.646-8.587a.644.644,0,0,0-.115-.9.644.644,0,0,0-.9.116l-6.646,8.586-1.372-10.771a.644.644,0,0,0-.72-.558.644.644,0,0,0-.558.721l1.372,10.771-8.586-6.646a.645.645,0,0,0-.9.116.645.645,0,0,0,.116.9l8.587,6.646-10.771,1.372a.644.644,0,0,0-.558.72.642.642,0,0,0,.245.428.64.64,0,0,0,.476.129l10.771-1.372-6.646,8.587a.643.643,0,0,0,.115.9.645.645,0,0,0,.9-.115l6.646-8.587,1.373,10.771a.64.64,0,0,0,.245.428.64.64,0,0,0,.476.129.644.644,0,0,0,.558-.72l-1.372-10.771,8.587,6.646a.645.645,0,0,0,.9-.115A.645.645,0,0,0-1217.645,819.672Z" transform="translate(1240.813 -799.626)" fill="#fff"/></g><g transform="translate(126.902 104.081)"><path d="M-1409.155,646.67l-4.613-3.571,5.787-.738a.346.346,0,0,0,.3-.387.346.346,0,0,0-.387-.3l-5.788.737,3.571-4.614a.347.347,0,0,0-.062-.486.347.347,0,0,0-.486.062l-3.571,4.614-.738-5.788a.345.345,0,0,0-.387-.3.346.346,0,0,0-.3.387l.737,5.787-4.614-3.571a.346.346,0,0,0-.486.062.346.346,0,0,0,.062.485l4.614,3.571-5.788.737a.346.346,0,0,0-.3.387.345.345,0,0,0,.131.23.345.345,0,0,0,.256.069l5.787-.737-3.571,4.613a.346.346,0,0,0,.062.486.346.346,0,0,0,.485-.062l3.571-4.614.737,5.787a.345.345,0,0,0,.131.23.346.346,0,0,0,.256.07.346.346,0,0,0,.3-.387l-.737-5.788,4.613,3.571a.347.347,0,0,0,.486-.062A.346.346,0,0,0-1409.155,646.67Z" transform="translate(1421.604 -635.898)" fill="#fff"/></g><g transform="translate(52.368 185.563)"><path d="M-1527.155,775.67l-4.614-3.571,5.787-.738a.347.347,0,0,0,.3-.387.347.347,0,0,0-.387-.3l-5.788.737,3.571-4.614a.347.347,0,0,0-.062-.486.347.347,0,0,0-.486.062l-3.571,4.614-.738-5.788a.345.345,0,0,0-.387-.3.346.346,0,0,0-.3.387l.737,5.787-4.614-3.571a.346.346,0,0,0-.486.062.346.346,0,0,0,.062.485l4.614,3.571-5.788.737a.346.346,0,0,0-.3.387.345.345,0,0,0,.131.23.345.345,0,0,0,.256.069l5.787-.737-3.571,4.613a.346.346,0,0,0,.062.486.346.346,0,0,0,.485-.062l3.571-4.614.737,5.787a.345.345,0,0,0,.131.23.346.346,0,0,0,.256.07.346.346,0,0,0,.3-.387l-.737-5.788,4.614,3.571a.346.346,0,0,0,.486-.062A.347.347,0,0,0-1527.155,775.67Z" transform="translate(1539.604 -764.898)" fill="#fff"/></g><g transform="translate(211.313 59.11)"><g transform="translate(0 70.249)"><path d="M-1262.588,717.985s-15.252-52.256-23.913-40.284S-1262.588,717.985-1262.588,717.985Z" transform="translate(1287.966 -675.918)" fill="#bcedf2"/></g><g transform="translate(9.301 22.322)"><path d="M-1251.648,645.368s-9.19-54.964-19.441-43.841S-1251.648,645.368-1251.648,645.368Z" transform="translate(1273.241 -600.041)" fill="#bcedf2"/></g><g transform="translate(0.55 42.336)"><path d="M-1262.428,675.538s-13.685-54.021-22.985-42.091S-1262.428,675.538-1262.428,675.538Z" transform="translate(1287.096 -631.727)" fill="#bcedf2"/></g><g transform="translate(31.518 45.279)"><path d="M-1238.068,666.981s31.635-41.492,35-27.838S-1238.068,666.981-1238.068,666.981Z" transform="translate(1238.068 -636.386)" fill="#bcedf2"/></g><g transform="translate(24.716 72.866)"><path d="M-1248.836,698.856s43.39-28.977,42.139-14.971S-1248.836,698.856-1248.836,698.856Z" transform="translate(1248.836 -680.061)" fill="#bcedf2"/></g><g transform="translate(24.63 96.583)"><path d="M-1248.973,729.8s45.77-21.022,42.446-7.86S-1248.973,729.8-1248.973,729.8Z" transform="translate(1248.973 -717.609)" fill="#bcedf2"/></g><g transform="translate(36.911)"><path d="M-1229.529,622.164s6.431-68.813,19.79-55.832S-1229.529,622.164-1229.529,622.164Z" transform="translate(1229.529 -564.701)" fill="#bcedf2"/></g><g transform="translate(21.803 42.474)"><path d="M-1242.223,715.964a35.294,35.294,0,0,1-5.274-9.609,38.963,38.963,0,0,1-2.263-10.487,43.206,43.206,0,0,1,.563-10.619c.163-.874.329-1.747.527-2.614.226-.862.4-1.733.678-2.583.245-.858.488-1.714.792-2.556l.43-1.269.479-1.306q3.769-10.468,7.213-21.035c1.15-3.529,2.284-7.033,3.4-10.608a18.153,18.153,0,0,0,.688-2.867c.123-.994.142-1.933.172-2.863.039-1.866.111-3.724.121-5.6-.273.9-.517,1.8-.767,2.7l-.675,2.724c-.215.91-.416,1.817-.67,2.64a19.517,19.517,0,0,1-1.035,2.423c-1.63,3.325-3.2,6.737-4.648,10.166-2.9,6.867-5.5,13.844-7.9,20.881l-.447,1.321-.431,1.38c-.3.914-.545,1.849-.786,2.784a50.6,50.6,0,0,0-1.075,5.7,40.987,40.987,0,0,0,.193,11.589,35.334,35.334,0,0,0,3.66,10.9,31.974,31.974,0,0,0,3.117,4.774A23.5,23.5,0,0,0-1242.223,715.964Z" transform="translate(1253.448 -631.945)" fill="#bcedf2"/></g></g><g transform="translate(50.876 59.742)"><g transform="translate(41.871 70.249)"><path d="M-1475.678,718.985s15.252-52.257,23.913-40.284S-1475.678,718.985-1475.678,718.985Z" transform="translate(1475.678 -676.918)" fill="#bcedf2"/></g><g transform="translate(36.354 22.322)"><path d="M-1484.412,646.368s9.19-54.964,19.441-43.84S-1484.412,646.368-1484.412,646.368Z" transform="translate(1484.412 -601.041)" fill="#bcedf2"/></g><g transform="translate(42.03 42.336)"><path d="M-1475.425,676.538s13.685-54.021,22.985-42.091S-1475.425,676.538-1475.425,676.538Z" transform="translate(1475.425 -632.727)" fill="#bcedf2"/></g><g transform="translate(0.524 45.279)"><path d="M-1505.93,667.981s-31.635-41.492-35-27.838S-1505.93,667.981-1505.93,667.981Z" transform="translate(1541.137 -637.386)" fill="#bcedf2"/></g><g transform="translate(0.366 72.866)"><path d="M-1499.221,699.856s-43.389-28.977-42.139-14.971S-1499.221,699.856-1499.221,699.856Z" transform="translate(1541.386 -681.061)" fill="#bcedf2"/></g><g transform="translate(0 96.583)"><path d="M-1499.348,730.8s-45.769-21.022-42.446-7.86S-1499.348,730.8-1499.348,730.8Z" transform="translate(1541.966 -718.609)" fill="#bcedf2"/></g><g transform="translate(7.374)"><path d="M-1507.329,623.164s-6.431-68.813-19.79-55.832S-1507.329,623.164-1507.329,623.164Z" transform="translate(1530.292 -565.701)" fill="#bcedf2"/></g><g transform="translate(26.696 42.474)"><path d="M-1492.177,716.964a35.294,35.294,0,0,0,5.274-9.609,38.969,38.969,0,0,0,2.263-10.487,43.236,43.236,0,0,0-.563-10.619c-.163-.874-.33-1.747-.528-2.614-.226-.862-.4-1.733-.678-2.583-.244-.858-.488-1.714-.792-2.556l-.429-1.269-.479-1.306q-3.769-10.467-7.213-21.035c-1.15-3.529-2.283-7.033-3.4-10.608a18.167,18.167,0,0,1-.689-2.867c-.123-.994-.142-1.933-.172-2.863-.039-1.866-.111-3.724-.12-5.6.272.9.516,1.8.766,2.7l.675,2.724c.215.91.416,1.817.67,2.64a19.41,19.41,0,0,0,1.035,2.423c1.629,3.325,3.2,6.737,4.648,10.166,2.9,6.867,5.5,13.844,7.9,20.881l.447,1.321.431,1.38c.3.914.545,1.849.786,2.784a50.769,50.769,0,0,1,1.074,5.7,40.937,40.937,0,0,1-.193,11.589,35.334,35.334,0,0,1-3.66,10.9,31.972,31.972,0,0,1-3.117,4.774A23.543,23.543,0,0,1-1492.177,716.964Z" transform="translate(1499.701 -632.945)" fill="#bcedf2"/></g></g><g transform="translate(84.842 34.634)"><g transform="translate(107.591 78.403)"><path d="M-1297.326,686.713a7.939,7.939,0,0,1-1.357-.117,7.9,7.9,0,0,1-5.4-3.686l-12.633-20.844a7.9,7.9,0,0,1,2.66-10.845,7.9,7.9,0,0,1,10.845,2.66l7.943,13.108,6.234-5.046a7.9,7.9,0,0,1,9.557-.288l8.843,6.316a7.9,7.9,0,0,1,1.836,11.014,7.9,7.9,0,0,1-11.015,1.836l-3.955-2.825-8.6,6.959A7.9,7.9,0,0,1-1297.326,686.713Z" transform="translate(1317.856 -650.076)" fill="#f7c57c"/></g><g transform="translate(0 59.319)"><path d="M-1443.938,658.971s-27.161-17.054-35.372-32.214C-1485.006,616.241-1488.784,668.446-1443.938,658.971Z" transform="translate(1486.155 -621.884)" fill="#2b0c0c"/><path d="M-1456.291,661.583a32.231,32.231,0,0,1-17.716-4.779,30.806,30.806,0,0,1-12.5-16.987c-2.161-6.88-2.96-17.519,2.026-19.628.628-.266,3.876-1.374,6.186,2.892,7.678,14.175,33.9,30.76,34.165,30.927l7.267,4.566-8.4,1.774A53.528,53.528,0,0,1-1456.291,661.583Zm-24.839-30.172a28.049,28.049,0,0,0,5.367,14.436c4.583,6.033,11.351,8.98,20.189,8.791C-1463.1,649.255-1474.336,640.433-1481.13,631.411Z" transform="translate(1488.191 -619.863)" fill="#2b0c0c"/></g><g transform="translate(55.071)"><path d="M-1399.7,549.458a45.717,45.717,0,0,1,4.859-9.131c2.3-3.54,2.708-4.288,1.834-6.822-1.107-3.212.971-6.5,4.644-7.352s7.548,1.067,8.657,4.279c2.593,7.516-.364,12.062-2.973,16.073a35.409,35.409,0,0,0-3.815,7.085c-.751,1.968-.209,7.335-.042,7.934,1.662,4.649.706,8.034-3.111,7.582a12.893,12.893,0,0,1-8.858-5.126,13.5,13.5,0,0,1-2.389-9.794A19.822,19.822,0,0,1-1399.7,549.458Zm11.464,7.723v0Z" transform="translate(1401.004 -525.951)" fill="#2b0c0c"/></g><g transform="translate(29.132 21.705)"><path d="M-1410.447,680a52.408,52.408,0,0,1-8.289-.675c-8.116-1.323-16.159-5.478-20.271-12.6a24.69,24.69,0,0,1-3-14.015c.866-12.379,9.883-22.763,21.563-26.353,4.186-1.287,10.068-3.423,11.824-7.87,2.246-5.687-1.263-14.032-1.976-19.773-1.4-11.277,2.333-23.37,10.787-30.962s21.682-9.883,31.671-4.464c33.594,18.228,27.568,71.445,5.19,95.327C-1374.944,671.421-1392.705,680.046-1410.447,680Z" transform="translate(1442.07 -560.314)" fill="#fff8b6"/></g><g transform="translate(54.021 98.536)"><path d="M-1384.992,746.252a7.9,7.9,0,0,1-7.24-4.74l-9.775-22.406a7.9,7.9,0,0,1,.623-7.47,7.9,7.9,0,0,1,6.584-3.583,51.675,51.675,0,0,0,13.252-1.758,93.782,93.782,0,0,0-6.416-12.051,7.9,7.9,0,0,1,2.156-10.95,7.888,7.888,0,0,1,10.943,2.132,112.172,112.172,0,0,1,8.982,17.262,12.214,12.214,0,0,1-.875,11.844c-3.206,4.874-9.985,7.224-16.378,8.34l5.376,12.325a7.9,7.9,0,0,1-4.08,10.394A7.866,7.866,0,0,1-1384.992,746.252Zm4.587-37.364h0Z" transform="translate(1402.666 -681.95)" fill="#f7c57c"/></g><g transform="translate(29.132 21.705)"><g clip-path="url(#a)"><g transform="translate(0.136 22.846)"><path d="M-1349.255,596.483s2.148,76.173-72.386,88.174l-20.213,1.895,34.109,23.371s52.427-18.318,53.058-18.318,46.742-62.533,46.742-62.533Z" transform="translate(1441.854 -596.483)" fill="#f7c57c"/></g></g></g><g transform="translate(75.667 49.328)" opacity="0.26"><path d="M-1359.981,615.4c-3.818-.335-5.86-.123-8.062-6.3-.878-2.465-.134-3.99,2.331-4.867s3.035,1.535,6.126,2.441c13.19-4.087,18.729-1.717,20.167,0a4.737,4.737,0,0,1-.588,6.674,4.74,4.74,0,0,1-6.053.028c-.589-.192-3.539-.853-11.095,1.678A6.914,6.914,0,0,1-1359.981,615.4Zm13.306-2.639,0,0Zm-.006-.006,0,.005Z" transform="translate(1368.397 -604.045)" fill="#990707"/></g><g transform="translate(76.299 47.433)"><path d="M-1358.981,612.4c-3.818-.335-5.86-.123-8.062-6.3-.878-2.465-.134-3.99,2.331-4.867s3.035,1.535,6.126,2.441c13.19-4.087,18.729-1.717,20.167,0a4.737,4.737,0,0,1-.588,6.674,4.74,4.74,0,0,1-6.053.028c-.589-.192-3.539-.853-11.095,1.678A6.914,6.914,0,0,1-1358.981,612.4Zm13.306-2.639,0,0Zm-.006-.006,0,.005Z" transform="translate(1367.397 -601.045)" fill="#ed3b3b"/></g><g transform="translate(66.759 40.16)"><circle cx="2.324" cy="2.324" r="2.324" fill="#2b0c0c"/></g><g transform="translate(69.808 41.981)"><path d="M-1359.233,600.06a3.253,3.253,0,0,1-.716.38c-2.636,1.009-6.791-1.1-8.425-2.031-1.041,1.488-3.771,5.27-5.392,6.417a1.694,1.694,0,0,1-1.681.239c-1.509-.64-2.079-3.643-2.218-4.548a.775.775,0,0,1,.648-.884.775.775,0,0,1,.883.648c.22,1.419.819,3.156,1.292,3.357.043.018.159-.061.181-.077,1.463-1.035,4.409-5.133,5.42-6.624a.777.777,0,0,1,1.053-.221c1.438.9,5.624,3.065,7.686,2.276a1.726,1.726,0,0,0,1.063-1.251l1.371-4.768a.775.775,0,0,1,.959-.53.773.773,0,0,1,.53.958l-1.371,4.768A3.394,3.394,0,0,1-1359.233,600.06Z" transform="translate(1377.673 -592.414)" fill="#2b0c0c"/></g><g transform="translate(86.96 39.899)"><path d="M-1344.975,591.264a3.735,3.735,0,0,1-5.4-.924.774.774,0,0,1,.184-1.08.775.775,0,0,1,1.078.182,2.211,2.211,0,0,0,3.242.557.774.774,0,0,1,1.079.185A.774.774,0,0,1-1344.975,591.264Zm-4.135-1.819.006,0Z" transform="translate(1350.518 -589.118)" fill="#2b0c0c"/></g><g transform="translate(67.65 46.377)"><path d="M-1377.229,602.564a3.52,3.52,0,0,1-1.33.569,4.586,4.586,0,0,1-1.953-.031.775.775,0,0,1-.551-.947.774.774,0,0,1,.943-.552,2.211,2.211,0,0,0,2.846-1.652.774.774,0,0,1,.947-.551.775.775,0,0,1,.551.947A3.834,3.834,0,0,1-1377.229,602.564Z" transform="translate(1381.089 -599.374)" fill="#2b0c0c"/></g><g transform="translate(88.68 32.239)"><circle cx="2.324" cy="2.324" r="2.324" fill="#2b0c0c"/></g><g transform="translate(74.255 41.687)"><ellipse cx="3.765" cy="2.324" rx="3.765" ry="2.324" transform="translate(0 0.951) rotate(-7.257)" fill="#2b0c0c"/></g><g transform="translate(75.133 42.064)" opacity="0.25"><ellipse cx="2.412" cy="1.352" rx="2.412" ry="1.352" transform="translate(0 0.609) rotate(-7.257)" fill="#ed3b3b"/></g><g transform="translate(100.328 22.068)"><path d="M-1315.86,580.879a13.5,13.5,0,0,1-9.446-3.525,12.892,12.892,0,0,1-4.049-9.4c0-3.844,3.474-4.395,7.9-2.2.575.237,5.841,1.405,7.884.891a35.44,35.44,0,0,0,7.484-2.956c4.289-2.12,9.152-4.521,16.312-1.063,3.059,1.479,4.505,5.552,3.231,9.1s-4.787,5.224-7.847,3.747c-2.415-1.167-3.2-.851-6.991,1.019a45.724,45.724,0,0,1-9.639,3.752A19.817,19.817,0,0,1-1315.86,580.879Zm-1.493-12.923h0Z" transform="translate(1329.354 -560.888)" fill="#2b0c0c"/></g><g transform="translate(64.956 79.351)"><path d="M-1374.932,688.213a7.891,7.891,0,0,1-3.879-1.019,7.9,7.9,0,0,1-3.958-5.927l-2.527-20.844a7.9,7.9,0,0,1,6.888-8.788,7.9,7.9,0,0,1,8.788,6.888l1.235,10.19,15.478-6.966a7.9,7.9,0,0,1,7.107.316,7.9,7.9,0,0,1,3.968,5.9l2.9,7.928c.541,4.327-4.168,10.452-8.5,10.992a7.9,7.9,0,0,1-8.736-6.36l-15.532,6.989A7.889,7.889,0,0,1-1374.932,688.213Z" transform="translate(1385.355 -651.578)" fill="#f7c57c"/></g><g transform="translate(65.97 75.166)"><g transform="translate(0.249 0.395)"><path d="M-1372.932,682.213a7.892,7.892,0,0,1-3.88-1.019,7.9,7.9,0,0,1-3.958-5.927l-2.526-20.844a7.9,7.9,0,0,1,6.888-8.788,7.9,7.9,0,0,1,8.788,6.888l1.235,10.19,15.479-6.966a7.9,7.9,0,0,1,7.107.316,7.9,7.9,0,0,1,3.968,5.9l1.263,10.106a7.894,7.894,0,0,1-6.855,8.814,7.9,7.9,0,0,1-8.736-6.36l-15.532,6.989A7.889,7.889,0,0,1-1372.932,682.213Z" transform="translate(1383.355 -645.578)" fill="#fff8b6"/></g><path d="M-1373.077,681.983a7.927,7.927,0,0,1-6.937-4.088,7.883,7.883,0,0,1-.767-1.965c-.166-.688-.222-1.392-.32-2.088l-.538-4.185-1.1-8.367-.558-4.183-.279-2.091a11.651,11.651,0,0,1-.165-2.141,8.127,8.127,0,0,1,1.275-4.124,8.237,8.237,0,0,1,3.223-2.912,8.356,8.356,0,0,1,4.283-.877,8.344,8.344,0,0,1,4.153,1.45,8.443,8.443,0,0,1,2.867,3.372,8.446,8.446,0,0,1,.654,2.146c.123.731.189,1.4.286,2.109l1.071,8.37-.852-.481c5.025-2.279,10.05-4.558,15.092-6.8a8.806,8.806,0,0,1,4.284-.9,8.571,8.571,0,0,1,4.178,1.369,8.544,8.544,0,0,1,2.921,3.266,8.317,8.317,0,0,1,.721,2.081c.145.742.186,1.407.273,2.1l.926,8.225a10.917,10.917,0,0,1,.083,2.137,8.282,8.282,0,0,1-.462,2.108,8.282,8.282,0,0,1-2.42,3.5,8.181,8.181,0,0,1-8.021,1.448,8.04,8.04,0,0,1-3.427-2.39,8.063,8.063,0,0,1-1.771-3.757l.135.071-9.317,4.115-4.65,2.078c-.78.332-1.536.726-2.34,1A7.9,7.9,0,0,1-1373.077,681.983Zm0,0a7.919,7.919,0,0,0,2.5-.414c.8-.28,1.555-.677,2.334-1.013l4.639-2.1,9.259-4.245.111-.05.024.121a7.8,7.8,0,0,0,5.136,5.812,7.684,7.684,0,0,0,7.5-1.527,7.634,7.634,0,0,0,2.151-3.281,7.535,7.535,0,0,0,.375-1.932,10.071,10.071,0,0,0-.129-1.987l-1.127-8.2c-.1-.677-.171-1.39-.308-2a7.646,7.646,0,0,0-.661-1.806,7.424,7.424,0,0,0-2.575-2.8,7.385,7.385,0,0,0-3.615-1.128,7.561,7.561,0,0,0-3.722.815c-5.022,2.286-10.06,4.536-15.1,6.786l-.758.339-.094-.82-.96-8.384c-.085-.689-.147-1.418-.25-2.075a7.688,7.688,0,0,0-.529-1.891,7.477,7.477,0,0,0-2.463-3.039,7.483,7.483,0,0,0-3.685-1.387,7.59,7.59,0,0,0-3.9.7,7.576,7.576,0,0,0-3.026,2.6,7.563,7.563,0,0,0-1.277,3.809,11.2,11.2,0,0,0,.111,2.063l.229,2.1.457,4.195.932,8.388.478,4.192a19.957,19.957,0,0,0,.291,2.084,7.856,7.856,0,0,0,.753,1.957A7.905,7.905,0,0,0-1373.077,681.983Z" transform="translate(1383.749 -644.952)" fill="#f7c57c"/></g><g transform="translate(63.213 64.192)"><path d="M-1387.634,635.158l-.48,9.24,4.27,10.341,22.647-9.208-10.014-10.373v-6.316l-8.211-1.263S-1388.266,628.841-1387.634,635.158Z" transform="translate(1388.114 -627.578)" fill="#fff8b6"/></g><g transform="translate(30.532 103.99)"><path d="M-1427.546,752.8a7.9,7.9,0,0,1-7.756-6.469l-4.422-24.042a7.9,7.9,0,0,1,2.306-7.132,7.9,7.9,0,0,1,7.227-1.991,51.567,51.567,0,0,0,13.3,1.3,93.907,93.907,0,0,0-3.506-13.194A7.9,7.9,0,0,1-1415.8,691.1a7.889,7.889,0,0,1,10.171,4.565,112.23,112.23,0,0,1,4.819,18.853,12.218,12.218,0,0,1-3.546,11.336c-4.23,4.016-11.368,4.766-17.846,4.395l2.432,13.225a7.9,7.9,0,0,1-6.337,9.194A7.98,7.98,0,0,1-1427.546,752.8Zm11.182-35.546h0Z" transform="translate(1439.854 -690.586)" fill="#fff8b6"/></g><g transform="translate(66.535 60.718)"><path d="M-1382.854,622.078s19.581,15.159,42.32,1.263C-1340.534,623.341-1362.01,653.66-1382.854,622.078Z" transform="translate(1382.854 -622.078)" fill="#f7c57c"/></g><g transform="translate(35.395 85.41)" opacity="0.54"><ellipse cx="13.58" cy="9.198" rx="13.58" ry="9.198" transform="matrix(0.969, -0.245, 0.245, 0.969, 0, 6.668)" fill="#720e0e"/></g><g transform="translate(35.787 108.723)" opacity="0.54"><ellipse cx="7.715" cy="5.826" rx="7.715" ry="5.826" transform="matrix(0.969, -0.245, 0.245, 0.969, 0, 3.788)" fill="#720e0e"/></g></g><g transform="translate(100.438 34.033)"><circle cx="23.371" cy="23.371" r="23.371" fill="#fff250"/><path d="M-1424.805,530.845a23.263,23.263,0,0,1,5.127,14.46,23.371,23.371,0,0,1-23.232,23.509,23.251,23.251,0,0,1-12.853-3.764,23.322,23.322,0,0,0,18.381,8.772,23.371,23.371,0,0,0,23.232-23.509A23.347,23.347,0,0,0-1424.805,530.845Z" transform="translate(1460.65 -527.153)" fill="#ef583f" opacity="0.44"/><ellipse cx="9.394" cy="4.124" rx="9.394" ry="4.124" transform="translate(6.929 9.906) rotate(-25.282)" fill="#fffbe1"/><ellipse cx="4.277" cy="4.124" rx="4.277" ry="4.124" transform="translate(1.888 19.071) rotate(-25.282)" fill="#fffbe1"/></g><g transform="translate(202.47 128.148)"><g transform="translate(0 37.872)"><path d="M-1288.285,756.636s-8.223-28.172-12.892-21.718S-1288.285,756.636-1288.285,756.636Z" transform="translate(1301.966 -733.958)" fill="#210140"/></g><g transform="translate(5.014 12.034)"><path d="M-1282.387,717.488s-4.954-29.632-10.481-23.635S-1282.387,717.488-1282.387,717.488Z" transform="translate(1294.028 -693.052)" fill="#210140"/></g><g transform="translate(0.296 22.824)"><path d="M-1288.2,733.753s-7.378-29.123-12.392-22.691S-1288.2,733.753-1288.2,733.753Z" transform="translate(1301.497 -710.134)" fill="#210140"/></g><g transform="translate(16.991 24.41)"><path d="M-1275.066,729.14s17.054-22.369,18.868-15.008S-1275.066,729.14-1275.066,729.14Z" transform="translate(1275.066 -712.645)" fill="#210140"/></g><g transform="translate(13.325 39.283)"><path d="M-1280.871,746.324s23.392-15.622,22.717-8.071S-1280.871,746.324-1280.871,746.324Z" transform="translate(1280.871 -736.192)" fill="#210140"/></g><g transform="translate(13.278 52.069)"><path d="M-1280.945,763.007s24.674-11.333,22.883-4.238S-1280.945,763.007-1280.945,763.007Z" transform="translate(1280.945 -756.433)" fill="#210140"/></g><g transform="translate(19.9)"><path d="M-1270.462,704.978s3.467-37.1,10.668-30.1S-1270.462,704.978-1270.462,704.978Z" transform="translate(1270.462 -674)" fill="#210140"/></g><g transform="translate(11.754 22.898)"><path d="M-1277.306,755.547a19.02,19.02,0,0,1-2.843-5.18,20.985,20.985,0,0,1-1.22-5.654,23.294,23.294,0,0,1,.3-5.725c.088-.471.177-.942.284-1.409.122-.465.219-.934.366-1.393.131-.462.263-.924.426-1.378l.232-.684.258-.7q2.032-5.643,3.889-11.341c.62-1.9,1.231-3.791,1.832-5.719a9.792,9.792,0,0,0,.371-1.546c.066-.536.076-1.042.092-1.543.021-1.006.06-2.008.065-3.02-.147.484-.279.97-.413,1.458l-.365,1.468c-.116.491-.224.98-.361,1.424a10.5,10.5,0,0,1-.558,1.306c-.879,1.793-1.727,3.632-2.506,5.481-1.566,3.7-2.963,7.463-4.258,11.257l-.241.712-.232.744c-.163.493-.294,1-.424,1.5a27.457,27.457,0,0,0-.58,3.072,22.1,22.1,0,0,0,.1,6.248,19.046,19.046,0,0,0,1.973,5.877,17.266,17.266,0,0,0,1.681,2.574A12.671,12.671,0,0,0-1277.306,755.547Z" transform="translate(1283.358 -710.252)" fill="#210140"/></g></g><g transform="translate(47.717 118.041)"><g transform="translate(22.573 37.872)"><path d="M-1511.23,740.636s8.223-28.172,12.892-21.718S-1511.23,740.636-1511.23,740.636Z" transform="translate(1511.23 -717.958)" fill="#210140"/></g><g transform="translate(19.599 12.034)"><path d="M-1515.938,701.488s4.954-29.632,10.481-23.635S-1515.938,701.488-1515.938,701.488Z" transform="translate(1515.938 -677.052)" fill="#210140"/></g><g transform="translate(22.659 22.824)"><path d="M-1511.093,717.753s7.378-29.123,12.392-22.691S-1511.093,717.753-1511.093,717.753Z" transform="translate(1511.093 -694.134)" fill="#210140"/></g><g transform="translate(0.282 24.41)"><path d="M-1527.54,713.14s-17.054-22.369-18.867-15.008S-1527.54,713.14-1527.54,713.14Z" transform="translate(1546.519 -696.645)" fill="#210140"/></g><g transform="translate(0.198 39.283)"><path d="M-1523.922,730.324s-23.392-15.622-22.718-8.071S-1523.922,730.324-1523.922,730.324Z" transform="translate(1546.654 -720.192)" fill="#210140"/></g><g transform="translate(0 52.069)"><path d="M-1523.991,747.007s-24.675-11.333-22.883-4.238S-1523.991,747.007-1523.991,747.007Z" transform="translate(1546.966 -740.433)" fill="#210140"/></g><g transform="translate(3.975)"><path d="M-1528.293,688.978s-3.467-37.1-10.669-30.1S-1528.293,688.978-1528.293,688.978Z" transform="translate(1540.673 -658)" fill="#210140"/></g><g transform="translate(14.392 22.898)"><path d="M-1520.125,739.547a19.02,19.02,0,0,0,2.843-5.18,21.036,21.036,0,0,0,1.22-5.654,23.3,23.3,0,0,0-.3-5.725c-.088-.471-.178-.942-.284-1.409-.122-.465-.219-.934-.366-1.393-.131-.462-.263-.924-.426-1.378l-.232-.684-.258-.7q-2.032-5.643-3.888-11.341c-.62-1.9-1.231-3.791-1.832-5.719a9.792,9.792,0,0,1-.371-1.546c-.066-.536-.076-1.042-.093-1.543-.021-1.006-.059-2.008-.064-3.02.147.484.279.97.413,1.458l.365,1.468c.116.491.224.98.361,1.424a10.491,10.491,0,0,0,.558,1.306c.878,1.793,1.727,3.632,2.506,5.481,1.566,3.7,2.963,7.463,4.257,11.257l.241.712.232.744c.163.493.294,1,.424,1.5a27.289,27.289,0,0,1,.579,3.072,22.07,22.07,0,0,1-.1,6.248,19.043,19.043,0,0,1-1.973,5.877,17.215,17.215,0,0,1-1.68,2.574A12.667,12.667,0,0,1-1520.125,739.547Z" transform="translate(1524.181 -694.252)" fill="#210140"/></g></g><g transform="translate(84.649 115.223)"><g transform="translate(0.511 50.476)"><path d="M-1487.689,762.222s4.347-35.545,7.16-27.618S-1487.689,762.222-1487.689,762.222Z" transform="translate(1487.689 -733.451)" fill="#f99393"/></g><g transform="translate(8.694 35.9)"><path d="M-1474.734,739.146s4.347-35.546,7.16-27.618S-1474.734,739.146-1474.734,739.146Z" transform="translate(1474.734 -710.374)" fill="#f99393"/></g><g transform="translate(0 59.91)"><path d="M-1488.5,767.583s24.978-25.661,22.418-17.647S-1488.5,767.583-1488.5,767.583Z" transform="translate(1488.498 -748.386)" fill="#f99393"/></g><g transform="translate(8.183 45.845)"><path d="M-1475.543,745.317s24.978-25.66,22.418-17.648S-1475.543,745.317-1475.543,745.317Z" transform="translate(1475.543 -726.119)" fill="#f99393"/></g><g transform="translate(17.389 21.836)"><path d="M-1460.969,716.879s4.347-35.545,7.16-27.618S-1460.969,716.879-1460.969,716.879Z" transform="translate(1460.969 -688.108)" fill="#f99393"/></g><g transform="translate(16.878 31.781)"><path d="M-1461.778,723.05s24.978-25.66,22.418-17.647S-1461.778,723.05-1461.778,723.05Z" transform="translate(1461.778 -703.852)" fill="#f99393"/></g><g transform="translate(27.873 6.237)"><path d="M-1444.37,692.183s4.347-35.545,7.16-27.618S-1444.37,692.183-1444.37,692.183Z" transform="translate(1444.37 -663.412)" fill="#f99393"/></g><g transform="translate(27.362 16.182)"><path d="M-1445.18,698.354s24.979-25.661,22.418-17.648S-1445.18,698.354-1445.18,698.354Z" transform="translate(1445.18 -679.156)" fill="#f99393"/></g><g transform="translate(34.759)"><path d="M-1433.469,677.863s17.406-31.3,17.028-22.892S-1433.469,677.863-1433.469,677.863Z" transform="translate(1433.469 -653.538)" fill="#f99393"/></g></g><g transform="translate(164.236 115.855)"><g transform="translate(0.511 50.476)"><path d="M-1361.689,763.222s4.347-35.545,7.16-27.618S-1361.689,763.222-1361.689,763.222Z" transform="translate(1361.689 -734.451)" fill="#f99393"/></g><g transform="translate(8.694 35.9)"><path d="M-1348.734,740.146s4.347-35.546,7.16-27.618S-1348.734,740.146-1348.734,740.146Z" transform="translate(1348.734 -711.374)" fill="#f99393"/></g><g transform="translate(0 59.91)"><path d="M-1362.5,768.583s24.978-25.661,22.418-17.647S-1362.5,768.583-1362.5,768.583Z" transform="translate(1362.498 -749.386)" fill="#f99393"/></g><g transform="translate(8.183 45.845)"><path d="M-1349.543,746.317s24.978-25.66,22.418-17.648S-1349.543,746.317-1349.543,746.317Z" transform="translate(1349.543 -727.119)" fill="#f99393"/></g><g transform="translate(17.389 21.836)"><path d="M-1334.969,717.879s4.347-35.545,7.16-27.618S-1334.969,717.879-1334.969,717.879Z" transform="translate(1334.969 -689.108)" fill="#f99393"/></g><g transform="translate(16.878 31.781)"><path d="M-1335.778,724.05s24.978-25.66,22.418-17.647S-1335.778,724.05-1335.778,724.05Z" transform="translate(1335.778 -704.852)" fill="#f99393"/></g><g transform="translate(27.873 6.237)"><path d="M-1318.37,693.183s4.347-35.545,7.16-27.618S-1318.37,693.183-1318.37,693.183Z" transform="translate(1318.37 -664.412)" fill="#f99393"/></g><g transform="translate(27.362 16.182)"><path d="M-1319.18,699.354s24.978-25.661,22.418-17.648S-1319.18,699.354-1319.18,699.354Z" transform="translate(1319.18 -680.156)" fill="#f99393"/></g><g transform="translate(34.759)"><path d="M-1307.469,678.863s17.406-31.3,17.028-22.892S-1307.469,678.863-1307.469,678.863Z" transform="translate(1307.469 -654.538)" fill="#f99393"/></g></g><g transform="translate(101.672 38.026)"><path d="M-1458.324,531.322l-3.223,7.438,3.471,5.7,3.471-6.2Z" transform="translate(1461.548 -531.322)" fill="#fff"/></g><g transform="translate(96.434 32.138)"><path d="M-1467.032,522l-2.808,6.48,3.024,4.968,3.024-5.4Z" transform="translate(1469.84 -522)" fill="#f99393"/></g><g transform="translate(35.164 56.772)"><path d="M-1564.032,561l-2.808,6.48,3.024,4.968,3.024-5.4Z" transform="translate(1566.84 -561)" fill="#f99393"/></g></g></g></svg>