<svg xmlns="http://www.w3.org/2000/svg" width="227.041" height="113.297" viewBox="0 0 227.041 113.297"><g transform="translate(-389.869 -808.705)"><path d="M437.857,901.762c-.551-10.517-5.469-16.541-15.268-18.092-7.985-1.263-16.081-.707-24.118-.368-4.16.176-7.007,2.549-8.093,6.734a4.861,4.861,0,0,1-.509.979V946.16a.373.373,0,0,0,.3.084h0a1.938,1.938,0,0,0,1.1,1.648,8.167,8.167,0,0,0,6.378-.012,1.576,1.576,0,0,0,.929-1.331c.7-1.737.3-3.541.325-5.319h0c.02-4.213.028-8.427.063-12.641.034-4.049-.513-3.545,3.665-3.57,4.727-.027,9.455.045,14.181-.03,5.437-.085,10.655-.987,15.022-4.6h0a13.812,13.812,0,0,0,4.973-8.206h0A26.688,26.688,0,0,0,437.857,901.762Zm-10.294,6.872a3.6,3.6,0,0,0-.05,2.325c-.6.069-.912.644-1.275,1.087a8.917,8.917,0,0,1-5.616,3.16,32.869,32.869,0,0,1-5.608.568c-4.329-.024-8.658-.01-12.987-.006a7.475,7.475,0,0,0-2.605.338c.609-.7.431-1.631.44-2.469.059-5.719-.017-11.439.045-17.158.029-2.694.851-3.573,3.506-4.008a13.751,13.751,0,0,1,2.071-.141c4.6-.053,9.186.006,13.77.4,4.857.419,7.355,2.55,8.3,7.281A23.82,23.82,0,0,1,427.563,908.634Z" transform="translate(0 -46.05)" fill="#44bfbc"/><path d="M833.648,871.389q-6.226-.068-12.454,0c-2.131.024-3.029,1-3.128,3.158-.02.439-.035.877-.052,1.317-1.2.044-2.4.036-3.587.142-4.147.371-5.741,2.01-5.754,6.178-.039,12.01-.007,24.02,0,36.03h0a8.021,8.021,0,0,1-5.473,7.136h0a29.858,29.858,0,0,1-11.954.031h0a8.147,8.147,0,0,1-5.394-5.667h0c-.4-2.75-.168-5.525-.331-8.285h0V903.5h0c.021-1.7.06-3.4.06-5.095,0-5.664.043-11.328-.034-16.991-.044-3.212-1.31-4.68-4.374-5.183a30.9,30.9,0,0,0-9.605-.032c-3.2.479-4.547,1.983-4.571,5.216-.056,7.362.009,14.724.026,22.086q0,3.966,0,7.931c.017,3.3-.413,6.615.312,9.894a11.314,11.314,0,0,0,1.115,4.846h0A21.167,21.167,0,0,0,778.7,938.25c12.009,5.361,24.13,5.332,36.231.348a14.654,14.654,0,0,0,6.517-4.966,14.478,14.478,0,0,0,4.255-6.988,17.122,17.122,0,0,0,1.5-7.209h0a5.455,5.455,0,0,0,.266-2.223q-.013-12.6-.022-25.2c0-.555.1-1.11.16-1.665h0c2.076.008,4.152.061,6.227.011,2.174-.053,3.092-.97,3.112-3.147q.058-6.309,0-12.618C836.917,872.387,835.918,871.414,833.648,871.389Z" transform="translate(-234.064 -38.892)" fill="#44bfbc"/><path d="M965.616,836.786a2.089,2.089,0,0,0-2.3-2.366c-3.143-.016-6.285-.031-9.427-.027a2.049,2.049,0,0,0-2.287,2.352c.011,1.568,0,3.136,0,4.7s0,3.136,0,4.7a2.066,2.066,0,0,0,2.334,2.317q4.62.014,9.239,0a2.2,2.2,0,0,0,2.441-2.462Q965.637,841.4,965.616,836.786Z" transform="translate(-348.718 -15.947)" fill="#44bfbc"/><path d="M667.338,927.611a71.451,71.451,0,0,0-2.3,9.716l-2.279,9.063-2.135,9.083h0c-1.163,3.482-1.4,7.236-3.111,10.556h0c-1.406,1.6-3.293,1.556-5.181,1.51a5.342,5.342,0,0,1-3.439-3.871q-.784-2.582-1.569-5.164A85.631,85.631,0,0,0,645,949.821l-2.268-8.33h0c-1.071-4-2.127-8-3.216-11.995-1.128-4.138-2.124-4.844-6.4-4.628-2.347.118-3.266,1.145-2.688,3.421,1.1,4.313,2.362,8.583,3.558,12.87h0a70.065,70.065,0,0,0,2.371,8.656,79.627,79.627,0,0,0,2.6,9.5h0a40.26,40.26,0,0,0,2.706,9.006,9.334,9.334,0,0,0,8.853,6.827,24.238,24.238,0,0,0,3.736-.173c.78-.089,1.078.068.863.86h0a29.4,29.4,0,0,1-3.2,6.473,12.654,12.654,0,0,1-8.586,3.775c-1.278.105-2.545.306-2.954,1.838-.443,1.29.265,2.426.532,3.606a2.958,2.958,0,0,0,3.287,2.46c5.095-.172,9.715-1.532,13.32-5.385a14.656,14.656,0,0,0,3.83-5.552,20.806,20.806,0,0,0,2.29-5.985h0c.241-.7.537-1.393.714-2.112.695-2.831,1.352-5.671,2.023-8.508a100.541,100.541,0,0,0,2.6-10.483v0a82.464,82.464,0,0,0,2.286-9.09h0a76.956,76.956,0,0,0,2.264-9.077h0c.835-3.222,1.695-6.437,2.489-9.669a2.439,2.439,0,0,0-.64-2.61C673.282,923.709,668.117,924.977,667.338,927.611Z" transform="translate(-149.231 -71.99)" fill="#44bfbc"/><path d="M926.574,817.43c.029.791.882.99,1.609,1q2.828.04,5.656.033a1.824,1.824,0,0,0,2.076-2.084c-.021-1.631.011-3.262,0-4.892-.008-.862.165-1.789-.684-2.42h0q-.023-.18-.028-.362h-8.326q.023.2.046.4C925.874,811.837,926.473,814.651,926.574,817.43Z" transform="translate(-333.02 0)" fill="#44bfbc"/><path d="M556.087,952.94h0c.013-5.585.035-11.169.022-16.753a10.573,10.573,0,0,0-.321-1.832v0q-.026-.341-.052-.681h0c-.833-5.757-4.409-9.12-9.69-10.911-4.854-1.647-9.9-1.75-14.942-1.463a33.069,33.069,0,0,0-8.2,1.224c-2.184.694-3,2.939-2.247,5.847.44,1.689,1.508,2.168,3.938,1.674a52.039,52.039,0,0,1,13.528-.891c3.717.223,7.124,1.144,8.933,4.9.6,2.619.223,5.292.436,7.933h0c-.429.9-1.267.675-1.985.679-3.391.022-6.782.016-10.174.009a32.976,32.976,0,0,0-9.495,1.22,13.253,13.253,0,0,0-7.228,4.479c-2.9,3.625-3.4,7.765-2.613,12.179a5.533,5.533,0,0,0,.76,2.965c1.614,4.94,5.427,7.441,10.142,8.6a36.428,36.428,0,0,0,19.375-.534c3.834-1.141,6.849-3.378,8.39-7.241a8.045,8.045,0,0,0,1.127-4.156v0C556.45,957.792,556.06,955.357,556.087,952.94Zm-21.109,13.218c-6.6,0-11.944-3.622-11.944-8.09s5.348-8.09,11.944-8.09,11.944,3.622,11.944,8.09S541.574,966.158,534.978,966.158Z" transform="translate(-78.093 -69.819)" fill="#44bfbc"/></g></svg>