<svg xmlns="http://www.w3.org/2000/svg" xmlns:xlink="http://www.w3.org/1999/xlink" width="153" height="153" viewBox="0 0 153 153"><defs><clipPath id="a"><rect width="153" height="153" rx="20.288" fill="none"/></clipPath><clipPath id="b"><path d="M286.778,706.815a10.913,10.913,0,0,0-6.359-1.371,11.08,11.08,0,0,0-1.886-1.349,10.963,10.963,0,0,0-12.775,1.448,10.952,10.952,0,0,0-10.858,18.3L188.271,768.47,202.286,789.4l72.606-48.229c.178-.025.355-.038.533-.071a13.108,13.108,0,0,0,10.565-14.8,10.949,10.949,0,0,0,.788-19.482Z" transform="translate(-188.271 -702.677)" fill="none"/></clipPath><clipPath id="c"><path d="M276.749,708.4c.544.94,1.9,2.285,4.941.87a1.327,1.327,0,0,0,.7-1.578,11.449,11.449,0,0,1-.328-5.89.708.708,0,0,0-1-.845,8.724,8.724,0,0,0-4.523,6.145A1.841,1.841,0,0,0,276.749,708.4Z" transform="translate(-276.5 -700.876)" fill="none"/></clipPath><clipPath id="d"><path d="M265.672,705.381c.543.94,1.9,2.285,4.94.869a1.325,1.325,0,0,0,.7-1.577,11.45,11.45,0,0,1-.328-5.891.708.708,0,0,0-1-.846,8.725,8.725,0,0,0-4.522,6.146A1.831,1.831,0,0,0,265.672,705.381Z" transform="translate(-265.423 -697.855)" fill="none"/></clipPath><clipPath id="e"><path d="M254.594,706.388c.543.94,1.9,2.285,4.94.869a1.324,1.324,0,0,0,.7-1.577,11.462,11.462,0,0,1-.328-5.891.707.707,0,0,0-1-.845,8.721,8.721,0,0,0-4.522,6.145A1.831,1.831,0,0,0,254.594,706.388Z" transform="translate(-254.345 -698.862)" fill="none"/></clipPath></defs><g transform="translate(-197 -616.833)"><g transform="translate(1.333 -11.277)"><g transform="translate(195.667 628.109)"><g clip-path="url(#a)"><rect width="153" height="153" rx="20.288" fill="#bcedf2"/><line y2="145.35" transform="translate(50.363 25.5)" fill="none" stroke="#44bfbc" stroke-miterlimit="10" stroke-width="3"/><line y2="145.35" transform="translate(105.188 30.6)" fill="none" stroke="#44bfbc" stroke-miterlimit="10" stroke-width="3"/><line x2="176.588" transform="translate(-2.55 69.488)" fill="none" stroke="#44bfbc" stroke-miterlimit="10" stroke-width="3"/><line x2="176.588" transform="translate(-7.65 117.938)" fill="none" stroke="#44bfbc" stroke-miterlimit="10" stroke-width="3"/><path d="M289.9,716.705l-1.891-6.62-2.1-1.049s-.194.248-.463.661a.673.673,0,0,0-.678-.023,8.556,8.556,0,0,0-4.028,4.55l-.258.067a11.057,11.057,0,0,0-1.95-1.407c-.142-.08-.287-.147-.43-.22l-1.637-5.727-2.1-1.049s-.194.247-.463.661a.673.673,0,0,0-.678-.023,8.7,8.7,0,0,0-4.442,5.857,10.914,10.914,0,0,0-2.234,1.3l-1.627-5.7-2.1-1.049s-.194.247-.462.661a.675.675,0,0,0-.679-.023,8.723,8.723,0,0,0-4.522,6.145,1.83,1.83,0,0,0,.209,1.3c.021.036.051.075.075.112a10.934,10.934,0,0,0-2.545,17.507L188.271,777.26l7.138,10.657c-5.178,1.735,8.219,9.051,8.219,9.051l66.3-47.175c4.3-2.93,15.3,0,16.25-10.9l-.123-3.141c-.015-.155-.025-.311-.046-.468.783.1,6.347.663,8.3-4.212C295.572,727.9,293.241,721.226,289.9,716.705Zm-3.91,18.382c.12-.056.229-.134.348-.194-.114.1-.219.2-.339.3C286,735.156,286,735.121,285.99,735.087Z" transform="translate(-195.978 -624.842)" fill="#66082a" opacity="0.24"/><g transform="translate(11.954 33.58)"><path d="M222.015,672.186a1.478,1.478,0,0,0-2-.057s-7.865,4.147-8.183,9.829c-.135,2.421,2.159,4.367,4.573,4.583a5.047,5.047,0,0,0,4.174-1.6,5.057,5.057,0,0,0,8.741-2.917C229.681,677.963,222.015,672.186,222.015,672.186Z" transform="translate(-206.942 -659.855)" fill="#30096d" opacity="0.38"/><circle cx="3.642" cy="3.642" r="3.642" transform="translate(0.303 7.89)" fill="#30096d" opacity="0.38"/><circle cx="3.642" cy="3.642" r="3.642" transform="translate(0 6.676)" fill="#f99393"/><circle cx="3.642" cy="3.642" r="3.642" transform="translate(10.015 1.214)" fill="#30096d" opacity="0.38"/><circle cx="3.642" cy="3.642" r="3.642" transform="translate(9.711)" fill="#f99393"/><circle cx="3.642" cy="3.642" r="3.642" transform="translate(18.815 7.587)" fill="#30096d" opacity="0.38"/><circle cx="3.642" cy="3.642" r="3.642" transform="translate(18.512 6.373)" fill="#f99393"/><path d="M222.015,670.438a1.48,1.48,0,0,0-2-.057s-7.865,4.148-8.183,9.83c-.135,2.421,2.159,4.366,4.573,4.582a5.046,5.046,0,0,0,4.174-1.6,5.058,5.058,0,0,0,8.741-2.918C229.681,676.215,222.015,670.438,222.015,670.438Z" transform="translate(-206.942 -659.929)" fill="#f99393"/></g><g transform="translate(62.954 32.305)"><path d="M270.959,670.962a1.478,1.478,0,0,0-2-.057s-7.865,4.148-8.183,9.83c-.134,2.421,2.159,4.366,4.573,4.582a5.049,5.049,0,0,0,4.174-1.6,5.058,5.058,0,0,0,8.741-2.918C278.626,676.739,270.959,670.962,270.959,670.962Z" transform="translate(-255.887 -658.632)" fill="#30096d" opacity="0.38"/><circle cx="3.642" cy="3.642" r="3.642" transform="translate(0.303 7.89)" fill="#30096d" opacity="0.38"/><circle cx="3.642" cy="3.642" r="3.642" transform="translate(0 6.676)" fill="#f99393"/><circle cx="3.642" cy="3.642" r="3.642" transform="translate(10.015 1.214)" fill="#30096d" opacity="0.38"/><circle cx="3.642" cy="3.642" r="3.642" transform="translate(9.711)" fill="#f99393"/><circle cx="3.642" cy="3.642" r="3.642" transform="translate(18.815 7.587)" fill="#30096d" opacity="0.38"/><circle cx="3.642" cy="3.642" r="3.642" transform="translate(18.512 6.373)" fill="#f99393"/><path d="M270.959,669.215a1.478,1.478,0,0,0-2-.057s-7.865,4.147-8.183,9.829c-.134,2.421,2.159,4.367,4.573,4.583a5.047,5.047,0,0,0,4.174-1.6,5.057,5.057,0,0,0,8.741-2.917C278.626,674.991,270.959,669.215,270.959,669.215Z" transform="translate(-255.887 -658.705)" fill="#f99393"/></g><g transform="translate(116.504 32.305)"><path d="M322.35,670.962a1.477,1.477,0,0,0-2-.057s-7.866,4.148-8.183,9.83c-.135,2.421,2.158,4.366,4.573,4.582a5.048,5.048,0,0,0,4.173-1.6,5.058,5.058,0,0,0,8.741-2.918C330.017,676.739,322.35,670.962,322.35,670.962Z" transform="translate(-307.278 -658.632)" fill="#30096d" opacity="0.38"/><circle cx="3.642" cy="3.642" r="3.642" transform="translate(0.303 7.89)" fill="#30096d" opacity="0.38"/><circle cx="3.642" cy="3.642" r="3.642" transform="translate(0 6.676)" fill="#f99393"/><circle cx="3.642" cy="3.642" r="3.642" transform="translate(10.015 1.214)" fill="#30096d" opacity="0.38"/><circle cx="3.642" cy="3.642" r="3.642" transform="translate(9.711)" fill="#f99393"/><circle cx="3.642" cy="3.642" r="3.642" transform="translate(18.815 7.587)" fill="#30096d" opacity="0.38"/><circle cx="3.642" cy="3.642" r="3.642" transform="translate(18.512 6.373)" fill="#f99393"/><path d="M322.35,669.215a1.477,1.477,0,0,0-2-.057s-7.866,4.147-8.183,9.829c-.135,2.421,2.158,4.367,4.573,4.583a5.046,5.046,0,0,0,4.173-1.6,5.057,5.057,0,0,0,8.741-2.917C330.017,674.991,322.35,669.215,322.35,669.215Z" transform="translate(-307.278 -658.705)" fill="#f99393"/></g><g transform="translate(9.404 76.93)"><path d="M219.568,713.788a1.48,1.48,0,0,0-2-.057s-7.866,4.148-8.183,9.83c-.135,2.421,2.158,4.366,4.573,4.582a5.047,5.047,0,0,0,4.174-1.6,5.058,5.058,0,0,0,8.741-2.918C227.234,719.565,219.568,713.788,219.568,713.788Z" transform="translate(-204.495 -701.458)" fill="#30096d" opacity="0.38"/><circle cx="3.642" cy="3.642" r="3.642" transform="translate(0.303 7.89)" fill="#30096d" opacity="0.38"/><circle cx="3.642" cy="3.642" r="3.642" transform="translate(0 6.676)" fill="#f99393"/><circle cx="3.642" cy="3.642" r="3.642" transform="translate(10.015 1.214)" fill="#30096d" opacity="0.38"/><circle cx="3.642" cy="3.642" r="3.642" transform="translate(9.711)" fill="#f99393"/><circle cx="3.642" cy="3.642" r="3.642" transform="translate(18.815 7.587)" fill="#30096d" opacity="0.38"/><circle cx="3.642" cy="3.642" r="3.642" transform="translate(18.512 6.373)" fill="#f99393"/><path d="M219.568,712.041a1.478,1.478,0,0,0-2-.057s-7.866,4.148-8.183,9.829c-.135,2.422,2.158,4.367,4.573,4.583a5.048,5.048,0,0,0,4.174-1.6,5.057,5.057,0,0,0,8.741-2.917C227.234,717.818,219.568,712.041,219.568,712.041Z" transform="translate(-204.495 -701.531)" fill="#f99393"/></g><rect width="192.525" height="48.45" transform="translate(-15.3 -10.2)" fill="#30096d" opacity="0.38"/><path d="M0-2.128,192.525,0V48.45H0Z" transform="translate(-14.025 -15.3)" fill="#44bfbc"/><g transform="translate(-7.707 72.675)"><g transform="translate(0 5.025)"><g clip-path="url(#b)"><path d="M286.778,706.815a10.913,10.913,0,0,0-6.359-1.371,11.08,11.08,0,0,0-1.886-1.349,10.963,10.963,0,0,0-12.775,1.448,10.952,10.952,0,0,0-10.858,18.3L188.271,768.47,202.286,789.4l72.606-48.229c.178-.025.355-.038.533-.071a13.108,13.108,0,0,0,10.565-14.8,10.949,10.949,0,0,0,.788-19.482Z" transform="translate(-188.271 -702.677)" fill="#ef583f"/><path d="M277.264,705.379s-12.593,1.049-6.3,11.543C270.967,716.922,270.721,709.391,277.264,705.379Z" transform="translate(-184.872 -702.564)" fill="#66082a" opacity="0.38"/><path d="M263.127,705.379s-11.543,1.049-5.248,11.543C257.88,716.922,256.585,709.391,263.127,705.379Z" transform="translate(-185.426 -702.564)" fill="#66082a" opacity="0.38"/><path d="M278.953,703.368s13.642,14.691,3.148,23.086c0,0,6.3,1.049,8.4-4.2S284.837,702.15,278.953,703.368Z" transform="translate(-184.462 -702.651)" fill="#66082a" opacity="0.38"/><path d="M285.669,725.52s-12.593,15.74-20.987,11.543a60.213,60.213,0,0,1-9.239,7.765c-15.712,10.079-52.409,33.161-58.97,33.161-8.4,0,7.345,15.74,7.345,15.74l85-57.715Z" transform="translate(-188.03 -701.718)" fill="#66082a" opacity="0.38"/></g></g><g transform="translate(91.935 3.148)"><g clip-path="url(#c)"><path d="M276.749,708.4c.544.94,1.9,2.285,4.941.87a1.327,1.327,0,0,0,.7-1.578,11.449,11.449,0,0,1-.328-5.89.708.708,0,0,0-1-.845,8.724,8.724,0,0,0-4.523,6.145A1.841,1.841,0,0,0,276.749,708.4Z" transform="translate(-276.5 -700.876)" fill="#ffd7e7"/><path d="M282.064,700.344s-4.2,5.247-1.049,9.444l5.246-1.049-2.1-7.345Z" transform="translate(-276.36 -700.898)" fill="#66082a" opacity="0.24"/></g></g><g transform="translate(80.392)"><g clip-path="url(#d)"><path d="M265.672,705.381c.543.94,1.9,2.285,4.94.869a1.325,1.325,0,0,0,.7-1.577,11.45,11.45,0,0,1-.328-5.891.708.708,0,0,0-1-.846,8.725,8.725,0,0,0-4.522,6.146A1.831,1.831,0,0,0,265.672,705.381Z" transform="translate(-265.423 -697.855)" fill="#ffd7e7"/><path d="M270.986,697.322s-4.2,5.247-1.049,9.445l5.246-1.049-2.1-7.346Z" transform="translate(-265.282 -697.877)" fill="#66082a" opacity="0.24"/></g></g><g transform="translate(68.849 1.05)"><g clip-path="url(#e)"><path d="M254.594,706.388c.543.94,1.9,2.285,4.94.869a1.324,1.324,0,0,0,.7-1.577,11.462,11.462,0,0,1-.328-5.891.707.707,0,0,0-1-.845,8.721,8.721,0,0,0-4.522,6.145A1.831,1.831,0,0,0,254.594,706.388Z" transform="translate(-254.345 -698.862)" fill="#ffd7e7"/><path d="M259.908,698.329s-4.2,5.248-1.049,9.445l5.247-1.049-2.1-7.346Z" transform="translate(-254.204 -698.885)" fill="#66082a" opacity="0.24"/></g></g></g></g></g><g transform="translate(316.667 766.186)"><path d="M313.623,760.62l-1.834,4.233,1.975,3.245,1.975-3.527Z" transform="translate(-311.789 -760.62)" fill="#fff"/></g><g transform="translate(317.698 749.234)"><path d="M317.207,744.352l-4.428,10.219,4.769,7.835,4.769-8.516Z" transform="translate(-312.779 -744.352)" fill="#8884f2"/></g><g transform="translate(216.973 749.559)"><path d="M219.837,744.663l-3.723,8.592,4.01,6.587,4.01-7.16Z" transform="translate(-216.114 -744.663)" fill="#8884f2"/></g><g transform="translate(211.873 763.311)"><path d="M213.759,757.861l-2.539,5.86,2.735,4.493,2.735-4.883Z" transform="translate(-211.22 -757.861)" fill="#bcedf2"/></g><g transform="translate(279.862 723.042)"><path d="M291.065,726.329h-6.223l4.4-4.4a.369.369,0,0,0-.522-.522l-4.4,4.4v-6.223a.369.369,0,0,0-.738,0v6.223l-4.4-4.4a.369.369,0,0,0-.522.522l4.4,4.4h-6.223a.369.369,0,1,0,0,.739h6.223l-4.4,4.4a.369.369,0,1,0,.522.522l4.4-4.4v6.223a.369.369,0,1,0,.738,0V727.59l4.4,4.4a.369.369,0,0,0,.522,0,.37.37,0,0,0,0-.522l-4.4-4.4h6.223a.369.369,0,0,0,0-.739Z" transform="translate(-276.468 -719.215)" fill="#fff"/></g></g><text transform="translate(272 642)" fill="#fff" font-size="15" font-family="Nunito-Black, Nunito" font-weight="800" letter-spacing="0.2em"><tspan x="-63.638" y="0">CALENDARIO</tspan></text></g></svg>