<svg xmlns="http://www.w3.org/2000/svg" xmlns:xlink="http://www.w3.org/1999/xlink" width="152" height="152" viewBox="0 0 152 152"><defs><clipPath id="a"><rect width="152" height="152" rx="39.211" transform="translate(197 213)" fill="#ef583f"/></clipPath><clipPath id="b"><rect width="154" height="154" rx="20.288" transform="translate(0 -11.564)" fill="none"/></clipPath></defs><g transform="translate(-197 -213)"><g clip-path="url(#a)"><g transform="translate(-367.663 -289.389)"><g transform="translate(564.663 513.953)" clip-path="url(#b)"><path d="M20.288,0H133.712A20.288,20.288,0,0,1,154,20.288V133.712A20.288,20.288,0,0,1,133.712,154H20.288A20.288,20.288,0,0,1,0,133.712V20.288A20.288,20.288,0,0,1,20.288,0Z" transform="translate(-1 -11.564)" fill="#bcedf2"/><g transform="translate(130.952 67.708)"><path d="M704.987,579.947h-7.872l5.567-5.567a.467.467,0,1,0-.661-.661l-5.567,5.567v-7.872a.467.467,0,1,0-.934,0v7.872l-5.567-5.567a.467.467,0,1,0-.66.661l5.567,5.567h-7.873a.467.467,0,1,0,0,.933h7.873l-5.567,5.567a.468.468,0,0,0,.33.8.462.462,0,0,0,.329-.137l5.567-5.567v7.873a.467.467,0,0,0,.934,0v-7.873l5.567,5.567a.467.467,0,0,0,.661-.661l-5.567-5.567h7.872a.467.467,0,1,0,0-.933Z" transform="translate(-686.52 -570.946)" fill="#fff"/></g><g transform="translate(20.375 28.852)"><path d="M53.667,0H61.9a49.9,49.9,0,0,1,49.9,49.9v76.06a0,0,0,0,1,0,0H0a0,0,0,0,1,0,0v-72.3A53.667,53.667,0,0,1,53.667,0Z" fill="#fff250"/></g><g transform="translate(79.567 45.041)"><ellipse cx="19.984" cy="24.031" rx="19.984" ry="24.031" fill="#9b3f00"/></g><g transform="translate(67.173 93.969)" opacity="0.31"><path d="M626.974,604.965,625.709,617.3c0,4.515,4.56,8.175,10.185,8.175h.179c4.614,0,9.62-2.591,9.62-6.295l-.507-14.62s-8.961-4.358-8.4-8.575C636.786,595.984,634.562,603.747,626.974,604.965Z" transform="translate(-625.709 -595.984)" fill="#680c0c"/></g><g transform="translate(10.187 46.054)" opacity="0.31"><path d="M601.529,550.3s17.454,29.09-6.324,58.939c-24.468,30.716-23.778,12.142-23.778,12.142S568.767,572.134,601.529,550.3Z" transform="translate(-571.375 -550.299)" fill="#680c0c"/></g><g transform="translate(107.458 39.982)" opacity="0.31"><path d="M670.582,544.51s-17.9,33.138,5.88,62.987c24.469,30.716,23.779,12.142,23.779,12.142S703.344,566.346,670.582,544.51Z" transform="translate(-664.119 -544.51)" fill="#680c0c"/></g><g transform="translate(52.754 66.796)"><ellipse cx="3.288" cy="5.059" rx="3.288" ry="5.059"/></g><g transform="translate(68.184 78.141)" opacity="0.31"><ellipse cx="8.98" cy="4.446" rx="8.98" ry="4.446" fill="#a32424"/></g><g transform="translate(96.769 66.796)"><ellipse cx="2.783" cy="5.059" rx="2.783" ry="5.059"/></g><g transform="translate(97.882 67.302)"><ellipse cx="1.67" cy="3.036" rx="1.67" ry="3.036" fill="#fff"/></g><g transform="translate(54.373 66.796)"><ellipse cx="1.67" cy="3.036" rx="1.67" ry="3.036" fill="#fff"/></g><g transform="translate(66.666 90.516)"><path d="M626.491,601.674l-1.265,12.333c0,4.516,4.56,8.176,10.186,8.176h.178c4.615,0,9.62-2.591,9.62-6.295l-1.518-12.008s-7.949-6.971-7.39-11.189C636.3,592.692,634.08,600.455,626.491,601.674Z" transform="translate(-625.226 -592.692)" fill="#ef583f"/></g><g transform="translate(58.319 82.479)"><path d="M626.171,603.858a11.1,11.1,0,0,1-5.377-1.438c-2.209-1.253-3.527-3.027-3.527-4.743a1.012,1.012,0,0,1,2.024,0c0,.935,1.006,2.133,2.5,2.984a8.242,8.242,0,0,0,8.08.171c2.44-1.455,5.3-5.2,5.1-14.769A1.012,1.012,0,1,1,637,586.02c.224,10.545-3.187,14.821-6.087,16.55A9.155,9.155,0,0,1,626.171,603.858Z" transform="translate(-617.267 -585.029)" fill="#350202"/></g><g transform="translate(76.532 82.984)"><path d="M645.469,604.34a9.142,9.142,0,0,1-4.739-1.288c-2.9-1.73-6.312-6.005-6.087-16.55a1,1,0,0,1,1.033-.99,1.013,1.013,0,0,1,.99,1.033c-.2,9.571,2.662,13.315,5.1,14.769a8.241,8.241,0,0,0,8.081-.171c1.5-.85,2.5-2.048,2.5-2.984a1.012,1.012,0,0,1,2.023,0c0,1.717-1.318,3.49-3.526,4.744A11.112,11.112,0,0,1,645.469,604.34Z" transform="translate(-634.633 -585.511)" fill="#350202"/></g><g transform="translate(8.99 40.673)"><path d="M600.523,545.169s17.532,29.091-6.353,58.94c-24.577,30.716-23.884,12.142-23.884,12.142S567.613,567.005,600.523,545.169Z" transform="translate(-570.234 -545.169)" fill="#9b3f00"/></g><g transform="translate(108.926 39.155)"><path d="M671.019,543.722s-16.38,30.1,7.4,59.952c24.468,30.716,23.778,12.142,23.778,12.142S703.782,565.558,671.019,543.722Z" transform="translate(-665.519 -543.722)" fill="#9b3f00"/></g><g transform="translate(68.184 76.118)"><ellipse cx="8.98" cy="4.446" rx="8.98" ry="4.446" fill="#350202"/></g><g transform="translate(18.388 131.739)" opacity="0.22"><rect width="115.69" height="13.66" fill="#30096d"/></g><g transform="translate(38.588 109.077)"><path d="M601.273,610.389l-2.819,6.5,3.036,4.987,3.036-5.421Z" transform="translate(-598.455 -610.389)" fill="#f99393"/></g><g transform="translate(112.005 17.83)"><path d="M671.273,523.389l-2.819,6.5,3.035,4.987,3.036-5.421Z" transform="translate(-668.455 -523.389)" fill="#f99393"/></g><g transform="translate(120.395 26.22)"><path d="M679.273,531.389l-2.819,6.5,3.035,4.987,3.036-5.421Z" transform="translate(-676.455 -531.389)" fill="#8884f2"/></g><g transform="translate(112.673 49.212)"><path d="M671.91,553.311l-2.819,6.5,3.036,4.987,3.036-5.421Z" transform="translate(-669.092 -553.311)" fill="#bcedf2"/></g><g transform="translate(123.774 86.31)"><path d="M681.466,588.682l-1.79,4.132,1.928,3.168,1.928-3.443Z" transform="translate(-679.676 -588.682)" fill="#fff250"/></g><g transform="translate(142.652 48.553)"><path d="M699.466,552.682l-1.791,4.132,1.928,3.168,1.928-3.443Z" transform="translate(-697.676 -552.682)" fill="#fff250"/></g><g transform="translate(41.308 51.907)"><path d="M602.839,555.88l-1.79,4.132,1.928,3.168,1.928-3.443Z" transform="translate(-601.048 -555.88)" fill="#fff"/></g><g transform="translate(26.048 56.171)"><path d="M594.781,563.983H591.25l2.5-2.5a.21.21,0,0,0-.3-.3l-2.5,2.5v-3.531a.209.209,0,1,0-.419,0v3.531l-2.5-2.5a.209.209,0,1,0-.3.3l2.5,2.5h-3.53a.21.21,0,0,0,0,.42h3.53l-2.5,2.5a.209.209,0,1,0,.3.3l2.5-2.5v3.531a.209.209,0,1,0,.419,0V564.7l2.5,2.5a.209.209,0,1,0,.3-.3l-2.5-2.5h3.531a.21.21,0,1,0,0-.42Z" transform="translate(-586.498 -559.946)" fill="#fff"/></g><g transform="translate(117.114 113.847)" opacity="0.67"><path d="M681.608,618.974h-3.53l2.5-2.5a.209.209,0,0,0-.3-.3l-2.5,2.5v-3.531a.209.209,0,1,0-.419,0v3.531l-2.5-2.5a.21.21,0,0,0-.3.3l2.5,2.5h-3.531a.21.21,0,0,0,0,.419h3.531l-2.5,2.5a.209.209,0,0,0,.149.358.208.208,0,0,0,.148-.061l2.5-2.5v3.531a.209.209,0,1,0,.419,0v-3.531l2.5,2.5a.21.21,0,0,0,.3,0,.21.21,0,0,0,0-.3l-2.5-2.5h3.53a.21.21,0,0,0,0-.419Z" transform="translate(-673.326 -614.937)" fill="#fff"/></g><g transform="translate(124.595 44.535)" opacity="0.64"><circle cx="1.012" cy="1.012" r="1.012" fill="#fff"/></g><g transform="translate(5.364 82.57)" opacity="0.64"><circle cx="1.406" cy="1.406" r="1.406" fill="#fff"/></g><g transform="translate(70.967 77.42)" opacity="0.22"><ellipse cx="6.071" cy="1.771" rx="6.071" ry="1.771" fill="#ef583f"/></g><g transform="translate(90.132 90.987)"><path d="M653.2,597.432q-.091,0-.182,0a8.161,8.161,0,0,1-5.159-2.6,1.012,1.012,0,0,1,1.507-1.35h0a6.174,6.174,0,0,0,3.729,1.93,3.755,3.755,0,0,0,2.775-1.23,1.012,1.012,0,0,1,1.416,1.446A5.748,5.748,0,0,1,653.2,597.432Z" transform="translate(-647.6 -593.141)" fill="#350202"/></g><g transform="translate(53.259 90.574)"><path d="M618,597.932a6.207,6.207,0,0,1-2.313-.422,5.715,5.715,0,0,1-3.177-3.375,1.012,1.012,0,0,1,1.879-.752,3.721,3.721,0,0,0,2.053,2.249,6.22,6.22,0,0,0,4.178-.264,1.012,1.012,0,0,1,.837,1.843A9.2,9.2,0,0,1,618,597.932Z" transform="translate(-612.443 -592.748)" fill="#350202"/></g><g transform="translate(17.339 126.495)"><rect width="116.868" height="13.66" fill="#8985f2"/></g></g></g></g><text transform="translate(273 243)" fill="#fff" font-size="15" font-family="Nunito-Black, Nunito" font-weight="800" letter-spacing="0.2em"><tspan x="-44.377" y="0">CANINOS</tspan></text></g></svg>