<svg xmlns="http://www.w3.org/2000/svg" xmlns:xlink="http://www.w3.org/1999/xlink" width="152" height="152" viewBox="0 0 152 152"><defs><clipPath id="a"><rect width="152" height="152" rx="30" transform="translate(201 415)" fill="#fff" stroke="#707070" stroke-width="1"/></clipPath><clipPath id="b"><rect width="158.565" height="158.565" rx="20.288" transform="translate(756.377 207.376)" fill="none"/></clipPath><clipPath id="c"><path d="M948.249,384.312a20.936,20.936,0,0,0,11.178-7.454c6.882-8.868,5.656-21.341-2.739-27.857-7.53-5.845-18.258-4.894-25.357,1.76l-93.2-72.34c3.682-8.234,1.724-17.96-5.357-23.456-8.395-6.516-20.779-4.609-27.661,4.26a20.829,20.829,0,0,0-4.333,14.99,20.943,20.943,0,0,0-11.015,7.4c-6.882,8.868-5.656,21.341,2.739,27.857,7.53,5.845,18.257,4.894,25.357-1.76l94.194,73.113c-4.683,8.53-2.942,19.159,4.588,25,8.4,6.516,20.78,4.609,27.662-4.259A20.7,20.7,0,0,0,948.249,384.312Z" fill="none"/></clipPath></defs><g transform="translate(-201 -415)"><g clip-path="url(#a)"><g transform="translate(-559.377 204.624)"><g clip-path="url(#b)"><path d="M936.564,370.565h-204.2V194.122a62.748,62.748,0,0,1,62.748-62.747h83.1a58.348,58.348,0,0,1,58.348,58.348Z" fill="#ff85a8"/><path d="M943.974,396.812a20.934,20.934,0,0,0,11.178-7.453c6.882-8.869,5.656-21.341-2.739-27.858-7.53-5.844-18.257-4.893-25.357,1.761l-93.2-72.341c3.682-8.234,1.724-17.96-5.357-23.456-8.4-6.516-20.779-4.609-27.661,4.26a20.83,20.83,0,0,0-4.333,14.99,20.943,20.943,0,0,0-11.015,7.4c-6.882,8.869-5.656,21.341,2.739,27.857,7.53,5.845,18.258,4.894,25.357-1.76l94.194,73.113c-4.683,8.53-2.942,19.16,4.588,25,8.4,6.517,20.78,4.61,27.662-4.259A20.694,20.694,0,0,0,943.974,396.812Z" fill="#a32424" opacity="0.32"/><g clip-path="url(#c)"><path d="M948.249,384.312a20.936,20.936,0,0,0,11.178-7.454c6.882-8.868,5.656-21.341-2.739-27.857-7.53-5.845-18.258-4.894-25.357,1.76l-93.2-72.34c3.682-8.234,1.724-17.96-5.357-23.456-8.395-6.516-20.779-4.609-27.661,4.26a20.829,20.829,0,0,0-4.333,14.99,20.943,20.943,0,0,0-11.015,7.4c-6.882,8.868-5.656,21.341,2.739,27.857,7.53,5.845,18.257,4.894,25.357-1.76l94.194,73.113c-4.683,8.53-2.942,19.159,4.588,25,8.4,6.516,20.78,4.609,27.662-4.259A20.7,20.7,0,0,0,948.249,384.312Z" fill="#ffda3e"/><path d="M800.419,274.648s-9.648,15.557,2.181,22.178,19.814,2.577,19.814,2.577l96.812,75.146s-.291,31.737,28.684,17.761l5.017-1.844-3.869,17.481-30.43,17.35L784.966,316.427l-3.816-38.811Z" fill="#680c0c" opacity="0.14"/><path d="M964.932,356.254s.941,23.776-24.651,19.274L954.44,391.64l8.408-13.958Z" fill="#680c0c" opacity="0.14"/><path d="M821.772,250.254s-23.262,4.989-12.55,28.667L790.1,269.2l11.433-11.61Z" fill="#680c0c" opacity="0.14"/><line x2="22.69" y2="17.612" transform="translate(836.728 289.84)" fill="none" stroke="#fff188" stroke-linecap="round" stroke-miterlimit="10" stroke-width="3"/><line x2="56.726" y2="44.031" transform="translate(867.974 314.094)" fill="none" stroke="#fff188" stroke-linecap="round" stroke-miterlimit="10" stroke-width="3"/></g><path d="M819.409,319.137l-3.252,11.216,6,7.517,3.832-9.49Z" fill="#bcedf2"/><path d="M903.165,253.322l-3.713,8.568,4,6.569,4-7.14Z" fill="#bcedf2"/><path d="M891.054,272.038l-3.713,8.568,4,6.569,4-7.14Z" fill="#f99293"/><path d="M771.855,261.34l-3.372,7.782,3.632,5.966,3.632-6.485Z" fill="#ffda3e"/><path d="M949.313,365.164l-5.136,2.827-.539,4.8,4.729-2.008Z" fill="#fff250"/><path d="M815.886,284.9l-5.136,2.827-.539,4.8,4.729-2.008Z" fill="#fff250"/><path d="M811.66,320.562l-1.633,5.631,3.011,3.774,1.924-4.764Z" fill="#fff"/><path d="M884.326,350.289l-1.633,5.631,3.011,3.774,1.924-4.764Z" fill="#fff"/><path d="M841.547,272.551l-5.136,2.827-.539,4.8,4.729-2.008Z" fill="#fff"/><path d="M798.6,305.184l-4.085-3.162,5.124-.653a.306.306,0,1,0-.077-.608l-5.125.653,3.162-4.085a.306.306,0,1,0-.484-.375l-3.162,4.085-.653-5.125a.306.306,0,1,0-.608.078l.653,5.124-4.086-3.162a.307.307,0,1,0-.375.485l4.085,3.162-5.124.653a.306.306,0,0,0,.077.608l5.125-.653-3.162,4.085a.307.307,0,1,0,.485.375l3.162-4.085.652,5.125a.306.306,0,0,0,.608-.078l-.652-5.124,4.085,3.162a.307.307,0,0,0,.375-.485Z" fill="#fff"/><path d="M884.243,311.673l-4.085-3.161,5.125-.653a.306.306,0,0,0-.078-.608l-5.124.652,3.162-4.085a.307.307,0,0,0-.485-.375l-3.162,4.085-.653-5.124a.306.306,0,1,0-.608.077l.653,5.125-4.085-3.162a.307.307,0,1,0-.375.485l4.085,3.161-5.125.653a.306.306,0,1,0,.078.608l5.124-.652-3.162,4.085a.307.307,0,1,0,.485.375l3.162-4.085.653,5.124a.307.307,0,0,0,.116.2.31.31,0,0,0,.227.062.307.307,0,0,0,.265-.343L879.783,309l4.085,3.162a.307.307,0,0,0,.375-.485Z" fill="#fff"/><path d="M810.457,264.362h-7.6l5.378-5.378a.451.451,0,0,0-.638-.638l-5.378,5.378v-7.605a.451.451,0,1,0-.9,0v7.605l-5.378-5.378a.451.451,0,0,0-.638.638l5.377,5.378h-7.6a.451.451,0,0,0,0,.9h7.6l-5.377,5.378a.451.451,0,0,0,.638.638l5.378-5.378v7.6a.451.451,0,1,0,.9,0v-7.6l5.378,5.378a.451.451,0,0,0,.638-.638l-5.378-5.378h7.6a.451.451,0,1,0,0-.9Z" fill="#fff"/><path d="M947.427,355s13.763-2.119,14.854,8.969" fill="none" stroke="#fff188" stroke-linecap="round" stroke-miterlimit="10" stroke-width="3"/><path d="M816.681,257.011s13.541-1.832,14.81,9.027" fill="none" stroke="#fff188" stroke-linecap="round" stroke-miterlimit="10" stroke-width="3"/><line x2="14.371" y2="11.154" transform="translate(865.566 332.425)" fill="none" stroke="#fff188" stroke-linecap="round" stroke-miterlimit="10" stroke-width="3"/><path d="M823.946,244.18,820.694,255.4l6,7.517,3.832-9.49Z" fill="#fff"/><path d="M765.039,252.093l-3.372,7.782,3.632,5.966,3.632-6.485Z" fill="#bcedf2"/></g></g></g><text transform="translate(277 445)" fill="#fff" font-size="15" font-family="Nunito-Black, Nunito" font-weight="800" letter-spacing="0.2em"><tspan x="-64.965" y="0">DONACIONES</tspan></text></g></svg>