<svg xmlns="http://www.w3.org/2000/svg" xmlns:xlink="http://www.w3.org/1999/xlink" width="152" height="152" viewBox="0 0 152 152"><defs><clipPath id="a"><rect width="152" height="152" rx="30" transform="translate(26 213)" fill="#fff" stroke="#707070" stroke-width="1"/></clipPath><clipPath id="b"><rect width="158.565" height="158.565" fill="none"/></clipPath><clipPath id="c"><rect width="158.565" height="158.565" rx="20.288" transform="translate(401.935 217.955)" fill="none"/></clipPath><clipPath id="d"><path d="M475.117,334.63s1.357,4.448,2.295,4.448,1.877-5.63,1.877-5.63S475.636,334.873,475.117,334.63Z" fill="none"/></clipPath><clipPath id="e"><path d="M489.09,333.692s-1.357,4.448-2.295,4.448-1.877-5.63-1.877-5.63S488.571,333.935,489.09,333.692Z" fill="none"/></clipPath><clipPath id="f"><path d="M473.659,333.816c-.861,5.981-.648,13.027,7.253,14.456a9.349,9.349,0,0,0,6.046-.738,8.1,8.1,0,0,0,3.751-4.993c.8-2.809.576-5.279.777-8.154a4.367,4.367,0,0,1-3.753.286c-1.877-.857-5.63-6.854-5.63-6.854l-1.876,4.283s-4.691,4.284-6.568,1.714" fill="none"/></clipPath></defs><g transform="translate(-26 -213)"><g clip-path="url(#a)"><g transform="translate(-378.936 -15.955)"><g transform="translate(401.935 217.955)" clip-path="url(#b)"><g transform="translate(-401.935 -217.955)"><g clip-path="url(#c)"><path d="M20.288,0H138.276a20.288,20.288,0,0,1,20.288,20.288V138.276a20.288,20.288,0,0,1-20.288,20.288H20.288A20.288,20.288,0,0,1,0,138.276V20.288A20.288,20.288,0,0,1,20.288,0Z" transform="translate(401.935 217.955)" fill="#ff85a8"/><path d="M425.809,325.942l14.551-48.984a5.376,5.376,0,0,1,8.472-2.833l17.321,13.385Z" fill="#9b3f00"/><path d="M61.546,0h0A51.884,51.884,0,0,1,113.43,51.884v49.622a0,0,0,0,1,0,0H0a0,0,0,0,1,0,0V61.546A61.546,61.546,0,0,1,61.546,0Z" transform="translate(422.994 283.722)" fill="#fcfaa2"/><g opacity="0.25"><path d="M432.994,354.79c-4.861-1.358-9.483.162-9.494,5.21-.022,10.649.406,28,4.282,28H528.938c3.865,0,6.562-7,6.562-7s4.488-37.644-5-34C520.2,350.955,509.536,376.17,432.994,354.79Z" fill="#ef583f"/></g><path d="M428.587,332.767l-4.034,9.309,4.344,7.137,4.344-7.758Z" fill="#f99393"/><path d="M549.027,300.185l-2.562,5.913,2.76,4.534,2.76-4.928Z" fill="#8884f2"/><g opacity="0.43"><path d="M420.461,288.831h-5.054l3.574-3.574a.3.3,0,0,0-.424-.424l-3.574,3.574v-5.054a.3.3,0,0,0-.6,0v5.054l-3.573-3.574a.3.3,0,1,0-.424.424l3.573,3.574h-5.053a.3.3,0,1,0,0,.6h5.053L410.386,293a.3.3,0,1,0,.424.424l3.573-3.574v5.054a.3.3,0,1,0,.6,0v-5.054l3.574,3.574a.3.3,0,0,0,.212.088.3.3,0,0,0,.212-.088.3.3,0,0,0,0-.424l-3.574-3.574h5.054a.3.3,0,0,0,0-.6Z" fill="#fff"/></g><g opacity="0.67"><path d="M548.788,345.371h-5.054l3.574-3.573a.3.3,0,0,0-.424-.424l-3.574,3.573v-5.053a.3.3,0,1,0-.6,0v5.053l-3.573-3.573a.3.3,0,0,0-.424.424l3.573,3.573h-5.053a.3.3,0,0,0,0,.6h5.053l-3.573,3.573a.3.3,0,0,0,0,.424.3.3,0,0,0,.424,0l3.573-3.573v5.053a.3.3,0,1,0,.6,0v-5.053l3.574,3.573a.3.3,0,0,0,.212.088.3.3,0,0,0,.212-.512l-3.574-3.573h5.054a.3.3,0,0,0,0-.6Z" fill="#fff"/></g><g opacity="0.64"><circle cx="1.448" cy="1.448" r="1.448" transform="translate(547.639 240.4)" fill="#fff"/></g><g opacity="0.64"><circle cx="1.448" cy="1.448" r="1.448" transform="translate(536.657 282.54)" fill="#fff"/></g><path d="M495.226,330.507c-.042,0-.084,0-.126,0a5.619,5.619,0,0,1-3.55-1.79.7.7,0,0,1,1.037-.929h0a4.256,4.256,0,0,0,2.566,1.328,2.582,2.582,0,0,0,1.91-.847.7.7,0,1,1,.975.995A3.957,3.957,0,0,1,495.226,330.507Z" fill="#350202"/><path d="M506.877,312.206c.059-.02.118-.038.177-.056a8.292,8.292,0,0,1,5.81.85,1.028,1.028,0,0,1-1.019,1.786h0a6.279,6.279,0,0,0-4.215-.662,3.818,3.818,0,0,0-2.279,2.078,1.028,1.028,0,1,1-1.83-.938A5.839,5.839,0,0,1,506.877,312.206Z" fill="#350202"/><path d="M455.947,310.019c.062,0,.124,0,.186,0a8.3,8.3,0,0,1,5.224,2.679,1.028,1.028,0,0,1-1.541,1.362h0a6.276,6.276,0,0,0-3.775-1.986,3.817,3.817,0,0,0-2.829,1.231,1.028,1.028,0,1,1-1.429-1.479A5.843,5.843,0,0,1,455.947,310.019Z" fill="#350202"/><path d="M469.826,330.838a4.25,4.25,0,0,1-1.592-.29,3.929,3.929,0,0,1-2.186-2.322.7.7,0,0,1,1.293-.517,2.563,2.563,0,0,0,1.412,1.547,4.289,4.289,0,0,0,2.876-.182.7.7,0,1,1,.576,1.268A6.317,6.317,0,0,1,469.826,330.838Z" fill="#350202"/><path d="M455.86,287.049,442.8,294.4a.613.613,0,0,1-.91-.6l1.9-17.76a.8.8,0,0,1,1.381-.449l10.84,10.23A.769.769,0,0,1,455.86,287.049Z" fill="#ef583f"/><path d="M533.706,318.437,523.787,277.9a5.375,5.375,0,0,0-8.471-2.832l-17.322,13.384Z" fill="#fcfaa2"/><path d="M523.047,232.473l-4.034,9.309,4.344,7.137,4.344-7.758Z" transform="translate(13)" fill="#bcedf2"/><g transform="translate(-109 26)"><path d="M523.047,232.473l-4.034,9.309,4.344,7.137,4.344-7.758Z" fill="#bcedf2"/></g><g transform="translate(-101 35)"><path d="M523.047,232.473l-4.034,9.309,4.344,7.137,4.344-7.758Z" fill="#bcedf2"/></g><path d="M473.659,332.878c-.861,5.981-.648,13.027,7.253,14.456a9.349,9.349,0,0,0,6.046-.738,8.1,8.1,0,0,0,3.751-4.994c.8-2.808.576-5.278.777-8.154a4.363,4.363,0,0,1-3.753.286c-1.877-.856-5.63-6.853-5.63-6.853l-1.876,4.283s-4.691,4.284-6.568,1.714" fill="#9b1010"/><path d="M478.522,318.437h7.456c.692,0,1.069,1.191.624,1.972l-3.344,5.865a.939.939,0,0,1-1.73.062l-3.635-5.775C477.384,319.751,477.773,318.437,478.522,318.437Z" fill="#a32424" opacity="0.31"/><path d="M475.117,334.63s1.357,4.448,2.295,4.448,1.877-5.63,1.877-5.63S475.636,334.873,475.117,334.63Z" fill="#fffdd7"/><g clip-path="url(#d)"><path d="M477.412,333.448l-.111,5.614s.77.168,1.049-.922a17.658,17.658,0,0,0,.939-4.692h-1.877" fill="#350202" opacity="0.28"/></g><path d="M489.09,333.692s-1.357,4.448-2.295,4.448-1.877-5.63-1.877-5.63S488.571,333.935,489.09,333.692Z" fill="#fffdd7"/><g clip-path="url(#e)"><path d="M486.8,332.51l.111,5.614s-.77.168-1.05-.923a17.694,17.694,0,0,1-.938-4.691H486.8" fill="#350202" opacity="0.28"/></g><path d="M475.608,334.658a7.636,7.636,0,0,1-3.7-.99,4.127,4.127,0,0,1-2.427-3.264.7.7,0,0,1,1.393,0c0,.643.692,1.468,1.722,2.053a5.67,5.67,0,0,0,5.561.118c1.678-1,3.65-3.577,3.51-10.164a.7.7,0,1,1,1.392-.029c.155,7.256-2.193,10.2-4.189,11.389A6.3,6.3,0,0,1,475.608,334.658Z" fill="#350202"/><path d="M489.472,335.006a6.308,6.308,0,0,1-3.262-.886c-2-1.191-4.343-4.134-4.189-11.39a.69.69,0,0,1,.711-.682.7.7,0,0,1,.682.711c-.141,6.587,1.831,9.163,3.51,10.164a5.673,5.673,0,0,0,5.561-.117c1.03-.585,1.722-1.41,1.722-2.054a.7.7,0,0,1,1.393,0,4.13,4.13,0,0,1-2.427,3.264A7.635,7.635,0,0,1,489.472,335.006Z" fill="#350202"/><path d="M478.522,318.437h7.456a.814.814,0,0,1,.624,1.338l-3.344,3.982a1.155,1.155,0,0,1-1.73.042l-3.635-3.921A.858.858,0,0,1,478.522,318.437Z" fill="#ef583f"/><g clip-path="url(#f)"><ellipse cx="10.321" cy="6.099" rx="10.321" ry="6.099" transform="translate(472.721 338.14)" fill="#ef583f"/></g><line x1="19.703" y1="6.568" transform="translate(438.944 320.313)" stroke-width="2" stroke="#350202" stroke-linecap="round" stroke-linejoin="round" fill="none"/><line x1="18.765" y1="1.876" transform="translate(505.559 328.757)" stroke-width="2" stroke="#350202" stroke-linecap="round" stroke-linejoin="round" fill="none"/><line x1="19.703" y2="4.691" transform="translate(438.006 334.387)" stroke-width="2" stroke="#350202" stroke-linecap="round" stroke-linejoin="round" fill="none"/><line y1="6.568" x2="19.703" transform="translate(503.683 319.375)" stroke-width="2" stroke="#350202" stroke-linecap="round" stroke-linejoin="round" fill="none"/><line y1="1.876" x2="18.765" transform="translate(438.944 329.695)" stroke-width="2" stroke="#350202" stroke-linecap="round" stroke-linejoin="round" fill="none"/><line x2="19.703" y2="4.691" transform="translate(504.621 333.448)" stroke-width="2" stroke="#350202" stroke-linecap="round" stroke-linejoin="round" fill="none"/><path d="M471.783,350.337s7.506,7.623,22.517,0C494.3,350.337,484.293,365.583,471.783,350.337Z" fill="#a32424" opacity="0.31"/><path d="M420.009,302.951l-2.562,5.913,2.76,4.534,2.76-4.928Z" fill="#fff"/><path d="M542.829,255.881l-2.562,5.913,2.76,4.534,2.76-4.928Z" fill="#fff250"/><path d="M507.951,287.987l13.064,7.349a.613.613,0,0,0,.91-.6l-1.9-17.76a.794.794,0,0,0-1.38-.448L507.8,286.758A.769.769,0,0,0,507.951,287.987Z" fill="#ef583f"/><rect width="118.758" height="13.881" transform="translate(419.723 366.955)" fill="#44bfbc"/></g></g></g></g></g><text transform="translate(102 243)" fill="#fff" font-size="15" font-family="Nunito-Black, Nunito" font-weight="800" letter-spacing="0.2em"><tspan x="-41.07" y="0">FELINOS</tspan></text></g></svg>