<svg xmlns="http://www.w3.org/2000/svg" xmlns:xlink="http://www.w3.org/1999/xlink" width="152" height="152" viewBox="0 0 152 152"><defs><clipPath id="a"><rect width="152" height="152" rx="20.288" fill="none"/></clipPath><clipPath id="b"><path d="M121.338,694.635a19.7,19.7,0,1,0-36.821,9.752h-.2L98.147,724.5a4.389,4.389,0,0,0,7.277-.064L116.968,707A19.617,19.617,0,0,0,121.338,694.635Z" transform="translate(-81.931 -674.932)" fill="none"/></clipPath></defs><g transform="translate(-26 -617)"><g transform="translate(-1.789 -12.431)"><g transform="translate(27.789 629.431)"><g clip-path="url(#a)"><rect width="152" height="152" rx="20.288" fill="#ff85a8"/><line x1="130.467" y2="115.267" transform="translate(8.233 -39.9)" fill="none" stroke="#ef583f" stroke-miterlimit="10" stroke-width="7"/><line x1="115.267" y1="130.467" transform="translate(117.167 39.9)" fill="none" stroke="#ef583f" stroke-miterlimit="10" stroke-width="7"/><line x1="130.467" y2="115.267" transform="translate(41.167 56.367)" fill="none" stroke="#ef583f" stroke-miterlimit="10" stroke-width="7"/><line x1="115.267" y1="130.467" transform="translate(-46.182 11.31)" fill="none" stroke="#ef583f" stroke-miterlimit="10" stroke-width="7"/><line x1="130.323" y1="145.061" transform="translate(17.1 -3.167)" fill="none" stroke="#ef583f" stroke-miterlimit="10" stroke-width="7"/><line y1="162.133" x2="184.933" transform="translate(-17.1 -4.433)" fill="none" stroke="#ef583f" stroke-miterlimit="10" stroke-width="7"/><g transform="translate(37.367 32.697)"><circle cx="38.633" cy="38.633" r="38.633" transform="translate(0 9.34)" fill="#30096d" opacity="0.4"/><circle cx="38.633" cy="38.633" r="38.633" fill="#fff250"/><g transform="translate(18.681 14.406)"><g clip-path="url(#b)"><path d="M121.338,694.635a19.7,19.7,0,1,0-36.821,9.752h-.2L98.147,724.5a4.389,4.389,0,0,0,7.277-.064L116.968,707A19.617,19.617,0,0,0,121.338,694.635Z" transform="translate(-81.931 -674.932)" fill="#2b8488"/><path d="M117.01,680.323s-25.873,1.195-29.853,31.047C85.784,721.665,60.886,639.325,117.01,680.323Z" transform="translate(-81.983 -675.147)" fill="#3eb5b5" opacity="0.36"/><path d="M111.774,705.391" transform="translate(-80.881 -673.86)" fill="none" stroke="#196361" stroke-linecap="round" stroke-miterlimit="10" stroke-width="5"/></g></g><path d="M103.626,693.694a1.469,1.469,0,0,0-1.99-.058s-7.814,4.121-8.129,9.766c-.135,2.4,2.145,4.337,4.543,4.552a5.013,5.013,0,0,0,4.147-1.589,5.025,5.025,0,0,0,8.684-2.9C111.242,699.432,103.626,693.694,103.626,693.694Z" transform="translate(-62.844 -659.88)" fill="#30096d" opacity="0.38"/><circle cx="3.618" cy="3.618" r="3.618" transform="translate(26.11 29.402)" fill="#30096d" opacity="0.38"/><circle cx="3.618" cy="3.618" r="3.618" transform="translate(25.809 28.196)" fill="#f99393"/><circle cx="3.618" cy="3.618" r="3.618" transform="translate(35.758 22.77)" fill="#30096d" opacity="0.38"/><circle cx="3.618" cy="3.618" r="3.618" transform="translate(35.457 21.564)" fill="#f99393"/><circle cx="3.618" cy="3.618" r="3.618" transform="translate(44.501 29.101)" fill="#30096d" opacity="0.38"/><circle cx="3.618" cy="3.618" r="3.618" transform="translate(44.2 27.895)" fill="#f99393"/><path d="M103.626,691.946a1.468,1.468,0,0,0-1.99-.057s-7.814,4.121-8.129,9.766c-.135,2.4,2.145,4.337,4.543,4.552a5.017,5.017,0,0,0,4.147-1.589,5.025,5.025,0,0,0,8.684-2.9C111.242,697.685,103.626,691.946,103.626,691.946Z" transform="translate(-62.844 -659.942)" fill="#f99393"/></g><path d="M-49.338,726.808s16.324,54.9,28.986,55.216l229.194,5.781s66.549-74.8,39.618-63.621C225.441,733.741,130.108,795.957-49.338,726.808Z" transform="translate(-30.504 -626.136)" fill="#600727" opacity="0.18"/></g></g><g transform="translate(151.994 737.833)"><path d="M154.137,735.082l-4.708,10.865,5.07,8.329,5.07-9.054Z" transform="translate(-149.429 -735.082)" fill="#fff250"/></g><g transform="translate(151.549 652.872)"><path d="M90.382,640.414l-2.991,6.9,3.221,5.291,3.221-5.751Z" transform="translate(-87.392 -640.414)" fill="#bcedf2"/></g><g transform="translate(156.549 658.308)"><path d="M93.065,640.414l-5.673,13.092,6.11,10.037,6.11-10.91Z" transform="translate(-87.392 -640.414)" fill="#abecef"/></g><g transform="translate(54.424 674.966)"><path d="M76.957,685.2H67.09l6.977-6.977a.585.585,0,0,0-.829-.827l-6.976,6.976v-9.866a.585.585,0,1,0-1.171,0v9.866L58.115,677.4a.585.585,0,0,0-.827.827l6.977,6.977H54.4a.585.585,0,1,0,0,1.171h9.867l-6.977,6.976a.585.585,0,0,0,.827.829l6.977-6.977v9.867a.585.585,0,0,0,1.171,0V687.2l6.976,6.977a.586.586,0,1,0,.829-.829l-6.977-6.976h9.867a.585.585,0,1,0,0-1.171Z" transform="translate(-53.812 -673.92)" fill="#fff"/></g><g transform="translate(137.292 687.609)"><path d="M148.076,692.731h-5.9l4.17-4.17a.35.35,0,0,0-.494-.5l-4.17,4.171v-5.9a.35.35,0,1,0-.7,0v5.9l-4.17-4.171a.35.35,0,0,0-.5.5l4.17,4.17h-5.9a.35.35,0,1,0,0,.7h5.9l-4.17,4.17a.35.35,0,1,0,.5.5l4.17-4.171v5.9a.35.35,0,1,0,.7,0v-5.9l4.17,4.171a.35.35,0,0,0,.494-.5l-4.17-4.17h5.9a.35.35,0,1,0,0-.7Z" transform="translate(-134.241 -685.988)" fill="#fff"/></g><g transform="translate(65.752 734.55)"><circle cx="1.69" cy="1.69" r="1.69" fill="#bcedf2"/></g><g transform="translate(79.181 727.65)"><circle cx="3.025" cy="3.025" r="3.025" fill="#bcedf2"/></g></g><text transform="translate(98 643)" fill="#fff" font-size="15" font-family="Nunito-Black, Nunito" font-weight="800" letter-spacing="0.2em"><tspan x="-50.243" y="0">PERDIDOS</tspan></text></g></svg>