<svg xmlns="http://www.w3.org/2000/svg" width="152" height="152" viewBox="0 0 152 152"><g transform="translate(-26 -415)"><g transform="translate(-1161.5 415)"><path d="M39.211,0h73.578A39.211,39.211,0,0,1,152,39.211v73.578A39.211,39.211,0,0,1,112.789,152H39.211A39.211,39.211,0,0,1,0,112.789V39.211A39.211,39.211,0,0,1,39.211,0Z" transform="translate(1187.5)" fill="#8fe3e6"/><path d="M1265.1,57.23s-9.086-28.6-28.938-24.9S1212.6,54.539,1214.623,64.3s15.142,31.294,30.621,44.416c13.8,11.7,18.775,16.448,19.69,17.338a.123.123,0,0,0,.173,0c.915-.89,5.888-5.636,19.691-17.338,15.478-13.123,28.6-34.658,30.62-44.416s-1.682-28.265-21.535-31.966-28.938,24.9-28.938,24.9" transform="translate(-1.853 13.653)" fill="#ef583f"/><g transform="translate(1239.202 73.701)" opacity="0.31"><g transform="translate(0)"><path d="M1261.531,106.78c.023-.374.039-.749.07-1.123a4.93,4.93,0,0,1,.633-2.125,3.41,3.41,0,0,1,4.346-1.492,7.625,7.625,0,0,1,3.448,2.639,10.806,10.806,0,0,1,2.337,5.814,6.08,6.08,0,0,1-.406,2.924,3.4,3.4,0,0,1-4.32,2.068,7.274,7.274,0,0,1-3.538-2.5,10.911,10.911,0,0,1-2.187-4.211,1.046,1.046,0,0,0-.106-.2Z" transform="translate(-1261.531 -90.194)" fill="#680c0c"/><path d="M1293.28,88.33a8.692,8.692,0,0,1-.524,5.078,3.7,3.7,0,0,1-5.5,1.707,7.978,7.978,0,0,1-3.369-3.944,9.54,9.54,0,0,1-.666-6.083,5.1,5.1,0,0,1,1.078-2.241,3.626,3.626,0,0,1,4.684-.775,7.975,7.975,0,0,1,3.561,4.107C1292.846,86.872,1293.039,87.611,1293.28,88.33Z" transform="translate(-1270.803 -81.454)" fill="#680c0c"/><path d="M1344.23,106.794c-.022-.374-.037-.75-.067-1.123a4.93,4.93,0,0,0-.629-2.127,3.411,3.411,0,0,0-4.342-1.5,7.628,7.628,0,0,0-3.453,2.632,10.808,10.808,0,0,0-2.349,5.809,6.07,6.07,0,0,0,.4,2.925,3.4,3.4,0,0,0,4.315,2.077,7.272,7.272,0,0,0,3.543-2.5,10.916,10.916,0,0,0,2.2-4.206,1.023,1.023,0,0,1,.107-.2Z" transform="translate(-1292.562 -90.197)" fill="#680c0c"/><path d="M1311.307,88.713a8.683,8.683,0,0,0,.977,5.01,3.7,3.7,0,0,0,5.63,1.206,7.977,7.977,0,0,0,3-4.23,9.543,9.543,0,0,0,.116-6.118,5.1,5.1,0,0,0-1.275-2.135,3.626,3.626,0,0,0-4.735-.351,7.974,7.974,0,0,0-3.178,4.41C1311.608,87.222,1311.482,87.976,1311.307,88.713Z" transform="translate(-1283.024 -81.382)" fill="#680c0c"/><path d="M1310.826,129.4a10.659,10.659,0,0,1-5.059,9.159,10.108,10.108,0,0,1-3.128,1.318,10.815,10.815,0,0,1-6.013-.3,14.95,14.95,0,0,0-6.25-.558,22.489,22.489,0,0,0-3.3.766,10.677,10.677,0,0,1-13.276-8.4,10.385,10.385,0,0,1,.283-4.874,10.544,10.544,0,0,1,3.682-5.38,22.243,22.243,0,0,0,4.595-5.1c.8-1.179,1.569-2.376,2.392-3.536a8.726,8.726,0,0,1,3.6-3.111,8.3,8.3,0,0,1,2.213-.614,11.139,11.139,0,0,1,4.488.243,7.8,7.8,0,0,1,3.844,2.485,33.637,33.637,0,0,1,2.748,3.886,25.029,25.029,0,0,0,5.264,5.947,10.149,10.149,0,0,1,3.733,6.392C1310.744,128.316,1310.775,128.922,1310.826,129.4Z" transform="translate(-1266.761 -93.161)" fill="#680c0c"/></g></g><g transform="translate(1236.93 71.429)"><path d="M1257.531,102.78c.023-.374.039-.749.07-1.123a4.928,4.928,0,0,1,.633-2.125,3.411,3.411,0,0,1,4.346-1.492,7.625,7.625,0,0,1,3.448,2.639,10.808,10.808,0,0,1,2.337,5.814,6.081,6.081,0,0,1-.406,2.924,3.4,3.4,0,0,1-4.32,2.068,7.273,7.273,0,0,1-3.538-2.5,10.909,10.909,0,0,1-2.187-4.211,1.047,1.047,0,0,0-.106-.2Z" transform="translate(-1257.531 -86.194)" fill="#f99393"/><path d="M1289.28,84.33a8.692,8.692,0,0,1-.524,5.078,3.7,3.7,0,0,1-5.5,1.707,7.979,7.979,0,0,1-3.369-3.944,9.541,9.541,0,0,1-.666-6.083,5.1,5.1,0,0,1,1.079-2.241,3.626,3.626,0,0,1,4.684-.775,7.975,7.975,0,0,1,3.561,4.107C1288.846,82.872,1289.039,83.611,1289.28,84.33Z" transform="translate(-1266.803 -77.454)" fill="#f99393"/><path d="M1340.231,102.794c-.022-.374-.037-.75-.067-1.123a4.932,4.932,0,0,0-.629-2.127,3.41,3.41,0,0,0-4.342-1.5,7.627,7.627,0,0,0-3.453,2.632,10.807,10.807,0,0,0-2.349,5.809,6.068,6.068,0,0,0,.4,2.925,3.4,3.4,0,0,0,4.315,2.077,7.272,7.272,0,0,0,3.543-2.5,10.914,10.914,0,0,0,2.2-4.206,1.023,1.023,0,0,1,.107-.2Z" transform="translate(-1288.562 -86.197)" fill="#f99393"/><path d="M1307.307,84.713a8.684,8.684,0,0,0,.977,5.01,3.7,3.7,0,0,0,5.63,1.206,7.976,7.976,0,0,0,3-4.23,9.542,9.542,0,0,0,.116-6.118,5.1,5.1,0,0,0-1.275-2.135,3.626,3.626,0,0,0-4.735-.351,7.973,7.973,0,0,0-3.178,4.41C1307.608,83.222,1307.482,83.976,1307.307,84.713Z" transform="translate(-1279.024 -77.381)" fill="#f99393"/><path d="M1306.826,125.4a10.66,10.66,0,0,1-5.059,9.159,10.106,10.106,0,0,1-3.128,1.318,10.814,10.814,0,0,1-6.013-.3,14.951,14.951,0,0,0-6.25-.558,22.493,22.493,0,0,0-3.3.766,10.678,10.678,0,0,1-13.276-8.4,10.389,10.389,0,0,1,.283-4.874,10.543,10.543,0,0,1,3.682-5.38,22.24,22.24,0,0,0,4.595-5.1c.8-1.179,1.569-2.376,2.392-3.536a8.726,8.726,0,0,1,3.6-3.111,8.3,8.3,0,0,1,2.213-.614,11.139,11.139,0,0,1,4.488.243,7.8,7.8,0,0,1,3.844,2.485,33.654,33.654,0,0,1,2.748,3.886,25.024,25.024,0,0,0,5.263,5.947,10.149,10.149,0,0,1,3.733,6.392C1306.744,124.316,1306.775,124.922,1306.826,125.4Z" transform="translate(-1262.761 -89.161)" fill="#f99393"/></g><path d="M1377.718,44.191h-4.845l3.425-3.426a.287.287,0,1,0-.406-.406l-3.426,3.425V38.939a.287.287,0,0,0-.575,0v4.845l-3.425-3.425a.287.287,0,0,0-.407.406l3.425,3.426h-4.844a.287.287,0,0,0,0,.575h4.844l-3.425,3.425a.288.288,0,0,0,.407.407l3.425-3.426v4.845a.287.287,0,0,0,.575,0V45.171l3.426,3.426a.287.287,0,0,0,.406,0,.288.288,0,0,0,0-.407l-3.425-3.425h4.845a.287.287,0,0,0,0-.575Z" transform="translate(-54.718 -11.825)" fill="#fff" opacity="0.43"/><path d="M1323.718,197.191h-4.845l3.425-3.426a.287.287,0,0,0-.406-.406l-3.426,3.425v-4.845a.287.287,0,1,0-.575,0v4.845l-3.425-3.425a.287.287,0,1,0-.407.406l3.425,3.426h-4.844a.287.287,0,0,0,0,.575h4.844l-3.425,3.425a.288.288,0,0,0,.407.407l3.425-3.426v4.845a.287.287,0,1,0,.575,0v-4.845l3.426,3.426a.287.287,0,0,0,.406-.407l-3.425-3.425h4.845a.287.287,0,1,0,0-.575Z" transform="translate(-38.197 -58.633)" fill="#fff" opacity="0.43"/><path d="M1234.167,175.262l-3.867,8.924,4.165,6.841,4.164-7.436Z" transform="translate(-13.094 -53.619)" fill="#f99393"/><path d="M1381.167,149.262l-3.867,8.924,4.165,6.841,4.164-7.436Z" transform="translate(-58.067 -45.665)" fill="#8884f2"/><path d="M1381.167,149.262l-3.867,8.924,4.165,6.841,4.164-7.436Z" transform="translate(-67.067 -57.665)" fill="#ff85a8"/><path d="M1216.134,17.262l-2.456,5.669,2.645,4.346,2.645-4.724Z" transform="translate(-8.009 -5.281)" fill="#fff250"/><path d="M1392.836,114l-1.184,2.732,1.275,2.094,1.275-2.276Z" transform="translate(-62.457 -34.877)" fill="#fff250"/><path d="M1252.29,55.262l-4.613,10.645,4.968,8.161,4.968-8.871Z" transform="translate(-18.41 -16.907)" fill="#fff"/><path d="M1251.433,55.262l-3.755,8.667,4.044,6.645,4.044-7.222Z" transform="translate(-8.41 -7.907)" fill="#fff"/><circle cx="1.388" cy="1.388" r="1.388" transform="translate(1308.961 136.037)" fill="#fff" opacity="0.64"/><circle cx="1.388" cy="1.388" r="1.388" transform="translate(1268.705 16.658)" fill="#fff" opacity="0.64"/><circle cx="1.388" cy="1.388" r="1.388" transform="translate(1198.605 88.84)" fill="#fff" opacity="0.64"/><circle cx="1.388" cy="1.388" r="1.388" transform="translate(1333.253 24.292)" fill="#fff" opacity="0.64"/></g><text transform="translate(102 445)" fill="#fff" font-size="15" font-family="Nunito-Black, Nunito" font-weight="800" letter-spacing="0.2em"><tspan x="-21.637" y="0">TIPS</tspan></text></g></svg>