<svg xmlns="http://www.w3.org/2000/svg" width="298" height="72" viewBox="0 0 298 72"><rect width="298" height="72" rx="25" fill="#8985f2"/><text transform="translate(102 46)" fill="#fff" font-size="30" font-family="Nunito-Black, Nunito" font-weight="800" letter-spacing="0.2em"><tspan x="0" y="0">ADOPTA</tspan></text><g transform="translate(-918.551 -906.737)"><path d="M1012.722,935.379a17.044,17.044,0,0,0-2.024-7.929,17.355,17.355,0,0,0-32.518,4.312,17.5,17.5,0,0,0-34.629,3.617c0,8.445,6.406,13.528,12.486,18.378,7.885,6.289,16.161,12.114,24.144,18.252,0-.619,3.027-2.716,3.555-3.189l4.147-3.721c2.223-1.995,4.309-4.127,6.57-6.081,4.7-4.057,9.877-7.625,13.9-12.407A17.414,17.414,0,0,0,1012.722,935.379Z" transform="translate(-5.59 -0.932)" fill="#30096d" opacity="0.38"/><path d="M1007.722,933.379a17.042,17.042,0,0,0-2.025-7.929,17.355,17.355,0,0,0-32.518,4.312,17.5,17.5,0,0,0-34.629,3.617c0,8.445,6.406,13.528,12.486,18.378,7.885,6.289,16.161,12.114,24.144,18.252,0-.619,3.027-2.716,3.555-3.189l4.147-3.72c2.223-1.995,4.309-4.128,6.57-6.081,4.7-4.057,9.877-7.625,13.9-12.407A17.415,17.415,0,0,0,1007.722,933.379Z" transform="translate(-3.261)" fill="#ef583f"/><path d="M980.86,957.513a10.915,10.915,0,0,0-1.3-5.079,11.117,11.117,0,0,0-20.829,2.762,11.212,11.212,0,0,0-22.182,2.317c0,5.409,4.1,8.666,8,11.771,5.051,4.029,10.352,7.76,15.466,11.692,0-.4,1.939-1.739,2.277-2.043l2.656-2.383c1.424-1.278,2.761-2.644,4.209-3.9,3.008-2.6,6.327-4.884,8.9-7.947A11.156,11.156,0,0,0,980.86,957.513Z" transform="translate(-2.329 -14.173)" fill="#30096d" opacity="0.38"/><path d="M975.86,955.513a10.916,10.916,0,0,0-1.3-5.079,11.117,11.117,0,0,0-20.829,2.762,11.212,11.212,0,0,0-22.182,2.317c0,5.409,4.1,8.666,8,11.771,5.051,4.029,10.352,7.76,15.466,11.692,0-.4,1.939-1.739,2.277-2.043l2.656-2.383c1.424-1.278,2.761-2.644,4.209-3.9,3.008-2.6,6.327-4.884,8.9-7.947A11.156,11.156,0,0,0,975.86,955.513Z" transform="translate(0 -13.241)" fill="#f99293"/><path d="M984.383,961.676a4.319,4.319,0,0,1,8.264,1.769,5.446,5.446,0,0,1-.272,1.952c-1.094,3.328-8.916,10.11-14.646,14.741-1.314,1.062-3.01-.6-2.151-2.112C978.323,973.2,981.9,966.745,984.383,961.676Z" transform="translate(-20.401 -20.142)" fill="#d6321d" opacity="0.35"/><path d="M1018.561,948.88c3.458-6.678,12.728-4.352,12.756,3.307a9.119,9.119,0,0,1-.543,3.138c-1.906,5.317-14.5,15.843-23.706,23.009-2.111,1.644-4.649-1.137-3.219-3.528C1008.419,967.164,1014.391,956.932,1018.561,948.88Z" transform="translate(-33.484 -13.545)" fill="#d6321d" opacity="0.35"/><path d="M947.823,950.873l-1.25-1.444a3.081,3.081,0,0,0-3.815-.675,12.724,12.724,0,0,0-6.391,7.439,3.073,3.073,0,0,0,5.064,3.068,17.2,17.2,0,0,1,5.209-3.527A3.067,3.067,0,0,0,947.823,950.873Z" transform="translate(-2.185 -15.137)" fill="#fff" opacity="0.5"/><path d="M1028.386,925.06l-1.084-1.615c-.825-1.23-2.747-1.671-4.615-1.079-3.2,1.013-7.945,3.1-10.734,7.032-2.128,3,1.734,5.645,5.365,3.672a30.9,30.9,0,0,1,7.86-3.115C1027.948,929.35,1029.584,926.845,1028.386,925.06Z" transform="translate(-37.171 -2.902)" fill="#fff" opacity="0.17"/></g></svg>