<svg xmlns="http://www.w3.org/2000/svg" width="298" height="72" viewBox="0 0 298 72"><rect width="298" height="72" rx="25" fill="#8985f2"/><text transform="translate(112 46)" fill="#fff" font-size="30" font-family="Nunito-Black, Nunito" font-weight="800" letter-spacing="0.2em"><tspan x="0" y="0">DONAR</tspan></text><g transform="translate(-39 -696)"><g transform="translate(-874.551 -211.737)"><path d="M1012.722,935.379a17.044,17.044,0,0,0-2.024-7.929,17.355,17.355,0,0,0-32.518,4.312,17.5,17.5,0,0,0-34.629,3.617c0,8.445,6.406,13.528,12.486,18.378,7.885,6.289,16.161,12.114,24.144,18.252,0-.619,3.027-2.716,3.555-3.189l4.147-3.721c2.223-1.995,4.309-4.127,6.57-6.081,4.7-4.057,9.877-7.625,13.9-12.407A17.414,17.414,0,0,0,1012.722,935.379Z" transform="translate(-5.59 -0.932)" fill="#30096d" opacity="0.38"/><path d="M1007.722,933.379a17.042,17.042,0,0,0-2.025-7.929,17.355,17.355,0,0,0-32.518,4.312,17.5,17.5,0,0,0-34.629,3.617c0,8.445,6.406,13.528,12.486,18.378,7.885,6.289,16.161,12.114,24.144,18.252,0-.619,3.027-2.716,3.555-3.189l4.147-3.72c2.223-1.995,4.309-4.128,6.57-6.081,4.7-4.057,9.877-7.625,13.9-12.407A17.415,17.415,0,0,0,1007.722,933.379Z" transform="translate(-3.261)" fill="#ef583f"/><path d="M1018.561,948.88c3.458-6.678,12.728-4.352,12.756,3.307a9.119,9.119,0,0,1-.543,3.138c-1.906,5.317-14.5,15.843-23.706,23.009-2.111,1.644-4.649-1.137-3.219-3.528C1008.419,967.164,1014.391,956.932,1018.561,948.88Z" transform="translate(-33.484 -13.545)" fill="#d6321d" opacity="0.35"/><path d="M1028.386,925.06l-1.084-1.615c-.825-1.23-2.747-1.671-4.615-1.079-3.2,1.013-7.945,3.1-10.734,7.032-2.128,3,1.734,5.645,5.365,3.672a30.9,30.9,0,0,1,7.86-3.115C1027.948,929.35,1029.584,926.845,1028.386,925.06Z" transform="translate(-37.171 -2.902)" fill="#fff" opacity="0.17"/></g><g transform="translate(68.373 10.373)"><g transform="translate(15.513 712.584)"><circle cx="12.678" cy="12.678" r="12.678" transform="translate(1 1)" fill="#a53626"/><circle cx="12.678" cy="12.678" r="12.678" transform="translate(0 0)" fill="#ffdb12"/><g transform="translate(7.086 1.997)"><path d="M276.216,260.425a3.569,3.569,0,0,1,.539,1.938,3.783,3.783,0,0,1-.172,1.153,3.837,3.837,0,0,1-2.011,2.4,6.378,6.378,0,0,1-2.624.662v2.526h-1.128v-2.6a7.927,7.927,0,0,1-4.93-2.232l.76-.81a7.055,7.055,0,0,0,5.052,1.987,6.207,6.207,0,0,0,2.232-.454,2.633,2.633,0,0,0,1.594-1.8,3.55,3.55,0,0,0,.122-.834,2.514,2.514,0,0,0-.7-1.729,4.294,4.294,0,0,0-1.95-1.165l-3.384-.957a5.037,5.037,0,0,1-2.845-2.06,3.4,3.4,0,0,1-.539-1.888,4.055,4.055,0,0,1,.895-2.551,4.041,4.041,0,0,1,1.239-1.005,6.343,6.343,0,0,1,2.453-.662v-2.6h1.128v2.624a8.377,8.377,0,0,1,5.126,2.256l-.76.809A7.218,7.218,0,0,0,274,251.952a7.529,7.529,0,0,0-2.734-.478,6.175,6.175,0,0,0-2.244.454,2.568,2.568,0,0,0-1.557,1.8,3.51,3.51,0,0,0-.122.834,2.493,2.493,0,0,0,.686,1.717,4.258,4.258,0,0,0,1.938,1.153l3.36.981A5.224,5.224,0,0,1,276.216,260.425Z" transform="translate(-265.891 -247.746)" fill="#ff5229" stroke="#fd5228" stroke-width="1"/></g></g></g></g></svg>