<svg xmlns="http://www.w3.org/2000/svg" xmlns:xlink="http://www.w3.org/1999/xlink" width="295.076" height="122.704" viewBox="0 0 295.076 122.704"><defs><clipPath id="a"><path d="M-341.118,1309.807l23.3,16.7c2.485,1.781,1.464,6.194-1.553,6.713l-28.484,4.9Z" transform="translate(347.859 -1309.807)" fill="none"/></clipPath><clipPath id="b"><path d="M-294.768,1236.431l26.912,9.87c2.87,1.053,3.066,5.577.3,6.884L-293.7,1265.52Z" transform="translate(294.768 -1236.431)" fill="none"/></clipPath><clipPath id="c"><path d="M-358.329,1167.874l28.493,3.139c3.039.335,4.312,4.68,1.937,6.612l-22.424,18.235Z" transform="translate(358.329 -1167.874)" fill="none"/></clipPath><clipPath id="d"><path d="M-478.115,1218.839a31.537,31.537,0,0,0-28.016-31.336,31.538,31.538,0,0,0-31.042-26,31.54,31.54,0,0,0-29.263,19.782H-758.5v86.581h194.263A31.526,31.526,0,0,0-536.6,1284.2a31.536,31.536,0,0,0,31.536-31.536c0-.881-.045-1.752-.116-2.615A31.538,31.538,0,0,0-478.115,1218.839Z" transform="translate(758.5 -1161.5)" fill="none"/></clipPath></defs><g transform="translate(235.455 85.037)"><g transform="translate(0)" clip-path="url(#a)"><path d="M-341.118,1309.807l23.3,16.7c2.485,1.781,1.464,6.194-1.553,6.713l-28.484,4.9Z" transform="translate(347.859 -1309.807)" fill="#fffceb"/><path d="M-314.76,1339.259l-31.537-3.432-2.65,14.682,24.068.023S-314.191,1344.669-314.76,1339.259Z" transform="translate(348.323 -1320.908)" fill="#30096d" opacity="0.26"/></g></g><g transform="translate(265.896 42.964)"><g transform="translate(0)" clip-path="url(#b)"><path d="M-294.768,1236.431l26.912,9.87c2.87,1.053,3.066,5.577.3,6.884L-293.7,1265.52Z" transform="translate(294.768 -1236.431)" fill="#fffceb"/><path d="M-264.431,1254.773l-31.307,5.12,1.369,14.856,23.2-6.409S-262.438,1259.834-264.431,1254.773Z" transform="translate(295.182 -1244.256)" fill="#30096d" opacity="0.26"/></g></g><g transform="translate(229.452 3.655)"><g clip-path="url(#c)"><path d="M-358.329,1167.874l28.493,3.139c3.039.335,4.312,4.68,1.937,6.612l-22.424,18.235Z" transform="translate(358.329 -1167.874)" fill="#fffceb"/><path d="M-323.57,1172.84l-29.171,12.468,4.886,14.1,20.99-11.777S-320.423,1177.277-323.57,1172.84Z" transform="translate(355.945 -1169.993)" fill="#30096d" opacity="0.26"/></g></g><g transform="translate(0 0)"><g clip-path="url(#d)"><path d="M-478.115,1218.839a31.537,31.537,0,0,0-28.016-31.336,31.538,31.538,0,0,0-31.042-26,31.54,31.54,0,0,0-29.263,19.782H-758.5v86.581h194.263A31.526,31.526,0,0,0-536.6,1284.2a31.536,31.536,0,0,0,31.536-31.536c0-.881-.045-1.752-.116-2.615A31.538,31.538,0,0,0-478.115,1218.839Z" transform="translate(758.5 -1161.5)" fill="#fff7c0"/><ellipse cx="60.779" cy="53.898" rx="60.779" ry="53.898" transform="translate(-9.748 -29.529)" fill="#8985f2" opacity="0.45"/><ellipse cx="42.144" cy="37.373" rx="42.144" ry="37.373" transform="translate(103.209 77.12)" fill="#8985f2" opacity="0.45"/><path d="M-308.937,1221s-4.014,41.857-39.563,47.018l44.724,19.495,18.348-25.229Z" transform="translate(583.587 -1186.884)" fill="#30096d" opacity="0.26"/><path d="M-509.89,1325.174s-38.417,20.068-52.751-9.174H-770.78l-1.72,40.137,251.142,8.027Z" transform="translate(764.473 -1227.412)" fill="#30096d" opacity="0.26"/><path d="M-349.643,1192.119s-29.816-9.748-41.857,9.748c0,0,3.923-26.184,33.21-29.433S-349.643,1192.119-349.643,1192.119Z" transform="translate(601.932 -1166.03)" fill="#30096d" opacity="0.26"/></g></g></svg>