<svg xmlns="http://www.w3.org/2000/svg" xmlns:xlink="http://www.w3.org/1999/xlink" width="295.076" height="115.473" viewBox="0 0 295.076 115.473"><defs><clipPath id="a"><path d="M6.741,28.318l23.3-16.7C32.522,9.835,31.5,5.422,28.484,4.9L0,0Z" transform="translate(0)" fill="none"/></clipPath><clipPath id="b"><path d="M0,29.089l26.912-9.87c2.87-1.053,3.066-5.577.3-6.883L1.071,0Z" fill="none"/></clipPath><clipPath id="c"><path d="M0,27.987l28.493-3.139c3.039-.335,4.312-4.681,1.937-6.612L8.006,0Z" fill="none"/></clipPath><clipPath id="d"><path d="M280.385,61.514c0,15.271-12.257,27.841-28.016,29.489-2.617,13.906-15.515,24.47-31.042,24.47-13.261,0-24.6-7.706-29.263-18.616H0V15.378H194.263A31.873,31.873,0,0,1,221.9,0c17.417,0,31.536,13.287,31.536,29.678,0,.829-.045,1.649-.116,2.461C268.618,34.182,280.385,46.552,280.385,61.514Z" fill="none"/></clipPath></defs><g transform="translate(295.076 115.473) rotate(-180)"><g transform="translate(235.455 9.349)"><g transform="translate(0)" clip-path="url(#a)"><path d="M6.741,28.318l23.3-16.7C32.522,9.835,31.5,5.422,28.484,4.9L0,0Z" transform="translate(0)" fill="#fffceb"/><path d="M34.187,11.273,2.65,14.7,0,.023,24.068,0S34.756,5.863,34.187,11.273Z" transform="translate(-0.624 -1.306)" fill="#30096d" opacity="0.26"/></g></g><g transform="translate(265.897 46.738)"><g transform="translate(0 0)" clip-path="url(#b)"><path d="M0,29.089l26.912-9.87c2.87-1.053,3.066-5.577.3-6.883L1.071,0Z" fill="#fffceb"/><path d="M31.307,19.976,0,14.856,1.369,0l23.2,6.409S33.3,14.915,31.307,19.976Z" transform="translate(-0.556 -1.404)" fill="#30096d" opacity="0.26"/></g></g><g transform="translate(229.452 83.832)"><g transform="translate(0)" clip-path="url(#c)"><path d="M0,27.987l28.493-3.139c3.039-.335,4.312-4.681,1.937-6.612L8.006,0Z" fill="#fffceb"/><path d="M29.171,26.564,0,14.1,4.886,0l20.99,11.777S32.318,22.127,29.171,26.564Z" transform="translate(3.204 -1.424)" fill="#30096d" opacity="0.26"/></g></g><g transform="translate(0)"><g clip-path="url(#d)"><path d="M280.385,61.514c0,15.271-12.257,27.841-28.016,29.489-2.617,13.906-15.515,24.47-31.042,24.47-13.261,0-24.6-7.706-29.263-18.616H0V15.378H194.263A31.873,31.873,0,0,1,221.9,0c17.417,0,31.536,13.287,31.536,29.678,0,.829-.045,1.649-.116,2.461C268.618,34.182,280.385,46.552,280.385,61.514Z" fill="#fff3d6"/><ellipse cx="60.779" cy="50.722" rx="60.779" ry="50.722" transform="translate(-9.747 41.819)" fill="#ffdb12" opacity="0.28"/><ellipse cx="42.144" cy="35.17" rx="42.144" ry="35.17" transform="translate(103.209 -27.443)" fill="#ffdb12" opacity="0.28"/><path d="M39.563,62.593S35.55,23.2,0,18.346L44.724,0,63.072,23.742Z" transform="translate(235.087 20.774)" fill="#30096d" opacity="0.26"/><path d="M262.61,36.692s-38.417-18.886-52.751,8.633H1.72L0,7.554,251.142,0Z" transform="translate(-8.027 -13.22)" fill="#30096d" opacity="0.26"/><path d="M41.857,9.173S12.041,18.346,0,0C0,0,3.922,24.641,33.21,27.7S41.857,9.173,41.857,9.173Z" transform="translate(210.432 81.749)" fill="#30096d" opacity="0.26"/></g></g></g></svg>